<svg width="47" height="47" viewBox="0 0 47 47" fill="none" xmlns="http://www.w3.org/2000/svg">
<path d="M45.4261 24.2414L35.4101 19.6309V6.42076C35.4055 6.14361 35.3213 5.87363 35.1676 5.643C35.0138 5.41237 34.797 5.23082 34.5429 5.11998L23.7031 0.133656C23.5129 0.0456065 23.3057 0 23.0961 0C22.8864 0 22.6793 0.0456065 22.489 0.133656L11.6492 5.11998C11.3983 5.23608 11.186 5.4217 11.0374 5.65482C10.8889 5.88794 10.8102 6.15877 10.8109 6.43521V19.6454L0.838285 24.2414C0.587408 24.3576 0.37509 24.5432 0.22651 24.7763C0.0779296 25.0094 -0.000679621 25.2802 4.42661e-06 25.5567V39.6918C-0.000679621 39.9683 0.0779296 40.2391 0.22651 40.4722C0.37509 40.7053 0.587408 40.891 0.838285 41.0071L11.6781 45.9934C11.8684 46.0814 12.0755 46.127 12.2852 46.127C12.4948 46.127 12.7019 46.0814 12.8922 45.9934L23.125 41.2817L33.3578 45.9934C33.548 46.0814 33.7552 46.127 33.9648 46.127C34.1745 46.127 34.3816 46.0814 34.5719 45.9934L45.4117 41.0071C45.6626 40.891 45.8749 40.7053 46.0235 40.4722C46.172 40.2391 46.2506 39.9683 46.25 39.6918V25.5567C46.2519 25.2818 46.1755 25.0121 46.0296 24.7791C45.8836 24.5462 45.6743 24.3596 45.4261 24.2414V24.2414ZM33.9793 28.9243L26.5937 25.5567L33.9793 22.1602L41.3648 25.5567L33.9793 28.9243ZM32.534 19.6165L23.2262 23.9524V12.8379C23.4004 12.8302 23.5718 12.7911 23.732 12.7223L32.5195 8.6899V19.6454L32.534 19.6165ZM23.125 3.02428L30.5105 6.42076L23.125 9.81724L15.7539 6.42076L23.125 3.02428ZM12.2852 22.1457L19.6707 25.5422L12.2852 28.9243L4.89961 25.5567L12.2852 22.1457ZM21.6797 38.7524L12.2852 43.0883V31.9739C12.4869 31.9619 12.6838 31.9077 12.8633 31.8149L21.6508 27.768L21.6797 38.7524ZM43.3593 38.7524L34.0226 43.0883V31.9739C34.2046 31.9543 34.3811 31.9003 34.5429 31.8149L43.3304 27.768L43.3593 38.7524Z" fill="white"/>
</svg>
