<svg width="98" height="98" viewBox="0 0 98 98" fill="none" xmlns="http://www.w3.org/2000/svg">
<path d="M96.9755 53.5182L52.2468 1.97034C51.8425 1.5039 51.3426 1.12982 50.7811 0.87344C50.2196 0.617061 49.6095 0.484375 48.9922 0.484375C48.3749 0.484375 47.7649 0.617061 47.2033 0.87344C46.6418 1.12982 46.1419 1.5039 45.7376 1.97034L1.0224 53.5182C0.887275 53.6736 0.799663 53.8645 0.769996 54.0683C0.740329 54.272 0.769858 54.48 0.855064 54.6675C0.94027 54.8549 1.07756 55.0139 1.25059 55.1256C1.42361 55.2372 1.62508 55.2967 1.83099 55.2971H12.747C13.3669 55.2971 13.9599 55.0276 14.3777 54.5559L43.8779 20.5545V96.441C43.8779 97.034 44.363 97.5192 44.956 97.5192H53.0419C53.6349 97.5192 54.12 97.034 54.12 96.441V20.5545L83.6203 54.5559C84.0246 55.0276 84.6175 55.2971 85.2509 55.2971H96.1669C97.0833 55.2971 97.582 54.219 96.9755 53.5182Z" fill="white"/>
</svg>
