<svg width="138" height="138" viewBox="0 0 138 138" fill="none" xmlns="http://www.w3.org/2000/svg">
<path d="M138 68.8696C138.07 106.886 107.067 137.973 69.05 138C52.6305 138.012 37.5485 132.288 25.6964 122.722C22.6145 120.235 22.3841 115.616 25.1847 112.815L28.3195 109.681C30.7147 107.285 34.5386 107.023 37.1924 109.129C45.9245 116.058 56.9753 120.194 68.9999 120.194C97.2969 120.194 120.193 97.2927 120.193 69.0001C120.193 40.7031 97.2924 17.8065 68.9999 17.8065C55.4186 17.8065 43.0835 23.0842 33.9246 31.6989L48.0457 45.82C50.8502 48.6245 48.8639 53.4195 44.8981 53.4195H4.45161C1.99293 53.4195 0 51.4265 0 48.9678V8.52124C0 4.5554 4.79494 2.56914 7.59945 5.37339L21.336 19.11C33.7234 7.27172 50.5124 0 68.9999 0C107.064 0 137.929 30.8219 138 68.8696ZM87.6655 90.7894L90.3986 87.2754C92.6628 84.3643 92.1383 80.169 89.2272 77.905L77.9032 69.0972V40.0646C77.9032 36.3767 74.9136 33.3872 71.2257 33.3872H66.7741C63.0863 33.3872 60.0967 36.3767 60.0967 40.0646V77.8063L78.2952 91.9608C81.2063 94.2247 85.4013 93.7005 87.6655 90.7894V90.7894Z" fill="white"/>
</svg>
