<svg height='100px' width='100px'  fill="#FFFFFF" xmlns="http://www.w3.org/2000/svg" data-name="Layer 1" viewBox="0 0 80 80" x="0px" y="0px"><title>minecraft-block-crafting-build</title><path d="M74.86469,27.76465c-.18873-6.10468-.77417-7.6933-5.06452-10.28143-1.24963-.75385-2.66138-1.51252-4.16937-2.3313-4.40265-2.39038-7.11987-3.62836-11.42743-5.6532-2.58765-1.21643-5.98047-2.864-9.962-5.17175-2.41626-1.40046-4.77185-3.175-9.561-.53583-4.31629,2.3786-8.03528,4.44616-11.04151,6.15918-4.22442,2.4071-7.25445,4.19323-8.129,4.70965-1.782,1.05231-3.44391,2.05109-4.97724,2.9737-5.53888,3.33276-4.99878,4.51019-5.02185,9.25213-.02209,4.53162-.119,9.07978-.19446,13.64514-.07507,4.54383-.255,9.06958-.25506,13.58-.00012,5.63776,1.28735,5.63776,5.59381,8.90387a44.37906,44.37906,0,0,0,7.99713,4.91284c5.748,2.95435,4.42706,2.4325,9.56738,5.05487,1.56031.796,3.42774,1.859,5.40284,2.80646,5.02459,2.41028,6.83911,2.54035,12.947-.65417,2.63891-1.38019,4.82855-2.61249,6.52118-3.60389,5.20739-3.05011,8.49115-4.85168,16.40319-10.11291,4.76612-3.16931,5.48218-3.387,5.44367-9.89606-.02167-3.65313-.141-7.3161-.20172-10.991C74.68085,37.213,74.99689,32.04211,74.86469,27.76465ZM58.93744,44.89557q-.03095-5.58627-.12769-11.0542c1.33118-.99768,2.77069-2.01178,4.34528-3.02008,1.38476-.88678,3.49719-2.09564,5.43225-3.15711q.15555,5.52531.20123,11.24054C65.81342,40.85858,62.41321,42.88763,58.93744,44.89557ZM41.1391,54.7934c-3.01068-1.67969-6.65662-3.64228-9.62738-5.14307-.11694-.05908-.23895-.12152-.35645-.181,3.494-2.07861,6.382-3.7912,8.4513-5.01678.69977-.41443,1.3385-.79242,1.94171-1.14948q4.881,3.04843,9.51935,6.08972c-.17371.09912-.35315.20093-.52552.29944C47.68524,51.32532,43.94464,53.31549,41.1391,54.7934ZM18.25177,30.82129c1.8963,1.21429,3.099,2.0296,4.5705,2.99957-.18329,3.69275-.29181,7.28382-.45984,11.11609-3.93445-2.0722-7.78992-4.17816-11.16181-6.15308.03491-4.0205.10382-7.98565.2182-11.8695C13.66626,28.11456,16.53937,29.72473,18.25177,30.82129ZM52.73712,32.622q.07847,6.08523.06592,12.30743c-2.42529-1.45965-6.37744-3.83831-9.11615-5.48687-.0213-1.92939-.04279-3.85846-.048-5.81482-.0061-2.28931.00892-4.54334.02472-6.79584Q48.31107,29.73,52.73712,32.622Zm-14.51758-5.0155q.00028,1.76825,0,3.53735-.005,4.05487-.02612,8.08533c-.95612.56231-2.03894,1.19671-3.29651,1.933-2.712,1.58783-5.074,2.96906-6.98053,4.08319.0885-3.9516.18884-7.85907.325-11.71527,3.9231-2.335,7.1438-4.245,9.39752-5.57983Zm27.51911-5.23969c-1.90247,1.23712-3.81153,2.47455-5.74494,3.71253-1.4721.94262-2.93628,1.86932-4.40039,2.79583-2.44623-1.47216-6.81164-4.09961-9.68915-5.83172,1.16852-.70307,2.24006-1.35761,3.47663-2.12543,2.2395-1.39063,4.21228-2.651,5.85071-3.71429.65637.37146,1.3117.73522,1.98266,1.0957C59.4668,19.50977,62.31934,20.9223,65.73865,22.36682ZM36.70837,8.98c2.4383-1.46381,3.61084-.90924,5.47284.27319,1.59064,1.01007,3.35541,2.11744,5.276,3.29517.80225.49194,1.54407.94635,2.25867,1.38263-1.46057,1.08392-3.3952,2.47345-5.72217,4.01935-1.07812.71624-2.04614,1.33667-3.1745,2.03137-3.31408-1.996-8.36639-5.03931-11.53289-6.947,1.01715-.5174,2.228-1.1449,3.92907-2.0802C34.51385,10.2406,35.69513,9.58826,36.70837,8.98ZM16.44885,20.83807c5.46582-3.63244,5.85614-3.9533,7.62586-5.00335.19153-.11365.37292-.21985.55017-.323q5.89855,3.34084,11.9732,6.996c-1.04638.61609-2.24426,1.31812-3.66888,2.15222-2.79962,1.63916-5.222,3.05555-7.15918,4.18756-1.44971-.91754-2.89941-1.8349-4.35693-2.76818Q18.12341,23.9729,14.89636,21.868C15.39661,21.53662,15.91113,21.19543,16.44885,20.83807ZM11.33246,57.05084c-.092-3.936-.13886-7.95105-.15112-12.02105,3.64025,1.772,7.235,3.62689,10.94458,5.57928-.17194,4.16846-.3255,8.30554-.4455,12.3822q-1.3136-.70779-2.63824-1.44391Q15.02887,59.3144,11.33246,57.05084ZM27.45422,65.993c.05085-3.13141.11267-6.27948.19831-9.462.02667-.99139.048-1.975.072-2.96295,3.60608,1.907,7.19812,3.81592,10.60656,5.72095-.06195,2.03149-.13848,4.16943-.23168,5.87231-.10645,1.94629-.14325,3.85254-.21436,5.73462Q32.81062,68.66767,27.45422,65.993Zm16.25769,4.09869c.10059-2.90545.19068-7.2796.25989-10.40472q4.25382-2.73339,8.75714-5.47559c-.00976.73121-.015,1.45636-.02679,2.19019-.04749,2.96436-.11981,5.89215-.19794,8.81073-1.01465.55969-1.8949,1.06519-2.58209,1.49457A68.0575,68.0575,0,0,1,43.71191,70.09167Zm15.16834-8.2564q.06683-5.60431.06494-11.33307,5.00748-2.927,9.86206-5.58313-.0174,5.97738-.14477,11.77319C65.60913,58.35541,62.11041,60.15784,58.88025,61.83527Z"></path></svg>