<svg width="48" height="48" viewBox="0 0 48 48" fill="none" xmlns="http://www.w3.org/2000/svg">
<path fill-rule="evenodd" clip-rule="evenodd" d="M34.3614 19.3279C34.3614 21.3021 33.9726 23.257 33.2171 25.081C32.4616 26.9049 31.3542 28.5622 29.9582 29.9582C28.5622 31.3542 26.9049 32.4616 25.081 33.2171C23.257 33.9726 21.3021 34.3614 19.3279 34.3614C17.3537 34.3614 15.3988 33.9726 13.5748 33.2171C11.7509 32.4616 10.0936 31.3542 8.69759 29.9582C7.3016 28.5622 6.19423 26.9049 5.43873 25.081C4.68322 23.257 4.29437 21.3021 4.29437 19.3279C4.29437 15.3408 5.87826 11.5169 8.69759 8.69759C11.5169 5.87826 15.3408 4.29437 19.3279 4.29437C23.315 4.29437 27.1389 5.87826 29.9582 8.69759C32.7775 11.5169 34.3614 15.3408 34.3614 19.3279ZM31.3934 34.4301C27.5337 37.5137 22.6398 39.0023 17.7169 38.5903C12.7939 38.1783 8.21556 35.897 4.92208 32.2148C1.62861 28.5327 -0.129979 23.7292 0.00749278 18.7909C0.144965 13.8527 2.16806 9.15451 5.66129 5.66129C9.15451 2.16806 13.8527 0.144965 18.7909 0.00749278C23.7292 -0.129979 28.5327 1.62861 32.2148 4.92208C35.897 8.21556 38.1783 12.7939 38.5903 17.7169C39.0023 22.6398 37.5137 27.5337 34.4301 31.3934L46.6202 43.5791C46.8199 43.7788 46.9783 44.0158 47.0863 44.2767C47.1944 44.5376 47.25 44.8173 47.25 45.0996C47.25 45.382 47.1944 45.6617 47.0863 45.9226C46.9783 46.1834 46.8199 46.4205 46.6202 46.6202C46.4205 46.8199 46.1834 46.9783 45.9226 47.0863C45.6617 47.1944 45.382 47.25 45.0996 47.25C44.8173 47.25 44.5376 47.1944 44.2767 47.0863C44.0158 46.9783 43.7788 46.8199 43.5791 46.6202L31.3977 34.4301H31.3934Z" fill="white"/>
</svg>
