<svg width="115" height="115" viewBox="0 0 115 115" fill="none" xmlns="http://www.w3.org/2000/svg">
<path d="M50.3502 18.175C44.9948 18.175 40.0399 19.8553 35.9644 22.7153C35.6998 18.6183 34.7632 15.0648 33.04 11.9188C38.4828 8.90676 44.6172 7.36706 50.8372 7.4518C57.0572 7.53655 63.1474 9.2428 68.5061 12.402C73.8647 15.5611 78.3063 20.0638 81.392 25.4651C84.4776 30.8665 86.1004 36.9794 86.1002 43.2H102.195C109.102 43.1929 114.707 48.7985 114.707 55.7054V95.0304C114.708 96.6747 114.385 98.3032 113.756 99.8225C113.127 101.342 112.205 102.722 111.043 103.885C109.88 105.048 108.499 105.97 106.98 106.599C105.46 107.228 103.832 107.551 102.188 107.55H62.8627C59.5442 107.55 56.3616 106.232 54.015 103.885C51.6685 101.539 50.3502 98.356 50.3502 95.0375V78.95C45.3765 78.9563 40.4566 77.9212 35.9072 75.9113C36.0001 73.4803 36.0502 70.9277 36.0502 68.225V67.7817C36.0502 66.5877 36.0502 65.2149 36.0287 63.7277C40.0899 66.5591 45.0234 68.225 50.3502 68.225V55.7125C50.3502 48.8056 55.9558 43.2 62.8627 43.2H75.3752C75.3752 36.563 72.7386 30.1978 68.0455 25.5047C63.3524 20.8116 56.9872 18.175 50.3502 18.175ZM84.4628 53.925C82.7299 59.4154 79.6997 64.4074 75.6286 68.4784C71.5575 72.5495 66.5655 75.5797 61.0752 77.3127V95.0375C61.0752 96.0242 61.876 96.825 62.8627 96.825H102.188C102.662 96.825 103.116 96.6367 103.452 96.3015C103.787 95.9662 103.975 95.5116 103.975 95.0375V55.7125C103.975 55.2384 103.787 54.7838 103.452 54.4486C103.116 54.1133 102.662 53.925 102.188 53.925H84.4628ZM72.9656 53.925H62.8627C62.3886 53.925 61.934 54.1133 61.5987 54.4486C61.2635 54.7838 61.0752 55.2384 61.0752 55.7125V65.8155C66.2864 63.3348 70.485 59.1362 72.9656 53.925V53.925Z" fill="white"/>
<path d="M18.7468 1.1937C19.3415 1.7119 19.7481 2.41222 19.9033 3.18557C20.0584 3.95892 19.9535 4.76189 19.6048 5.4694C19.5443 5.67858 19.513 5.89513 19.5119 6.1129C19.5119 6.56335 19.6263 7.42135 20.7059 8.49385C21.2279 9.0158 21.6283 9.3876 22.0644 9.79515C22.4219 10.124 22.8009 10.4672 23.2799 10.9391C24.2094 11.8257 25.189 12.8696 26.0684 14.1781C27.8917 16.9165 28.8998 20.3414 28.8998 25.3249C28.8998 31.4239 26.6404 36.6219 23.1155 39.8108L23.5731 40.3399C25.5751 42.7995 26.7405 45.9884 27.4698 49.1344C28.8998 55.3549 28.8998 62.8339 28.8998 68.0462V68.225C28.8998 88.152 26.19 99.4561 23.2084 105.92C21.7069 109.173 20.1125 111.247 18.7325 112.548C18.1715 113.086 17.5528 113.561 16.8878 113.964C16.5833 114.147 16.2654 114.307 15.9369 114.443C15.9369 114.443 15.1289 114.7 14.5998 114.7C14.0707 114.7 13.2628 114.443 13.2628 114.443C12.9306 114.315 12.6121 114.154 12.3118 113.964C11.6468 113.561 11.0281 113.086 10.4671 112.548C9.08715 111.239 7.49271 109.173 5.99121 105.92C3.00965 99.4561 0.299805 88.152 0.299805 68.225V68.0462C0.299805 62.8267 0.299805 55.3549 1.72981 49.1344C2.45911 45.9884 3.62455 42.7995 5.62655 40.3399C5.76955 40.1612 5.92686 39.9824 6.08416 39.8108C2.5592 36.6219 0.299805 31.4239 0.299805 25.3249C0.299805 22.994 0.921855 20.2127 1.77985 17.6458C2.63785 15.0718 3.83905 12.412 5.22615 10.267C6.8778 7.47855 9.20156 5.1405 11.0034 3.5675C11.9912 2.69874 13.0221 1.88023 14.0922 1.11505L14.4068 0.900546C15.0624 0.463514 15.844 0.255322 16.6302 0.308336C17.4163 0.361349 18.1629 0.672597 18.754 1.1937H18.7468Z" fill="white"/>
</svg>
