<svg height='100px' width='100px'  fill="#ffffff" xmlns="http://www.w3.org/2000/svg" data-name="Layer 1" viewBox="0 0 100 100" x="0px" y="0px"><title>A</title><circle cx="24.94434" cy="38.53764" r="5.96911"></circle><path d="M12.18518,82.34784c5.59815,1.3905,10.60291-4.247,14.19409-9.246,2.25733-3.14215,4.33411-3.64466,11.19629-4.11579a218.63706,218.63706,0,0,1,24.84876,0c6.8623.47113,8.73193.97791,11.19641,4.11579,3.80176,4.84076,8.59594,10.63653,14.19409,9.246,8.65344-2.14941,7.66894-20.151,6.24829-29.79675C92.69055,43.23285,88.35657,29.00262,85.106,25.4812a5.9556,5.9556,0,0,0-1.85486-1.19366c.084-1.0293.16528-3.11744-.47461-3.79047-1.33215-1.40112-9.463-4.27643-11.95667-2.49347-.69958.50018-.84375,2.602-.87365,3.47327a6.3871,6.3871,0,0,0-2.06812.1579c-1.55981.59057-1.63367,2.62957-3.56445,3.58422-2.897,1.43244-25.73023,1.43244-28.6272,0-1.93078-.95465-2.00464-2.99365-3.56445-3.58422a6.3871,6.3871,0,0,0-2.06812-.1579c-.0299-.87128-.17407-2.97309-.87365-3.47327-2.49366-1.783-10.62452,1.09235-11.95667,2.49347-.63989.673-.55859,2.76117-.47473,3.79047a5.9551,5.9551,0,0,0-1.85486,1.19366c-3.25049,3.52142-7.58447,17.75165-8.957,27.06989C4.51624,62.19684,3.53162,80.19843,12.18518,82.34784Zm69.141-46.53967A2.72943,2.72943,0,1,1,78.5968,38.5376,2.72945,2.72945,0,0,1,81.32617,35.80817ZM75.05566,29.5376A2.72946,2.72946,0,1,1,72.32617,32.267,2.72938,2.72938,0,0,1,75.05566,29.5376Zm0,12.54107a2.72947,2.72947,0,1,1-2.72949,2.7295A2.7294,2.7294,0,0,1,75.05566,42.07867ZM68.785,35.80817a2.72943,2.72943,0,1,1-2.72937,2.72943A2.72938,2.72938,0,0,1,68.785,35.80817ZM65.18176,48.80023a8.5,8.5,0,1,1-8.5,8.5A8.50981,8.50981,0,0,1,65.18176,48.80023ZM50,34.99652c2.65784,0,4.8125,1.58539,4.8125,3.54108S52.65784,42.07867,50,42.07867s-4.8125-1.58538-4.8125-3.54107S47.34216,34.99652,50,34.99652ZM37.12354,49.87268l-.00013,2.72467a2.39918,2.39918,0,0,0,2.39917,2.39911h2.72315c1.42993,0,1.42993,4.60913,0,4.60913l-2.72461-.00006A2.39909,2.39909,0,0,0,37.122,62.00464v2.72314c0,1.42993-4.60913,1.42993-4.60913,0V62.00311a2.39892,2.39892,0,0,0-2.399-2.39911H27.39063c-1.42994,0-1.42994-4.60907,0-4.60907h2.72473a2.39921,2.39921,0,0,0,2.39917-2.3991V49.87268C32.51453,48.44281,37.12354,48.44281,37.12354,49.87268Zm-12.1792-20.335a9,9,0,1,1-9,9A9.01,9.01,0,0,1,24.94434,29.53766Z"></path><circle cx="65.18176" cy="57.30023" r="5.5"></circle></svg>