<svg width="155" height="135" viewBox="0 0 155 135" fill="none" xmlns="http://www.w3.org/2000/svg">
<path d="M38.75 0.5C60.1594 0.5 77.5 17.6531 77.5 38.8134C77.5 17.6531 94.8406 0.5 116.25 0.5C137.659 0.5 155 17.6531 155 38.8134C155 70.7054 123.671 81.9551 81.2975 132.72C80.831 133.278 80.2495 133.726 79.5936 134.033C78.9377 134.341 78.2232 134.5 77.5 134.5C76.7768 134.5 76.0623 134.341 75.4064 134.033C74.7505 133.726 74.169 133.278 73.7025 132.72C31.3294 81.9551 0 70.7054 0 38.8134C0 17.6531 17.3406 0.5 38.75 0.5Z" fill="white"/>
</svg>
