<svg height='100px' width='100px'  fill="#FFFFFF" xmlns="http://www.w3.org/2000/svg" xmlns:xlink="http://www.w3.org/1999/xlink" version="1.1" x="0px" y="0px" viewBox="0 0 50 50" enable-background="new 0 0 50 50" xml:space="preserve"><g><path d="M31,27.8h-0.7v13.8H4.5V7.5h25.8v4.6c0.3-0.1,0.6-0.2,0.9-0.2h2.3V5c0-2.2-1.8-4-4-4H5.2c-2.2,0-4,1.8-4,4v40   c0,2.2,1.8,4,4,4h24.3c2.2,0,4-1.8,4-4V32.9c-1,0-1.9-0.5-2.5-1.2C30.1,30.6,30.1,29,31,27.8z M17.4,46.5c-0.7,0-1.2-0.5-1.2-1.2   c0-0.7,0.6-1.2,1.2-1.2c0.7,0,1.2,0.6,1.2,1.2C18.6,46,18,46.5,17.4,46.5z"></path><path d="M26,15.6v-2.2c0-1.1-0.9-2-2-2H10.7c-1.1,0-2,0.9-2,2v2.2c0,1.1,0.9,2,2,2H24C25.1,17.6,26,16.7,26,15.6z M12.4,16   c-0.8,0-1.5-0.7-1.5-1.5c0-0.8,0.7-1.5,1.5-1.5s1.5,0.7,1.5,1.5C13.9,15.3,13.2,16,12.4,16z M17.4,16c-0.8,0-1.5-0.7-1.5-1.5   c0-0.8,0.7-1.5,1.5-1.5s1.5,0.7,1.5,1.5C18.9,15.3,18.2,16,17.4,16z M22.4,16c-0.8,0-1.5-0.7-1.5-1.5c0-0.8,0.7-1.5,1.5-1.5   s1.5,0.7,1.5,1.5C23.9,15.3,23.2,16,22.4,16z"></path><path d="M21.7,22.3h3.5c-0.3-0.2-0.7-0.4-1.2-0.4H10.7c-1.1,0-2,0.9-2,2v2.2c0,1.1,0.9,2,2,2H24c0.4,0,0.9-0.1,1.2-0.4h-3.6   c-0.8,0-1.5-0.3-2-0.9c-0.5-0.6-0.8-1.3-0.7-2.1C19,23.4,20.3,22.3,21.7,22.3z M12.4,26.5c-0.8,0-1.5-0.7-1.5-1.5s0.7-1.5,1.5-1.5   s1.5,0.7,1.5,1.5S13.2,26.5,12.4,26.5z M17.4,26.5c-0.8,0-1.5-0.7-1.5-1.5s0.7-1.5,1.5-1.5s1.5,0.7,1.5,1.5S18.2,26.5,17.4,26.5z"></path><path d="M10.7,31.5c-1.1,0-2,0.9-2,2v2.2c0,1.1,0.9,2,2,2H24c1.1,0,2-0.9,2-2v-2.2c0-1.1-0.9-2-2-2H10.7z M12.4,36.1   c-0.8,0-1.5-0.7-1.5-1.5c0-0.8,0.7-1.5,1.5-1.5s1.5,0.7,1.5,1.5C13.9,35.4,13.2,36.1,12.4,36.1z M17.4,36.1c-0.8,0-1.5-0.7-1.5-1.5   c0-0.8,0.7-1.5,1.5-1.5s1.5,0.7,1.5,1.5C18.9,35.4,18.2,36.1,17.4,36.1z M22.4,36.1c-0.8,0-1.5-0.7-1.5-1.5c0-0.8,0.7-1.5,1.5-1.5   s1.5,0.7,1.5,1.5C23.9,35.4,23.2,36.1,22.4,36.1z"></path><path d="M31.2,12.9c-0.9,0-1.7,0.7-1.8,1.6c-0.1,1,0.7,1.9,1.7,1.9h-1.3c-1,0-1.7,0.8-1.7,1.7c0,1,0.8,1.7,1.7,1.7h-0.9   c-0.9,0-1.7,0.6-1.8,1.6c-0.1,1,0.7,1.9,1.7,1.9h-7.1c-0.9,0-1.7,0.6-1.8,1.5c-0.1,1,0.7,1.9,1.7,1.9h11.8l-1.3,1.1   c-0.9,0.8-1.1,2.2-0.3,3.2c0.8,1,2.3,1.1,3.2,0.3l2.5-2.3l5-3.4V14.1C37.5,12.5,33.7,13,31.2,12.9z"></path><path d="M48.8,13.3c0-0.6-0.4-1-1-1h-3.2c-0.6,0-1,0.4-1,1l0,13.3c0,0.6,0.4,1,1,1h3.2c0.6,0,1-0.4,1-1L48.8,13.3z"></path></g></svg>