<svg width="38" height="60" viewBox="0 0 38 60" fill="none" xmlns="http://www.w3.org/2000/svg">
<path d="M34.2 29.9414C31.7062 32.5586 29.8161 34.9316 28.5297 37.0605C27.2432 39.1895 26.6 41.2109 26.6 43.125C26.6 43.6328 26.412 44.0723 26.0359 44.4434C25.6599 44.8145 25.2146 45 24.7 45H13.3C12.7854 45 12.3401 44.8145 11.9641 44.4434C11.588 44.0723 11.4 43.6328 11.4 43.125C11.4 41.2109 10.7568 39.1895 9.47031 37.0605C8.18385 34.9316 6.29375 32.5586 3.8 29.9414C1.26667 26.6211 0 22.8906 0 18.75C0 15.3516 0.851042 12.2168 2.55312 9.3457C4.25521 6.47461 6.56094 4.19922 9.47031 2.51953C12.3797 0.839844 15.5562 0 19 0C22.4437 0 25.6203 0.839844 28.5297 2.51953C31.4391 4.19922 33.7448 6.47461 35.4469 9.3457C37.149 12.2168 38 15.3516 38 18.75C38 22.8906 36.7333 26.6211 34.2 29.9414ZM13.3 48.75H24.7C25.2146 48.75 25.6599 48.9355 26.0359 49.3066C26.412 49.6777 26.6 50.1172 26.6 50.625C26.6 51.1328 26.412 51.5723 26.0359 51.9434C25.6599 52.3145 25.2146 52.5 24.7 52.5H13.3C12.7854 52.5 12.3401 52.3145 11.9641 51.9434C11.588 51.5723 11.4 51.1328 11.4 50.625C11.4 50.1172 11.588 49.6777 11.9641 49.3066C12.3401 48.9355 12.7854 48.75 13.3 48.75ZM19 60C16.9021 60 15.1109 59.6289 13.6266 58.8867C12.1422 58.1445 11.4 57.2656 11.4 56.25H26.6C26.6 57.2656 25.8578 58.1445 24.3734 58.8867C22.8891 59.6289 21.0979 60 19 60Z" fill="white"/>
</svg>
