<svg height='100px' width='100px'  fill="#FFFFFF" xmlns="http://www.w3.org/2000/svg" viewBox="0 0 64 64" x="0px" y="0px"><g data-name="12-Sketch"><path d="M14,8a3,3,0,0,1-3-3V3a3,3,0,0,1,6,0V5A3,3,0,0,1,14,8Zm0-6a1,1,0,0,0-1,1V5a1,1,0,0,0,2,0V3A1,1,0,0,0,14,2Z"></path><path d="M26,8a3,3,0,0,1-3-3V3a3,3,0,0,1,6,0V5A3,3,0,0,1,26,8Zm0-6a1,1,0,0,0-1,1V5a1,1,0,0,0,2,0V3A1,1,0,0,0,26,2Z"></path><path d="M38,8a3,3,0,0,1-3-3V3a3,3,0,0,1,6,0V5A3,3,0,0,1,38,8Zm0-6a1,1,0,0,0-1,1V5a1,1,0,0,0,2,0V3A1,1,0,0,0,38,2Z"></path><path d="M50,8a3,3,0,0,1-3-3V3a3,3,0,0,1,6,0V5A3,3,0,0,1,50,8Zm0-6a1,1,0,0,0-1,1V5a1,1,0,0,0,2,0V3A1,1,0,0,0,50,2Z"></path><rect x="16" y="3" width="8" height="2"></rect><rect x="28" y="3" width="8" height="2"></rect><rect x="40" y="3" width="8" height="2"></rect><path d="M12,12H9a1,1,0,0,1-1-1V4A1,1,0,0,1,9,3h3V5H10v5h2Z"></path><path d="M55,12H14V10H54V5H52V3h3a1,1,0,0,1,1,1v7A1,1,0,0,1,55,12Z"></path><path d="M53,64H11a3,3,0,0,1-3-3V11h2V61a1,1,0,0,0,1,1H53a1,1,0,0,0,1-1V44h2V61A3,3,0,0,1,53,64Z"></path><path d="M39.631,56.348a1,1,0,0,1-1-1V52.369H35.652a1,1,0,0,1-.707-1.707L57.49,28.117a3.9,3.9,0,0,1,5.393,0,3.817,3.817,0,0,1,0,5.393L40.338,56.055A1,1,0,0,1,39.631,56.348Zm-1.565-5.979h1.565a1,1,0,0,1,1,1v1.565L61.469,32.1a1.816,1.816,0,0,0,0-2.565,1.858,1.858,0,0,0-2.565,0Z"></path><path d="M33,59a1,1,0,0,1-.929-1.372L34.724,51l1.857.743L34.8,56.205l4.465-1.786L40,56.276l-6.631,2.653A1,1,0,0,1,33,59Z"></path><rect x="35.316" y="52.809" width="2" height="3.751" transform="translate(-28.031 41.696) rotate(-45)"></rect><rect x="57.86" y="29.326" width="2" height="5.626" transform="translate(-5.486 51.034) rotate(-45)"></rect><rect x="55.208" y="31.979" width="2" height="5.626" transform="translate(-8.139 49.935) rotate(-45)"></rect><rect x="36.198" y="42.081" width="23.444" height="2" transform="translate(-16.427 46.502) rotate(-45)"></rect><path d="M30,59H23a8,8,0,0,1,0-16H33a4,4,0,0,0,0-8H21.5a6.5,6.5,0,0,1,0-13H46v2H21.5a4.5,4.5,0,0,0,0,9H33a6,6,0,0,1,0,12H23a6,6,0,0,0,0,12h7Z"></path><rect x="54" y="11" width="2" height="13"></rect><rect x="54" y="26" width="2" height="2"></rect><rect x="48" y="22" width="2" height="2"></rect><rect x="12" y="14" width="2" height="2"></rect><rect x="16" y="14" width="2" height="2"></rect><rect x="20" y="14" width="2" height="2"></rect></g></svg>