<svg height='100px' width='100px'  fill="#FFFFFF" xmlns="http://www.w3.org/2000/svg" xmlns:xlink="http://www.w3.org/1999/xlink" version="1.1" x="0px" y="0px" viewBox="0 0 512 512" style="enable-background:new 0 0 512 512;" xml:space="preserve"><g><g><path d="M130,419h-0.481c-6.226,0-11.804-3.846-14.019-9.663c-4.76-12.503-17.332-20.581-32.029-20.581    c-14.698,0-27.271,8.078-32.03,20.581C49.226,415.154,43.647,419,37.422,419H37c-8.284,0-15-6.716-15-15V119.802    C22,85.725,49.582,58,83.485,58C117.411,58,145,85.725,145,119.802V404C145,412.284,138.284,419,130,419z M83.471,358.756    c11.417,0,22.188,2.747,31.529,7.723V119.802C115,102.267,100.869,88,83.5,88C66.124,88,52,102.267,52,119.802v246.646    C61.327,361.492,72.078,358.756,83.471,358.756z"></path><g><path d="M302,351.687c-4.824,0-9.354-2.32-12.173-6.235l-36-50c-1.838-2.553-2.827-5.619-2.827-8.765V56.771     C251,37.598,266.784,22,286.186,22h31.629C337.216,22,353,37.598,353,56.771v229.916c0,3.146-0.989,6.212-2.827,8.765l-36,50     C311.354,349.366,306.824,351.687,302,351.687z M281,281.849l21,29.166l21-29.166V56.771c0-2.631-2.326-4.771-5.186-4.771     h-31.629c-2.859,0-5.186,2.14-5.186,4.771V281.849z"></path><path d="M455,490H87c-35.841,0-65-29.159-65-65v-21h30v21c0,19.299,15.701,35,35,35h368c2.757,0,5-2.243,5-5V167     c0-2.757-2.243-5-5-5H338v-30h117c19.299,0,35,15.701,35,35v288C490,474.299,474.299,490,455,490z"></path><rect x="130" y="132" width="136" height="30"></rect><path d="M320.648,437h-37.542c-6.897,0-12.906-4.704-14.562-11.4l-4.549-18.403c-2.103-0.802-4.202-1.68-6.295-2.632     l-16.402,9.802c-5.861,3.504-13.354,2.605-18.219-2.188l-26.521-26.116c-4.991-4.915-5.916-12.63-2.229-18.585l9.928-16.029     c-0.854-1.907-1.657-3.854-2.407-5.838l-18.385-4.456c-6.729-1.631-11.467-7.655-11.467-14.578v-36.935     c0-6.924,4.739-12.949,11.47-14.578l18.447-4.468c0.747-2,1.539-3.938,2.379-5.823l-9.853-15.96     c-3.678-5.958-2.745-13.668,2.248-18.576l26.545-26.097c4.87-4.789,12.363-5.681,18.224-2.172l16.562,9.921     c0.747-0.328,1.501-0.649,2.261-0.962l1.269,3.075l3.449,2.066l-1.538,2.568l8.256,20.024c-2.551,1.052-4.983,2.208-7.229,3.437     c-4.668,2.553-10.341,2.441-14.905-0.293l-13.589-8.14l-9.737,9.573l7.964,12.899c2.879,4.664,2.985,10.527,0.276,15.293     c-2.639,4.643-4.785,9.868-6.562,15.975c-1.502,5.161-5.649,9.124-10.873,10.389L202,301.441v13.335l14.989,3.633     c5.237,1.27,9.392,5.251,10.882,10.431c1.665,5.787,3.892,11.171,6.619,16.003c2.689,4.766,2.57,10.617-0.311,15.27     l-8.037,12.978l9.723,9.575l13.505-8.071c4.576-2.734,10.257-2.834,14.926-0.267c5.464,3.007,10.964,5.3,16.347,6.815     c5.193,1.463,9.201,5.602,10.495,10.839L294.851,407h14.057l3.698-14.946c1.299-5.252,5.325-9.396,10.537-10.848     c5.533-1.541,11.041-3.799,16.373-6.712c4.656-2.544,10.313-2.438,14.873,0.278l13.591,8.102l9.77-9.617l-7.974-12.925     c-2.877-4.663-2.981-10.524-0.273-15.288c2.636-4.637,4.782-9.865,6.562-15.982c1.501-5.159,5.646-9.122,10.868-10.388     L402,315.02v-13.339l-14.99-3.634c-5.238-1.27-9.393-5.252-10.883-10.432c-1.664-5.786-3.89-11.17-6.616-16     c-2.69-4.766-2.571-10.618,0.31-15.271l8.037-12.978l-9.723-9.575l-13.505,8.071c-4.576,2.733-10.262,2.835-14.93,0.264     c-2.258-1.242-4.729-2.412-7.347-3.476l8.238-20.276l-1.353-2.264l3.001-1.794l1.406-3.459c0.865,0.352,1.723,0.713,2.57,1.083     l16.483-9.852c5.866-3.503,13.354-2.604,18.221,2.188l26.521,26.117c4.99,4.915,5.915,12.63,2.228,18.585l-9.928,16.029     c0.854,1.906,1.657,3.854,2.406,5.838l18.386,4.456c6.729,1.631,11.467,7.655,11.467,14.578v36.935     c0,6.923-4.737,12.946-11.465,14.577l-18.45,4.475c-0.749,2.005-1.542,3.947-2.383,5.836l9.857,15.979     c3.673,5.954,2.742,13.656-2.244,18.564l-26.545,26.131c-4.861,4.788-12.343,5.688-18.203,2.195l-16.524-9.851     c-2.087,0.937-4.192,1.802-6.311,2.596l-4.523,18.283C333.553,432.297,327.545,437,320.648,437z"></path><rect x="266" y="82" width="72" height="30"></rect></g></g></g></svg>