<svg width="53" height="27" viewBox="0 0 53 27" fill="none" xmlns="http://www.w3.org/2000/svg">
<path d="M13.375 16.125H2.875C1.43125 16.125 0.25 14.9438 0.25 13.5C0.25 12.0562 1.43125 10.875 2.875 10.875H13.375C14.8188 10.875 16 12.0562 16 13.5C16 14.9438 14.8188 16.125 13.375 16.125ZM10.75 3C10.75 1.55625 9.56875 0.375 8.125 0.375H5.5C4.05625 0.375 2.875 1.55625 2.875 3C2.875 4.44375 4.05625 5.625 5.5 5.625H8.125C9.56875 5.625 10.75 4.44375 10.75 3ZM52.75 13.5C52.75 20.745 46.87 26.625 39.625 26.625H5.5C4.05625 26.625 2.875 25.4438 2.875 24C2.875 22.5562 4.05625 21.375 5.5 21.375H29.125C28.0225 19.8525 27.1563 18.0675 26.7625 16.125H21.25C19.8062 16.125 18.625 14.9438 18.625 13.5C18.625 12.0562 19.8062 10.875 21.25 10.875H26.7625C27.1563 8.9325 28.0225 7.1475 29.125 5.625H16C14.5562 5.625 13.375 4.44375 13.375 3C13.375 1.55625 14.5562 0.375 16 0.375H39.625C46.87 0.375 52.75 6.255 52.75 13.5Z" fill="white"/>
</svg>
