<svg height='100px' width='100px'  fill="#FFFFFF" xmlns="http://www.w3.org/2000/svg" data-name="Layer 1" viewBox="0 0 128 128" x="0px" y="0px"><title>Miscellaneous 79 solid</title><path d="M73.89941,88.82861a2.00025,2.00025,0,0,0,1.41406-.58594l2.82813-2.82861a1.99927,1.99927,0,0,0,0-2.82812l-12.72754-12.728a1.99927,1.99927,0,0,0-2.82812,0L49.8584,82.58594a1.99927,1.99927,0,0,0,0,2.82813l2.82813,2.82861a1.99927,1.99927,0,0,0,2.82813,0L60,83.75732V122a4,4,0,0,0,8,0V83.75732l4.48535,4.48535A2.00025,2.00025,0,0,0,73.89941,88.82861Z"></path><path d="M54.10059,39.44336a2.00025,2.00025,0,0,0-1.41406.58594L49.8584,42.85791a1.99927,1.99927,0,0,0,0,2.82813l12.72754,12.728a1.99927,1.99927,0,0,0,2.82813,0L78.1416,45.686a1.99927,1.99927,0,0,0,0-2.82812L75.31348,40.0293a1.99927,1.99927,0,0,0-2.82812,0L68,44.51465V6.272a4,4,0,0,0-8,0V44.51465L55.51465,40.0293A2.00025,2.00025,0,0,0,54.10059,39.44336Z"></path><path d="M121.86426,60.13574H85.62109l4.48535-4.48535a1.99927,1.99927,0,0,0,0-2.82812l-2.82812-2.82812a1.99927,1.99927,0,0,0-2.82812,0L71.72168,62.72119a2.00045,2.00045,0,0,0,0,2.8291L84.4502,78.27783a1.99927,1.99927,0,0,0,2.82813,0l2.82813-2.82812a1.99927,1.99927,0,0,0,0-2.82812l-4.48535-4.48584h36.24316a4,4,0,0,0,0-8Z"></path><path d="M56,24.8017V20.74219A44.10273,44.10273,0,0,0,20.7179,56.13574h4.05957A40.04229,40.04229,0,0,1,56,24.8017Z"></path><path d="M103.22253,56.13574h4.05957A44.10273,44.10273,0,0,0,72,20.74219V24.8017A40.04229,40.04229,0,0,1,103.22253,56.13574Z"></path><path d="M24.82983,72.13574H20.76648A44.10545,44.10545,0,0,0,56,107.25781V103.1983A40.0458,40.0458,0,0,1,24.82983,72.13574Z"></path><path d="M72,103.1983v4.05951a44.10545,44.10545,0,0,0,35.23352-35.12207h-4.06335A40.0458,40.0458,0,0,1,72,103.1983Z"></path><path d="M37.89355,72.62158a1.99927,1.99927,0,0,0,0,2.82813l2.82813,2.82813a1.99927,1.99927,0,0,0,2.82813,0L56.27832,65.55029a2.00045,2.00045,0,0,0,0-2.8291L43.5498,49.99414a1.99927,1.99927,0,0,0-2.82812,0l-2.82812,2.82813a1.99927,1.99927,0,0,0,0,2.82813l4.48535,4.48535H6.13574a4,4,0,1,0,0,8H42.37891Z"></path></svg>