<svg width="49" height="49" viewBox="0 0 49 49" fill="none" xmlns="http://www.w3.org/2000/svg">
<path fill-rule="evenodd" clip-rule="evenodd" d="M4.8125 48.125C4.8125 48.125 0.875 48.125 0.875 44.1875C0.875 40.25 4.8125 28.4375 24.5 28.4375C44.1875 28.4375 48.125 40.25 48.125 44.1875C48.125 48.125 44.1875 48.125 44.1875 48.125H4.8125ZM24.5 24.5C27.6329 24.5 30.6374 23.2555 32.8527 21.0402C35.068 18.8249 36.3125 15.8204 36.3125 12.6875C36.3125 9.55463 35.068 6.55008 32.8527 4.3348C30.6374 2.11953 27.6329 0.875 24.5 0.875C21.3671 0.875 18.3626 2.11953 16.1473 4.3348C13.932 6.55008 12.6875 9.55463 12.6875 12.6875C12.6875 15.8204 13.932 18.8249 16.1473 21.0402C18.3626 23.2555 21.3671 24.5 24.5 24.5Z" fill="white"/>
</svg>
