<svg width="115" height="100" viewBox="0 0 115 100" fill="none" xmlns="http://www.w3.org/2000/svg">
<path d="M112.993 22.9938C112.159 22.1598 110.849 21.8024 109.657 22.0407L88.6888 27.0445C87.4974 27.2828 86.4251 28.2359 86.0677 29.5464C85.7103 30.7378 86.0677 32.0483 87.0208 33.0014L92.2629 38.2435L69.3883 61.1182C67.0055 59.4502 64.3845 58.378 61.406 57.7823V25.3766H68.7926C70.1031 25.3766 71.2945 24.6617 71.8902 23.5895C72.4859 22.5172 72.4859 21.0876 71.7711 20.0153L60.4529 1.66794C59.8572 0.595694 58.6658 0 57.4744 0C56.283 0 55.0916 0.595694 54.4959 1.66794L43.0586 20.0153C42.3438 21.0876 42.3438 22.5172 42.9395 23.5895C43.5352 24.6617 44.7266 25.3766 46.0371 25.3766H53.4237V57.7823C50.5644 58.378 47.8242 59.4502 45.4414 61.1182L22.6859 38.1244L27.928 32.8823C28.8811 31.9292 29.2385 30.6187 28.8811 29.4273C28.5237 28.2359 27.5706 27.2828 26.2601 26.9254L5.1725 22.0407C3.98111 21.8024 2.67058 22.1598 1.83661 22.9938C1.00264 23.8277 0.645224 25.1383 0.883501 26.3297L5.88733 47.2981C6.12561 48.4895 7.07872 49.5617 8.38924 49.9191C8.74666 50.0383 8.98494 50.0383 9.34235 50.0383C10.2955 50.0383 11.1294 49.6809 11.8443 48.966L17.0864 43.7239L39.961 66.5986C37.6974 69.9344 36.2677 74.1043 36.2677 78.5124C36.2677 90.188 45.7988 99.6 57.3553 99.6C69.0309 99.6 78.4428 90.0689 78.4428 78.5124C78.4428 74.1043 77.1323 70.0536 74.7495 66.5986L97.6242 43.7239L102.866 48.966C103.581 49.6809 104.415 50.0383 105.368 50.0383C105.726 50.0383 105.964 50.0383 106.321 49.9191C107.513 49.5617 108.466 48.6086 108.823 47.2981L113.827 26.3297C114.304 25.1383 113.946 23.8277 112.993 22.9938ZM57.4744 91.7368C50.2069 91.7368 44.25 85.7799 44.25 78.5124C44.25 71.245 50.2069 65.288 57.4744 65.288C64.7419 65.288 70.6988 71.245 70.6988 78.5124C70.6988 85.7799 64.7419 91.7368 57.4744 91.7368Z" fill="white"/>
</svg>
