<?xml version="1.0" encoding="UTF-8"?>
<svg width="1200pt" height="1200pt" version="1.1" viewBox="0 0 1200 1200" xmlns="http://www.w3.org/2000/svg">
 <path d="m1132.8 905.65-396.24-766.61c-75.086-145.39-197.97-145.39-273.05 0l-396.24 766.61c-75.086 145.39-2.6836 264.35 160.94 264.35h743.66c163.62 0 236.02-118.96 160.93-264.35zm-621.22-531.75c15.906-17.133 37.91-21.93 61.879-21.93h53.156c23.969 0 45.973 4.7969 61.879 21.93 15.898 17.141 23.672 37.473 21.93 61.293l-15.832 216.71c-3.5625 48.508-45.973 87.289-94.555 87.289-48.586 0-90.996-39.652-94.559-88.16l-15.832-215.69c-1.7383-23.969 6.0352-44.301 21.934-61.441zm88.457 662.04c-61.582 0-111.55-49.965-111.55-111.55 0-61.59 49.965-111.55 111.55-111.55s111.55 49.961 111.55 111.55c0.003906 61.582-49.965 111.55-111.55 111.55z" fill="#b990ec"/>
</svg>
