<svg width="47" height="46" viewBox="0 0 47 46" fill="none" xmlns="http://www.w3.org/2000/svg">
<path fill-rule="evenodd" clip-rule="evenodd" d="M15.4168 22.6887H9.58927C9.02365 23.6499 8.15057 24.4011 7.10544 24.8259C6.0603 25.2506 4.90153 25.3251 3.80884 25.0378C2.71614 24.7506 1.75059 24.1176 1.06193 23.237C0.373275 22.3565 0 21.2776 0 20.1677C0 19.0578 0.373275 17.9789 1.06193 17.0984C1.75059 16.2178 2.71614 15.5849 3.80884 15.2976C4.90153 15.0103 6.0603 15.0848 7.10544 15.5096C8.15057 15.9343 9.02365 16.6855 9.58927 17.6468H15.4168V5.04193C15.4168 3.70473 15.9582 2.42229 16.9219 1.47675C17.8856 0.531201 19.1927 0 20.5556 0H41.1111C42.474 0 43.7811 0.531201 44.7449 1.47675C45.7086 2.42229 46.25 3.70473 46.25 5.04193V40.3354C46.25 41.6726 45.7086 42.9551 44.7449 43.9006C43.7811 44.8462 42.474 45.3774 41.1111 45.3774H20.5556C19.1927 45.3774 17.8856 44.8462 16.9219 43.9006C15.9582 42.9551 15.4168 41.6726 15.4168 40.3354V22.6887ZM20.5556 22.6887V40.3354H41.1111V5.04193H20.5556V17.6468H26.3831C26.9487 16.6855 27.8218 15.9343 28.8669 15.5096C29.9121 15.0848 31.0708 15.0103 32.1635 15.2976C33.2562 15.5849 34.2218 16.2178 34.9104 17.0984C35.5991 17.9789 35.9724 19.0578 35.9724 20.1677C35.9724 21.2776 35.5991 22.3565 34.9104 23.237C34.2218 24.1176 33.2562 24.7506 32.1635 25.0378C31.0708 25.3251 29.9121 25.2506 28.8669 24.8259C27.8218 24.4011 26.9487 23.6499 26.3831 22.6887H20.5556Z" fill="white"/>
</svg>
