<?xml version="1.0" encoding="UTF-8"?>
<svg width="1200pt" height="1200pt" version="1.1" viewBox="0 0 1200 1200" xmlns="http://www.w3.org/2000/svg">
 <g fill="#fff">
  <path d="m774 559.2c-3.6016-10.801-13.199-19.199-24-20.398l-80.398-12-36-72c-4.8008-10.801-15.602-16.801-26.398-16.801-10.801 0-21.602 6-26.398 16.801l-36 72-80.398 12c-10.801 1.1992-20.398 9.6016-24 20.398-3.6016 10.801 0 22.801 7.1992 31.199l57.602 56.398-13.207 79.203c-2.3984 10.801 2.3984 22.801 12 28.801 9.6016 7.1992 21.602 7.1992 31.199 2.3984l72-37.199 72 37.199c4.8008 2.3984 9.6016 3.6016 14.398 3.6016 6 0 12-2.3984 18-6 9.6016-7.1992 14.398-18 12-28.801l-13.199-79.199 57.602-56.398c7.1992-8.4023 9.6016-20.402 6-31.203z"/>
  <path d="m1138.8 559.2c-3.6016-10.801-13.199-19.199-24-20.398l-80.398-12-36-72c-4.8008-10.801-15.602-16.801-26.398-16.801-10.801 0-21.602 6-26.398 16.801l-36 72-80.398 12c-10.801 1.1992-20.398 9.6016-24 20.398-3.6016 10.801 0 22.801 7.1992 31.199l57.602 56.398-13.199 79.199c-2.3984 10.801 2.3984 22.801 12 28.801 9.6016 7.1992 21.602 7.1992 31.199 2.3984l72-37.199 72 37.199c4.8008 2.3984 9.6016 3.6016 14.398 3.6016 6 0 12-2.3984 18-6 9.6016-7.1992 14.398-18 12-28.801l-13.199-79.199 57.602-56.398c5.9922-8.3984 9.5898-20.398 5.9922-31.199zm-118.8 55.199c-7.1992 7.1992-10.801 16.801-8.3984 26.398l6 34.801-32.402-15.598c-8.3984-4.8008-19.199-4.8008-27.602 0l-31.199 16.801 6-34.801c1.1992-9.6016-1.1992-19.199-8.3984-26.398l-25.199-25.199 34.801-4.8008c9.6016-1.1992 18-7.1992 22.801-16.801l15.602-32.398 15.602 32.398c4.8008 8.3984 13.199 14.398 22.801 16.801l34.801 4.8008z"/>
  <path d="m255.6 454.8c-4.8008-10.801-15.602-16.801-26.398-16.801-10.801 0-21.602 6-26.398 16.801l-36 72-80.398 12c-10.801 1.1992-20.398 9.6016-24 20.398-3.6016 10.801 0 22.801 7.1992 31.199l57.602 56.398-13.199 79.199c-2.3984 10.801 2.3984 22.801 12 28.801 4.8008 3.6016 12 6 18 6 4.8008 0 9.6016-1.1992 14.398-3.6016l72-37.199 72 37.199c9.6016 4.8008 22.801 4.8008 31.199-2.3984 9.6016-7.1992 14.398-18 12-28.801l-13.199-79.199 57.602-56.398c8.3984-8.3984 10.801-20.398 7.1992-31.199-3.6016-10.801-13.199-19.199-24-20.398l-80.398-12z"/>
 </g>
</svg>
