<svg height='100px' width='100px'  fill="#FFFFFF" xmlns="http://www.w3.org/2000/svg" data-name="Layer 1" viewBox="0 0 100 100" x="0px" y="0px"><title>Noun_Project_20Icon_10px_grid</title><path d="M61.25,80.94V69.69A11,11,0,0,1,63.94,63L92.31,33.53A11,11,0,0,0,95,26.84V19.3C95,13,74.85,7.81,50,7.81S5,13,5,19.3v7.54a11,11,0,0,0,2.69,6.68L36.06,63a11,11,0,0,1,2.69,6.68V88.25a3.86,3.86,0,0,0,3.75,3.94S55.63,92.19,61.25,80.94ZM49,13.72C71.71,13.72,83.07,19,83.07,19c1.88,0.88,1.88,2.32,0,3.19,0,0-11.37,5.29-34.07,5.29s-34.07-5.29-34.07-5.29C13,21.33,13,19.89,14.93,19,14.93,19,26.29,13.72,49,13.72Z"></path></svg>