<svg width="50" height="50" viewBox="0 0 50 50" fill="none" xmlns="http://www.w3.org/2000/svg">
<path d="M15.8559 45.7309L40.25 21.3368L28.6633 9.75002L4.26913 34.1441C3.93329 34.4804 3.69473 34.9013 3.57875 35.3621L0.875 49.125L14.6352 46.4213C15.0972 46.3058 15.5199 46.0669 15.8559 45.7309V45.7309ZM48.125 13.4618C49.1092 12.4772 49.6621 11.1421 49.6621 9.75002C49.6621 8.35791 49.1092 7.02279 48.125 6.03827L43.9618 1.87502C42.9772 0.890797 41.6421 0.337891 40.25 0.337891C38.8579 0.337891 37.5228 0.890797 36.5382 1.87502L32.375 6.03827L43.9618 17.625L48.125 13.4618Z" fill="white"/>
</svg>
