<svg width="102" height="50" viewBox="0 0 102 50" fill="none" xmlns="http://www.w3.org/2000/svg">
<path fill-rule="evenodd" clip-rule="evenodd" d="M0.00194432 0C1.82136 1.74221 3.71747 3.53782 5.68536 5.40141C17.2425 16.346 31.2753 29.635 46.7883 48.2205C47.2548 48.778 47.8363 49.2261 48.4922 49.5335C49.1481 49.8409 49.8626 50.0001 50.5858 50.0001C51.309 50.0001 52.0235 49.8409 52.6794 49.5335C53.3353 49.2261 53.9168 48.778 54.3833 48.2205C69.8964 29.635 83.9292 16.3459 95.4864 5.40133C97.4542 3.53781 99.3502 1.74227 101.17 0.000114441C101.186 0.000114441 101.202 7.62717e-05 101.218 0H101.17C101.17 3.81469e-05 101.17 7.62939e-05 101.17 0.000114441C101.093 0.000114441 101.017 7.62717e-05 100.94 0H0.00194432Z" fill="white"/>
</svg>
