<svg height='100px' width='100px'  fill="#000000" xmlns="http://www.w3.org/2000/svg" xmlns:xlink="http://www.w3.org/1999/xlink" version="1.1" x="0px" y="0px" viewBox="0 0 110 110" enable-background="new 0 0 110 110" xml:space="preserve"><g><path d="M75,92H35c-2.21,0-4,1.79-4,4s1.79,4,4,4h40c2.21,0,4-1.79,4-4S77.21,92,75,92z"></path><path d="M38,90h34c2.21,0,4-1.79,4-4s-1.79-4-4-4H38c-2.21,0-4,1.79-4,4S35.79,90,38,90z"></path><path d="M61,56c0-0.97-0.1-1.98,0-3H49c0.1,1.02,0,2.03,0,3c0,10-6,24-6,24h24C67,80,61,66,61,56z"></path><path d="M47.5,47c-0.83,0-1.5,0.9-1.5,2s0.67,2,1.5,2h15c0.83,0,1.5-0.9,1.5-2s-0.67-2-1.5-2H47.5z"></path><path d="M45,45h20c1.1,0,2-0.9,2-2s-0.9-2-2-2H45c-1.1,0-2,0.9-2,2S43.9,45,45,45z"></path><polygon points="52,26 58,26 56,19 63,21 63,15 56,17 58,10 52,10 54,17 47,15 47,21 54,19  "></polygon><path d="M46,39h18c0.87-2.62,2.09-4.75,2.57-5.94C66.84,32.38,67,32,67,32c0-2.21-5.37-4-12-4s-12,1.79-12,4   c0,0,0.16,0.38,0.43,1.06C43.91,34.25,45.13,36.38,46,39z"></path></g></svg>