<svg width="116" height="121" viewBox="0 0 116 121" fill="none" xmlns="http://www.w3.org/2000/svg">
<path d="M12.0978 96.7826C15.3064 96.7826 18.3835 98.0572 20.6523 100.326C22.9211 102.595 24.1957 105.672 24.1957 108.88C24.1957 112.089 22.9211 115.166 20.6523 117.435C18.3835 119.704 15.3064 120.978 12.0978 120.978C8.88928 120.978 5.81215 119.704 3.54337 117.435C1.27459 115.166 0 112.089 0 108.88C0 105.672 1.27459 102.595 3.54337 100.326C5.81215 98.0572 8.88928 96.7826 12.0978 96.7826V96.7826ZM45.3668 78.6359C49.3775 78.6359 53.2239 80.2291 56.0599 83.0651C58.8959 85.9011 60.4891 89.7475 60.4891 93.7582C60.4891 97.7688 58.8959 101.615 56.0599 104.451C53.2239 107.287 49.3775 108.88 45.3668 108.88C41.3562 108.88 37.5098 107.287 34.6738 104.451C31.8378 101.615 30.2446 97.7688 30.2446 93.7582C30.2446 89.7475 31.8378 85.9011 34.6738 83.0651C37.5098 80.2291 41.3562 78.6359 45.3668 78.6359V78.6359ZM60.4891 0C68.1833 0.00151435 75.6312 2.71206 81.5266 7.6562C87.4219 12.6003 91.3883 19.4624 92.7298 27.0386H93.2258C99.2659 27.0386 105.059 29.4381 109.33 33.709C113.601 37.98 116 43.7727 116 49.8128C116 55.8529 113.601 61.6456 109.33 65.9166C105.059 70.1875 99.2659 72.587 93.2258 72.587H27.7524C21.7123 72.587 15.9196 70.1875 11.6487 65.9166C7.37767 61.6456 4.97825 55.8529 4.97825 49.8128C4.97825 43.7727 7.37767 37.98 11.6487 33.709C15.9196 29.4381 21.7123 27.0386 27.7524 27.0386H28.2484C29.59 19.4624 33.5563 12.6003 39.4517 7.6562C45.347 2.71206 52.795 0.00151435 60.4891 0V0Z" fill="white"/>
</svg>
