<svg width="58" height="47" viewBox="0 0 58 47" fill="none" xmlns="http://www.w3.org/2000/svg">
<path d="M18.6861 22.1446C15.445 23.0886 13.2707 25.8663 13.4893 28.8382C14.5191 27.6892 16.0918 26.6973 17.9969 26.0451L18.6861 22.1446V22.1446ZM8.65483 26.6476L5.78863 10.4323C5.76243 10.286 5.81392 10.1957 5.81031 10.1929C11.0278 7.29694 16.9319 5.76583 22.8838 5.76583C23.0292 5.76583 23.1755 5.78118 23.3219 5.78299C24.582 4.56623 26.1881 3.72073 27.982 3.43438C29.6884 3.16158 31.4191 3.02338 33.1472 2.95382C32.2448 1.69371 30.9359 0.765103 29.374 0.514887C27.2142 0.170726 25.0436 0 22.8829 0C15.9581 0 9.12545 1.75423 2.99921 5.15429C0.815906 6.36653 -0.353881 8.8958 0.0950642 11.4341L2.96127 27.6494C4.24668 34.9229 15.2761 40.4836 21.4294 40.4836C21.7537 40.4836 22.0392 40.4421 22.3337 40.4114C21.1124 38.8685 19.7195 36.7548 18.7656 34.3068C14.4649 33.1343 9.18507 29.6439 8.65483 26.6476V26.6476ZM17.4666 14.2307C17.4007 13.8586 17.2652 13.5198 17.099 13.201C16.3537 14.0058 15.2318 14.6237 13.9085 14.8558C12.5851 15.0889 11.3187 14.892 10.3422 14.3888C10.2952 14.7447 10.2844 15.1097 10.3503 15.4818C10.6972 17.442 12.5707 18.7509 14.5363 18.4058C16.501 18.0608 17.8135 16.1909 17.4666 14.2307V14.2307ZM54.8131 10.921C46.7754 6.46047 37.521 4.8318 28.4382 6.28252C25.9713 6.67636 24.0048 8.65461 23.5567 11.1929L20.6905 27.4082C19.3003 35.2715 29.2973 45.1375 34.9908 46.1384C40.6844 47.1401 53.4608 41.2795 54.851 33.4161L57.7172 17.2008C58.1661 14.6616 56.9964 12.1324 54.8131 10.921V10.921ZM30.131 19.6651C30.4779 17.7049 32.3514 16.396 34.317 16.7419C36.2826 17.0879 37.5942 18.9569 37.2482 20.917C37.1823 21.2892 37.0468 21.6279 36.8806 21.9468C36.1353 21.142 35.0134 20.5241 33.6901 20.292C32.3667 20.0589 31.1003 20.2558 30.1238 20.759C30.0759 20.4022 30.0651 20.0372 30.131 19.6651ZM36.4966 37.6192C31.467 36.7349 28.0489 32.2653 28.4536 27.4209C30.3144 29.7279 33.5311 31.5915 37.4406 32.2789C41.3501 32.9663 45.0121 32.3123 47.5513 30.7794C46.2705 35.4712 41.5254 38.5036 36.4966 37.6192V37.6192ZM48.2668 23.9486C47.5215 23.1437 46.3987 22.5258 45.0754 22.2937C43.752 22.0606 42.4856 22.2576 41.5091 22.7607C41.4621 22.4048 41.4513 22.0399 41.5172 21.6677C41.8641 19.7075 43.7376 18.3986 45.7032 18.7437C47.6679 19.0896 48.9804 20.9586 48.6344 22.9188C48.5685 23.2918 48.433 23.6306 48.2668 23.9486Z" fill="white"/>
</svg>
