<?xml version="1.0" encoding="UTF-8"?>
<svg width="1200pt" height="1200pt" version="1.1" viewBox="0 0 1200 1200" xmlns="http://www.w3.org/2000/svg">
 <g fill="#fff">
  <path d="m419.26 610.23v-19.309c0-48.973 39.781-88.754 87.457-88.754h4.5352l15.938-50.016c15.949-48.84 52.344-86.41 97.812-103.38l-4.5234-13.738c-14.762-45.48-55.715-75.012-103.52-75.012h-247.85c-47.676 0-88.621 30.707-103.38 75.012l-28.5 87.59h-43.156c-19.305 0.011719-34.066 14.781-34.066 34.078v19.43c0 19.309 15.805 34.066 34.066 34.066h12.445c-6.7422 31.754-10.234 63.613-10.234 96.648v165.97c0 19.309 14.762 34.078 34.199 34.078h56.746c19.441 0 34.211-14.773 34.211-34.078v-53.496h234.11c0-12.445 1.1758-23.844 3.5039-36.277-23.844-15.934-39.789-42.105-39.789-72.816zm-148.99 15.938h-69.312c-11.398 0-20.473-9.0703-20.473-21.637v-32.902c0-11.398 9.3242-20.855 21.254-20.855 1.1641 0 2.4727 0.13281 3.7578 0.38281l64.777 10.234c7.9062 1.0312 14.773 7.8945 17.102 15.805l4.5234 22.801c2.2148 13.598-8.0234 26.172-21.629 26.172z"/>
  <path d="m1105.9 556.86h-43.141l-28.5-87.574c-14.762-45.48-55.715-75.012-103.38-75.012h-249.03c-47.809 0-88.754 30.707-103.51 75.012l-28.379 87.574h-43.273c-19.309 0-34.066 14.773-34.066 34.066v19.309c0 19.297 14.762 34.066 34.066 34.066h12.562c-6.8633 31.871-10.223 63.742-10.223 96.648v164.93c0 19.309 14.762 34.078 34.066 34.078l56.871 0.003907c19.309 0 34.066-14.773 34.066-34.078v-52.344h344.5v52.344c0 19.309 14.773 34.078 34.066 34.078h56.891c19.309 0 34.199-14.773 34.199-34.078l0.003906-164.92c0-32.902-3.4922-64.777-10.234-96.648h12.445c19.309 0 34.066-14.773 34.066-34.066v-19.309c0-19.309-14.762-34.082-34.066-34.082zm-422.88 202.37h-69.457c-11.27 0-21.504-9.2031-21.504-21.637v-33.035c0-11.27 9.2031-20.723 20.352-20.723 1.1641 0 2.3281 0.12109 3.5039 0.25391l64.777 10.234c9.0586 1.1641 15.938 8.0273 17.102 15.938l4.5352 22.812c4.5234 13.594-5.7109 26.156-19.309 26.156zm315.98 1.0352h-69.312c-13.598 0-23.832-12.434-20.473-25.008l4.5234-22.668c2.3398-8.0273 9.0703-14.773 17.113-15.938l64.777-10.234c1.1641-0.25391 2.3281-0.38281 3.4922-0.38281 11.016 0 20.34 9.457 20.34 20.855v31.871h1.1641c0.011719 11.266-9.0586 21.504-21.625 21.504z"/>
 </g>
</svg>
