<?xml version="1.0" encoding="UTF-8"?>
<svg width="1200pt" height="1200pt" version="1.1" viewBox="0 0 1200 1200" xmlns="http://www.w3.org/2000/svg">
 <path d="m871.43 901.27c52.629 0 95.445 42.562 95.445 94.883 0 52.316-42.816 94.879-95.445 94.879-52.629 0-95.445-42.562-95.445-94.879 0-52.32 42.816-94.883 95.445-94.883zm-67.777-436.1h184.41v-83.676h-184.41zm-361.63 526.18c-0.03125-0.57422-0.089844-1.1367-0.12891-1.707-0.066406-1.0156-0.13281-2.0273-0.23047-3.0312-0.070312-0.66016-0.16797-1.3164-0.24609-1.9766-0.10938-0.89844-0.21094-1.8047-0.34766-2.6953-0.10547-0.69141-0.23828-1.3711-0.35547-2.0547-0.15234-0.85156-0.28906-1.7031-0.46094-2.5469-0.14062-0.69922-0.3125-1.3906-0.47266-2.0859-0.18359-0.8125-0.35938-1.6289-0.56641-2.4336-0.17578-0.70312-0.38281-1.3867-0.57812-2.082-0.21875-0.78906-0.42969-1.5781-0.67188-2.3555-0.21484-0.69141-0.44922-1.375-0.67969-2.0586-0.25781-0.76562-0.50781-1.5352-0.78125-2.293-0.24609-0.67969-0.51562-1.3477-0.77734-2.0234-0.28906-0.74609-0.57422-1.4922-0.88672-2.2266-0.27734-0.66797-0.58203-1.3281-0.875-1.9961-0.32422-0.71875-0.64453-1.4414-0.98438-2.1523-0.3125-0.66016-0.64453-1.3047-0.97266-1.9531-0.35547-0.70313-0.70703-1.4023-1.0781-2.0938-0.34375-0.64063-0.70703-1.2734-1.0664-1.9062-0.38281-0.67969-0.76953-1.3555-1.168-2.0195-0.37891-0.62891-0.76562-1.2422-1.1562-1.8594-0.41406-0.65625-0.83203-1.3086-1.2617-1.9531-0.40625-0.60938-0.82422-1.207-1.2422-1.8047-0.44531-0.63281-0.89062-1.2656-1.3477-1.8828-0.43359-0.58984-0.87891-1.168-1.3242-1.75-0.47266-0.60547-0.94922-1.2109-1.4336-1.8086-0.46094-0.57031-0.93359-1.1289-1.4102-1.6875-0.49609-0.58203-1-1.1641-1.5078-1.7305-0.49219-0.54688-0.98828-1.0859-1.4922-1.625-0.51953-0.55859-1.0508-1.1094-1.5859-1.6562-0.51562-0.52344-1.0352-1.043-1.5664-1.5586-0.54688-0.52734-1.1016-1.0547-1.6602-1.5742-0.53906-0.5-1.0859-0.99609-1.6406-1.4883-0.57031-0.50391-1.1484-1-1.7305-1.4922-0.56641-0.47656-1.1328-0.94922-1.7109-1.4102-0.59375-0.47656-1.1953-0.94531-1.8008-1.4102-0.58984-0.44922-1.1797-0.89844-1.7812-1.3359-0.61328-0.44531-1.2383-0.88672-1.8633-1.3164-0.61328-0.42969-1.2227-0.84766-1.8477-1.2578-0.63672-0.42188-1.2812-0.82812-1.9258-1.2344-0.63281-0.39062-1.2656-0.78516-1.9062-1.168-0.66016-0.39062-1.3242-0.76562-1.9922-1.1406-0.65234-0.36719-1.3008-0.73438-1.9648-1.0859-0.67188-0.35938-1.3594-0.69922-2.043-1.0469-0.67188-0.33203-1.3438-0.67578-2.0234-0.99219-0.69531-0.32812-1.3945-0.63672-2.0977-0.94531-0.69141-0.30469-1.3789-0.61719-2.082-0.90625-0.70703-0.29297-1.4258-0.56641-2.1406-0.84375-0.71094-0.27344-1.418-0.55469-2.1328-0.8125-0.72656-0.26172-1.4648-0.49609-2.1992-0.73828-0.72266-0.24219-1.4453-0.48828-2.1758-0.71484-0.74609-0.22656-1.5-0.42578-2.25-0.63672-0.73828-0.20312-1.4688-0.41797-2.2109-0.60547-0.76172-0.19141-1.5391-0.35547-2.3086-0.53125-0.74609-0.16797-1.4883-0.34766-2.2383-0.5-0.78906-0.16016-1.5859-0.28516-2.375-0.42188-0.75-0.13281-1.4961-0.28125-2.2539-0.39062-0.81641-0.125-1.6484-0.21094-2.4727-0.3125-0.74219-0.09375-1.4805-0.20312-2.2266-0.27734-0.90234-0.089844-1.8164-0.14453-2.7305-0.20703-0.67578-0.050781-1.3516-0.11719-2.0352-0.15234h-0.003906 0.003906c-1.6055-0.078125-3.2227-0.12109-4.8477-0.12109s-3.2422 0.042968-4.8477 0.12109h0.003907-0.003907c-0.67969 0.035157-1.3438 0.10156-2.0156 0.15234-0.91797 0.0625-1.8398 0.11719-2.75 0.20703-0.74219 0.074219-1.4766 0.18359-2.2109 0.27344-0.83203 0.10156-1.668 0.19141-2.4883 0.31641-0.75391 0.10938-1.4922 0.25781-2.2383 0.38672-0.79688 0.13672-1.5977 0.26562-2.3906 0.42578-0.74609 0.14844-1.4844 0.33203-2.2266 0.5-0.77344 0.17188-1.5508 0.33984-2.3164 0.53125-0.74609 0.1875-1.4766 0.40234-2.2109 0.60547-0.75 0.21094-1.5078 0.41016-2.25 0.63672-0.73438 0.22266-1.4531 0.47266-2.1758 0.71094-0.73438 0.24219-1.4727 0.48047-2.1992 0.74219-0.71875 0.25781-1.4219 0.53516-2.1289 0.8125-0.71875 0.27344-1.4375 0.54688-2.1484 0.84375-0.69922 0.28906-1.3945 0.60156-2.0898 0.90625-0.69141 0.30859-1.3906 0.61719-2.082 0.94141-0.6875 0.32031-1.3594 0.66406-2.0391 1.0039-0.67578 0.33984-1.3594 0.67578-2.0273 1.0352-0.66797 0.35547-1.3203 0.72266-1.9766 1.0898-0.66406 0.375-1.3281 0.74609-1.9766 1.1367-0.64844 0.37891-1.2852 0.77734-1.918 1.1719-0.64453 0.40625-1.2852 0.8125-1.9219 1.2305-0.62109 0.41016-1.2383 0.83203-1.8516 1.2617-0.625 0.42969-1.2422 0.86328-1.8555 1.3125-0.60156 0.44141-1.1992 0.89062-1.7891 1.3438-0.60156 0.46094-1.1992 0.92578-1.7891 1.3984-0.58203 0.46484-1.1523 0.94141-1.7227 1.4219-0.57812 0.48828-1.1523 0.98047-1.7188 1.4805-0.55859 0.49219-1.1094 0.99609-1.6562 1.5-0.55469 0.51562-1.1016 1.0352-1.6445 1.5586-0.53125 0.51953-1.0625 1.0469-1.582 1.5781-0.52734 0.53906-1.0508 1.082-1.5664 1.6289-0.51172 0.54688-1.0156 1.0938-1.5117 1.6484-0.50391 0.5625-0.99609 1.1367-1.4883 1.7109-0.48047 0.56641-0.96094 1.1328-1.4297 1.7109-0.47656 0.58984-0.94531 1.1836-1.4062 1.7812-0.45703 0.58984-0.91016 1.1758-1.3516 1.7734-0.44922 0.61328-0.89062 1.2344-1.3242 1.8555-0.42578 0.60938-0.85156 1.2188-1.2656 1.832-0.42188 0.63281-0.82813 1.2734-1.2344 1.9141-0.39844 0.63281-0.79687 1.2578-1.1797 1.8984-0.39062 0.65234-0.76953 1.3164-1.1445 1.9805-0.37109 0.64844-0.74219 1.293-1.0938 1.9531-0.35938 0.67188-0.70312 1.3516-1.0469 2.0352-0.33984 0.66406-0.67969 1.332-1.0039 2.0078-0.33203 0.69141-0.64062 1.3945-0.95312 2.0938-0.30469 0.68359-0.61328 1.3633-0.90625 2.0547-0.29688 0.71094-0.57422 1.4375-0.85547 2.1562-0.27344 0.69531-0.55078 1.3906-0.80469 2.0938-0.26562 0.73438-0.50781 1.4805-0.75781 2.2227-0.23828 0.70703-0.48047 1.4062-0.70312 2.125-0.23047 0.75391-0.44141 1.5195-0.65234 2.2852-0.20312 0.71484-0.41406 1.4258-0.59766 2.1484-0.19922 0.77734-0.36719 1.5664-0.55078 2.3516-0.16016 0.72656-0.33984 1.4414-0.48828 2.1719-0.16016 0.80078-0.29297 1.6094-0.43359 2.418-0.12891 0.72656-0.27344 1.4492-0.38281 2.1836-0.125 0.82813-0.21484 1.6758-0.32031 2.5117-0.089843 0.72266-0.19922 1.4336-0.26953 2.1602-0.09375 0.91016-0.14844 1.8398-0.21094 2.7578-0.050782 0.66406-0.11328 1.3164-0.14844 1.9766-0.078125 1.5469-0.11719 3.1016-0.12109 4.668 0 0.042969-0.003906 0.089844-0.003906 0.13281 0 52.32 42.816 94.883 95.445 94.883 52.629 0 95.445-42.562 95.445-94.883v-0.035156c-0.003906-1.6016-0.042969-3.1875-0.12109-4.7656m-317.66-224.71-121.41 216.77c-4.0352 7.1992-3.9336 15.988 0.26562 23.094 4.207 7.1055 11.879 11.469 20.168 11.469h182.78c-1.1133-7.1133-1.6953-14.395-1.6953-21.816 0-77.957 63.801-141.39 142.23-141.39s142.23 63.43 142.23 141.39c0 7.4219-0.58594 14.703-1.6992 21.816h243.67c-1.1133-7.1133-1.6992-14.395-1.6992-21.816 0-77.957 63.805-141.39 142.23-141.39 78.426 0 142.23 63.43 142.23 141.39 0 7.4219-0.58203 14.703-1.6992 21.816h103.36c12.918 0 23.395-10.41 23.395-23.254v-228.07zm632.5-408.39c0-12.844 10.477-23.254 23.391-23.254h231.2c12.918 0 23.395 10.41 23.395 23.254v130.18c0 12.844-10.477 23.254-23.395 23.254h-231.2c-12.914 0-23.391-10.41-23.391-23.254zm381.84 361.89v-429.2h36.41c12.918 0 23.391-10.414 23.391-23.254v-124.42c0-12.844-10.473-23.254-23.391-23.254h-558.52c-12.914 0-23.391 10.41-23.391 23.254v124.42c0 12.84 10.477 23.254 23.391 23.254h36.414v174.24h-179.06v-65.348h43.098c12.918 0 23.391-10.414 23.391-23.254v-108.89c0-12.844-10.473-23.254-23.391-23.254h-283.27c-12.922 0-23.395 10.41-23.395 23.254v108.89c0 12.84 10.473 23.254 23.395 23.254h43.09v65.348h-111.82c-18.93 0-34.328 15.309-34.328 34.125v220.84z" fill="#fff" fill-rule="evenodd"/>
</svg>
