<svg height='100px' width='100px'  fill="#ffffff" xmlns:x="http://ns.adobe.com/Extensibility/1.0/" xmlns:i="http://ns.adobe.com/AdobeIllustrator/10.0/" xmlns:graph="http://ns.adobe.com/Graphs/1.0/" xmlns="http://www.w3.org/2000/svg" xmlns:xlink="http://www.w3.org/1999/xlink" version="1.1" x="0px" y="0px" viewBox="0 0 100 100" style="enable-background:new 0 0 100 100;" xml:space="preserve"><g><g i:extraneous="self"><g><path d="M43.9,67.2c-1.6-1.1-4.1-1.9-7-2.4c-3,1.9-6.6,3-10.4,3s-7.4-1.1-10.4-3c-3,0.5-5.5,1.3-7,2.4c-5.8,4-6.4,16.5-6.5,18.9     c0,0.7,0.3,1.5,0.8,2c0.5,0.5,1.3,0.8,2,0.8h42.2c0.8,0,1.5-0.3,2-0.8c0.5-0.5,0.8-1.3,0.8-2C50.3,83.7,49.7,71.1,43.9,67.2z"></path><circle cx="26.4" cy="48.5" r="14.5"></circle><path d="M73.1,11c-13.5,0-24.4,10.9-24.4,24.4c0,3.9,0.9,7.7,2.7,11.2l-3.7,12.1c-0.2,0.6,0,1.3,0.4,1.7c0.3,0.3,0.8,0.5,1.2,0.5     c0.2,0,0.3,0,0.5-0.1l12-3.7c3.4,1.8,7.3,2.7,11.2,2.7c13.5,0,24.4-10.9,24.4-24.4C97.5,21.9,86.6,11,73.1,11z M84.2,32.2l-11,11     c-0.6,0.6-1.5,0.9-2.3,0.9c-0.8,0-1.7-0.3-2.3-0.9l-5.8-5.8c-1.3-1.3-1.3-3.3,0-4.6c1.3-1.3,3.3-1.3,4.6,0l3.5,3.5l8.7-8.7     c1.3-1.3,3.3-1.3,4.6,0C85.4,28.8,85.4,30.9,84.2,32.2z"></path></g></g></g></svg>