<svg height='100px' width='100px'  fill="#FFFFFF" xmlns="http://www.w3.org/2000/svg" xmlns:xlink="http://www.w3.org/1999/xlink" version="1.1" x="0px" y="0px" viewBox="0 0 100 100" enable-background="new 0 0 100 100" xml:space="preserve"><path d="M77.822,69.037c-25.279,15.173-58.057,6.979-73.215-18.3c4.504-7.513,10.802-13.795,18.3-18.3  c25.279-15.173,58.057-6.964,73.214,18.3C91.617,58.249,85.334,64.532,77.822,69.037z M72.103,50.737  C72.103,38.734,62.382,29,50.38,29c-12.017,0-21.738,9.735-21.738,21.738c0,12.002,9.721,21.737,21.738,21.737  C62.382,72.475,72.103,62.739,72.103,50.737L72.103,50.737z"></path><path d="M66.086,50.737c0,8.697-7.037,15.722-15.706,15.722c-8.698,0-15.737-7.024-15.737-15.722  c0-8.684,7.039-15.723,15.737-15.723C59.049,35.015,66.086,42.054,66.086,50.737L66.086,50.737z M39.385,49.966  c1.141,0.326,2.327-0.355,2.652-1.511c0.935-3.378,3.794-5.868,7.276-6.298c1.185-0.148,2.029-1.229,1.881-2.415  c-0.147-1.186-1.215-2.031-2.4-1.882c-5.23,0.652-9.542,4.386-10.935,9.454C37.547,48.469,38.229,49.655,39.385,49.966z"></path></svg>