<svg height='100px' width='100px'  fill="#ffffff" xmlns="http://www.w3.org/2000/svg" data-name="Layer 1" viewBox="0 0 55 55" x="0px" y="0px"><title>Untitled-1</title><path d="M43.56,40.18994l-.00482-.00134V33.80579a16.05518,16.05518,0,1,0-32.11036,0V40.1886l-.00482.00134a2.6485,2.6485,0,0,0-1.82,2.59v6.23A2.65775,2.65775,0,0,0,11.44,51.6l2.82.80993v.01a2.72272,2.72272,0,0,0,.63.08,2.27836,2.27836,0,0,0,1.38-.47,2.71627,2.71627,0,0,0,1.06-2.2V41.95984a2.74963,2.74963,0,0,0-1.06-2.21A2.26986,2.26986,0,0,0,14.26,39.37l-.81519.23706V33.80579a14.05518,14.05518,0,1,1,28.11036,0v5.80127L40.74,39.37a2.26986,2.26986,0,0,0-2.01.37988,2.74963,2.74963,0,0,0-1.06,2.21V49.83a2.71627,2.71627,0,0,0,1.06,2.2,2.27836,2.27836,0,0,0,1.38.47,2.72272,2.72272,0,0,0,.63-.08v-.01L43.56,51.6a2.65775,2.65775,0,0,0,1.82-2.59009v-6.23A2.6485,2.6485,0,0,0,43.56,40.18994Z"></path><path d="M45.89063,18.78333l-.665-.05372A12.51358,12.51358,0,0,0,33.27,2.50012,12.57,12.57,0,0,0,22.93066,7.9845,8.30289,8.30289,0,0,0,20.04,7.46985a8.4695,8.4695,0,0,0-8.46,8.45508A8.6265,8.6265,0,0,0,9.48523,33.00842a18.03243,18.03243,0,0,1,36.03839.14978,7.20138,7.20138,0,0,0,.367-14.37487Z"></path><path d="M35.9375,44.89465H33.186L32.1792,41.39856a.99853.99853,0,0,0-.92139-.72266,1.02444,1.02444,0,0,0-.97558.64649l-.61475,1.63476-.98633-3.72558a1.03531,1.03531,0,0,0-.977-.74414.99994.99994,0,0,0-.96142.76465L25.353,44.97864l-1.30225-7.16992a1.00035,1.00035,0,0,0-.98389-.82129h-.00927a.9996.9996,0,0,0-.97754.83886L20.9292,44.89465H19.0625a1,1,0,0,0,0,2h2.71729a.99975.99975,0,0,0,.98681-.83886l.354-2.17481L24.228,49.97864a1.00109,1.00109,0,0,0,.95459.82129h.02978a.99915.99915,0,0,0,.97119-.76465l1.57325-6.48145.77832,2.93946A1.00009,1.00009,0,0,0,30.438,46.59l.6543-1.73926.38037,1.32031a.9999.9999,0,0,0,.96093.72363H35.9375a1,1,0,0,0,0-2Z"></path></svg>