<svg height='100px' width='100px'  fill="#ffffff" xmlns="http://www.w3.org/2000/svg" xmlns:xlink="http://www.w3.org/1999/xlink" version="1.0" x="0px" y="0px" viewBox="0 0 32 32" enable-background="new 0 0 32 32" xml:space="preserve"><path d="M8,16v-4c0-4.418,3.582-8,8-8s8,3.582,8,8v4c0,4.418-3.582,8-8,8S8,20.418,8,16z M30,8h-2.699C25.652,3.344,21.223,0,16,0  S6.348,3.344,4.695,8H2c-1.105,0-2,0.895-2,2v8c0,1.105,0.895,2,2,2h4v-8C6,6.477,10.477,2,16,2s10,4.477,10,10v8h4  c1.105,0,2-0.895,2-2v-8C32,8.895,31.105,8,30,8z M22.449,23.586C20.703,25.07,18.469,26,16,26c-2.473,0-4.703-0.93-6.449-2.414  C6.223,25.32,3.676,28.344,2.586,32H29.41C28.32,28.344,25.773,25.32,22.449,23.586z"></path></svg>