<svg height='100px' width='100px'  fill="#ffffff" xmlns:x="http://ns.adobe.com/Extensibility/1.0/" xmlns:i="http://ns.adobe.com/AdobeIllustrator/10.0/" xmlns:graph="http://ns.adobe.com/Graphs/1.0/" xmlns="http://www.w3.org/2000/svg" xmlns:xlink="http://www.w3.org/1999/xlink" version="1.1" x="0px" y="0px" viewBox="0 0 100 100" style="enable-background:new 0 0 100 100;" xml:space="preserve"><g><g i:extraneous="self"><g><path d="M63.2,23.5c-4.7-2.5-10-4-15.6-4c-18.2,0-33,14.8-33,33s14.8,33,33,33s33-14.8,33-33c0-5.6-1.4-11-4-15.6l-4.2,4.2     c1.6,3.5,2.5,7.3,2.5,11.4c0,15.1-12.3,27.3-27.3,27.3S20.2,67.5,20.2,52.5c0-15.1,12.3-27.3,27.3-27.3c4.1,0,7.9,0.9,11.4,2.5     L63.2,23.5z"></path><path d="M47.5,37.2c0.6,0,1.2,0,1.8,0.1l4.7-4.7c-2.1-0.7-4.3-1-6.6-1c-11.6,0-21,9.4-21,21s9.4,21,21,21s21-9.4,21-21     c0-2.3-0.4-4.5-1-6.6l-4.7,4.7c0.1,0.6,0.1,1.2,0.1,1.8c0,8.4-6.9,15.3-15.3,15.3s-15.3-6.9-15.3-15.3     C32.2,44,39.1,37.2,47.5,37.2z"></path><path d="M82.5,30.9l-1.2,1.2c3.6,5.9,5.7,12.9,5.7,20.3c0,21.7-17.7,39.3-39.4,39.3S8.2,74.2,8.2,52.5     c0-21.7,17.7-39.4,39.4-39.4c7.4,0,14.4,2.1,20.3,5.7l1.2-1.2v-4.6c-6.4-3.5-13.8-5.5-21.6-5.5c-24.8,0-45,20.2-45,45     c0,24.8,20.2,45,45,45s45-20.2,45-45c0-7.8-2-15.2-5.5-21.6H82.5z"></path><path d="M97.3,14c-0.4-1-1.4-1.7-2.5-1.7h-7.1V5.2c0-1.1-0.7-2.1-1.7-2.5c-1-0.4-2.2-0.2-2.9,0.6l-7.4,7.4     c-0.5,0.5-0.8,1.2-0.8,1.9V20L50.8,44.1c-1-0.4-2.1-0.6-3.3-0.6c-5,0-9,4-9,9s4,9,9,9c5,0,9-4,9-9c0-1.2-0.2-2.3-0.6-3.3L80,25     h7.4c0.7,0,1.4-0.3,1.9-0.8l7.4-7.4C97.5,16.1,97.7,15,97.3,14z"></path></g></g></g></svg>