<svg height='100px' width='100px'  fill="#ffffff" xmlns="http://www.w3.org/2000/svg" xmlns:xlink="http://www.w3.org/1999/xlink" viewBox="0 0 56 46" version="1.1" x="0px" y="0px"><title>037 - Brain</title><desc>Created with Sketch.</desc><g stroke="none" stroke-width="1" fill="none" fill-rule="evenodd"><g fill="#ffffff" fill-rule="nonzero"><path d="M0.888,20.136 C1.49557416,21.1287535 2.37877897,21.9233599 3.43,22.423 C3.92871311,22.6604825 4.14048241,23.2572869 3.90299998,23.756 C3.66551754,24.2547131 3.06871313,24.4664824 2.57,24.229 C2.17020162,24.0355097 1.78721142,23.8090605 1.425,23.552 C2.52196492,26.8033944 5.5685473,28.9945206 9,29 L9.06,29 C9.0023802,28.4482813 8.98933794,27.892815 9.021,27.339 C9.46399427,22.0064717 13.9586081,17.9264563 19.309,18 L25,18 C25.5522847,18 26,17.5522847 26,17 C26,15.3431458 27.3431458,14 29,14 L32,14 C32.5522847,14 33,14.4477153 33,15 C33,15.5522847 32.5522847,16 32,16 L29,16 C28.4477153,16 28,16.4477153 28,17 C28,18.6568542 26.6568542,20 25,20 L19.309,20 C15.0132137,19.9243772 11.3913958,23.1858044 11.018,27.466 C10.9691736,28.2231064 11.0277546,28.9833128 11.192,29.724 C11.235,29.924 11.286,30.112 11.343,30.301 C11.354,30.338 11.365,30.376 11.377,30.413 C11.439,30.613 11.508,30.803 11.585,30.992 L11.609,31.049 C12.5678251,33.3426193 14.5300115,35.0664954 16.928,35.722 L17.001,35.741 C17.184,35.789 17.37,35.829 17.558,35.864 C17.652,35.881 17.748,35.894 17.843,35.908 C17.979,35.928 18.114,35.949 18.252,35.962 C18.499,35.985 18.752,36 19,36 C21.5304017,35.9931737 23.9089401,34.7916707 25.416,32.759 C24.9425267,32.456657 24.4877025,32.1260579 24.054,31.769 C23.6292931,31.4158139 23.571314,30.785207 23.9245001,30.3605 C24.2776861,29.9357931 24.908293,29.877814 25.333,30.231 C28.0959265,32.5298015 31.7451683,33.4662766 35.2736228,32.7819809 C38.8020772,32.0976851 41.8366968,29.864966 43.54,26.7 C43.0034526,25.9705492 42.5946438,25.1552987 42.331,24.289 C42.1782317,23.7612143 42.4799003,23.2090339 43.0065625,23.0524364 C43.5332247,22.8958389 44.0875815,23.193489 44.248,23.719 C45.0230778,26.3479184 47.4810877,28.1174434 50.2200896,28.0183161 C52.9590915,27.9191889 55.2827567,25.9766103 55.8657693,23.2985413 C56.4487819,20.6204722 55.1429244,17.8877506 52.693,16.659 C52.5655312,17.2406147 52.3947211,17.8118762 52.182,18.368 C51.9809684,18.8827294 51.4007294,19.1370316 50.886,18.936 C50.3712706,18.7349684 50.1169684,18.1547294 50.318,17.64 C50.6319671,16.8319019 50.8380747,15.9859529 50.931,15.124 C50.947,14.986 50.957,14.857 50.967,14.724 C50.984,14.483 51,14.243 51,14 C51.0001343,9.66439256 48.2001879,5.82497415 44.072,4.5 C44.3863367,4.97579369 44.6657369,5.47376772 44.908,5.99 C45.0745521,6.31697725 45.0486409,6.70891059 44.8404925,7.01111585 C44.6323442,7.3133211 44.2753978,7.47724913 43.9105292,7.43820253 C43.5456606,7.39915592 43.2314858,7.1634075 43.092,6.824 C40.9068016,2.14001925 35.521764,-0.118641158 30.649,1.605 C29.9117903,1.85894535 29.2069611,2.19860589 28.549,2.617 C28.0861854,2.91854747 27.4665475,2.78781462 27.165,2.325 C26.8634525,1.86218538 26.9941854,1.24254747 27.457,0.941 C27.608,0.841 27.766,0.755 27.921,0.663 C25.80324,-0.342712851 23.3184433,-0.196748019 21.333,1.05 C21.7967164,1.45988182 22.2111695,1.92232417 22.568,2.428 C22.7811951,2.7207195 22.8194795,3.10582662 22.6680873,3.43479057 C22.5166952,3.76375452 22.1992847,3.98516767 21.838277,4.01363386 C21.4772693,4.04210006 21.1290796,3.87317084 20.928,3.572 C20.4563314,2.89963847 19.8523247,2.3306812 19.153,1.9 L19.144,1.9 C16.5407831,0.281047047 13.1335007,0.905787639 11.274,3.343 C11.6697551,3.45600896 12.0559579,3.60012448 12.429,3.774 C12.7603122,3.92197953 12.9854679,4.23781929 13.0173223,4.59927611 C13.0491767,4.96073293 12.882731,5.31108367 12.5824066,5.51472797 C12.2820822,5.71837228 11.8950088,5.7433524 11.571,5.58 C9.95173928,4.81460906 8.07521275,4.81262648 6.45433835,5.57459418 C4.83346395,6.33656187 3.63774068,7.78279892 3.194,9.518 C3.7316786,9.31356768 4.28994253,9.16805024 4.859,9.084 C5.40603803,9.00612788 5.9126278,9.38646198 5.99049995,9.93350001 C6.0683721,10.480538 5.68803802,10.9871278 5.141,11.065 C4.22654698,11.1962731 3.35521402,11.5386436 2.596,12.065 L2.583,12.076 C-0.0221224694,13.8757633 -0.771645717,17.3948824 0.874,20.1 C0.88,20.114 0.882,20.126 0.888,20.136 Z"></path><path d="M42.5,39 C47.738,39 52,35.636 52,31.5 C51.998121,30.9239481 51.9122164,30.3512513 51.745,29.8 C49.3663879,30.3418885 46.870747,29.7583674 44.979,28.218 C42.6395025,32.0743729 38.595036,34.5774883 34.1,34.951 C35.5491489,36.9794978 37.7421492,38.3521003 40.2,38.769 C40.9565753,38.9255923 41.7273951,39.0030094 42.5,39 L42.5,39 Z"></path><path d="M31.8,34.936 C30.3942592,34.8126244 29.0151212,34.4782062 27.709,33.944 C27.6725719,33.9394169 27.6364913,33.9324012 27.601,33.923 C27.501,33.88 27.401,33.829 27.301,33.785 C27.261,33.767 27.218,33.755 27.178,33.736 C26.8306699,34.2250162 26.4397378,34.6815499 26.01,35.1 C26.0638171,36.7138042 27.385305,37.9955148 29,38 C29.8939335,37.9808241 30.7517528,38.3525824 31.349,39.018 L37.133,45.643 C37.3387343,45.8676342 37.628406,45.9969002 37.933,46 C38.5202427,46.0016599 38.9977947,45.5272409 39,44.94 L39,40.526 C35.8965556,39.8083001 33.264443,37.7647571 31.8,34.936 Z"></path></g></g></svg>