<svg height='100px' width='100px'  fill="#ffffff" xmlns="http://www.w3.org/2000/svg" xmlns:xlink="http://www.w3.org/1999/xlink" version="1.1" x="0px" y="0px" viewBox="0 0 30 30" style="enable-background:new 0 0 30 30;" xml:space="preserve"><g><g><path d="M12.3,16.4c-2.3,1.3-3.8,4.2-4.1,7.6H7.9c-1,0-1.8,0.8-1.8,1.8c0,1,0.8,1.8,1.8,1.8h14.2c1,0,1.8-0.8,1.8-1.8    c0-1-0.8-1.8-1.8-1.8h-0.4c-0.3-3.4-1.8-6.2-4.1-7.6c-0.4-0.2-0.7-0.7-0.7-1.1v-0.5c0-0.5,0.3-0.9,0.7-1.1    c2.3-1.3,3.8-4.2,4.1-7.6h0.4c1,0,1.8-0.8,1.8-1.8c0-1-0.8-1.8-1.8-1.8H7.9c-1,0-1.8,0.8-1.8,1.8c0,1,0.8,1.8,1.8,1.8h0.4    c0.3,3.4,1.8,6.2,4.1,7.6c0.4,0.2,0.7,0.7,0.7,1.1v0.5C13,15.7,12.7,16.1,12.3,16.4z M12.8,12.8c-2-1.1-3.3-3.8-3.6-6.7h11.5    c-0.2,3-1.6,5.6-3.6,6.7c-0.7,0.4-1.2,1.2-1.2,2v0.5c0,0.8,0.4,1.6,1.2,2c2,1.1,3.3,3.7,3.6,6.7h-1.4c-0.5-1.7-1.5-3.1-2.7-3.8    c-0.2-0.1-0.4-0.3-0.6-0.5c-0.1-0.1-0.3-0.2-0.5-0.3v-6.6c0.2-0.1,0.3-0.2,0.5-0.3c0.2-0.2,0.4-0.3,0.6-0.5c0.7-0.4,1.3-1,1.8-1.9    c0.2-0.3,0-0.8-0.4-0.8H12c-0.2,0-0.3,0.1-0.4,0.3c-0.1,0.2-0.1,0.4,0,0.5c0.5,0.8,1.1,1.5,1.8,1.9c0.2,0.1,0.5,0.3,0.7,0.5    c0.1,0.1,0.3,0.2,0.5,0.3v6.6c-0.2,0.1-0.4,0.2-0.5,0.3c-0.2,0.2-0.4,0.4-0.6,0.5c-1.2,0.7-2.1,2.1-2.7,3.8H9.3    c0.2-3,1.6-5.6,3.6-6.7c0.7-0.4,1.2-1.2,1.2-2v-0.5C14,14,13.6,13.2,12.8,12.8z"></path></g></g></svg>