<svg height='100px' width='100px'  fill="#ffffff" xmlns="http://www.w3.org/2000/svg" xmlns:xlink="http://www.w3.org/1999/xlink" version="1.1" x="0px" y="0px" viewBox="0 0 100 100" enable-background="new 0 0 100 100" xml:space="preserve"><g><path d="M35.318,26.968c-0.201,0-0.399-0.017-0.594-0.042c0.007,0.509,0.058,1.057,0.16,1.624c0.38,2.173,1.361,3.854,2.265,3.98   c1.151,3.096,2.973,6.098,5.223,8.301c1.276,1.245,2.688,2.229,4.194,2.828c1.033,0.41,2.114,0.637,3.224,0.637   s2.189-0.225,3.227-0.637c1.558-0.619,3.019-1.65,4.327-2.962c2.197-2.189,3.971-5.149,5.102-8.191   c0.867-0.255,1.776-1.881,2.148-3.956c0.098-0.553,0.149-1.087,0.158-1.585c-0.025,0-0.049,0.004-0.073,0.004H35.318z"></path><path d="M75.581,56.228c0.636,0,1.242,0.128,1.796,0.358c-0.028-0.132-0.047-0.267-0.086-0.398   c-1.126-3.884-2.598-6.397-4.084-8.052c-2.617-2.934-5.254-3.166-6.051-3.351c-2.444-0.571-5.403-0.33-6.983-0.821   c-0.187,1.551-4.691,6.645-7.642,9.844l-1.28-4.935c0.962-0.569,1.172-1.82,1.172-2.859H47.57c0,1.03,0.21,2.271,1.151,2.844   l-1.258,4.946c-2.953-3.195-7.458-8.291-7.642-9.84c-1.582,0.492-4.539,0.251-6.985,0.82c-0.818,0.191-3.611,0.44-6.314,3.662   c-1.391,1.657-2.758,4.09-3.818,7.739c-0.038,0.133-0.059,0.27-0.087,0.405c0.555-0.231,1.163-0.361,1.801-0.361H75.581z"></path><path d="M35.318,24.391h29.361c1.145,0,2.071-0.927,2.071-2.07c0-1.145-0.927-2.07-2.071-2.07h-0.563   c0-5.504-3.151-10.266-7.744-12.596l-1.169,6.634c-0.092,0.525-0.549,0.894-1.063,0.894c-0.063,0-0.127-0.006-0.191-0.017   c-0.589-0.104-0.981-0.665-0.875-1.253l1.334-7.577C53.906,5.534,53.018,5,52.001,5h-4.006c-1.016,0-1.904,0.534-2.404,1.335   l1.334,7.577c0.106,0.589-0.287,1.149-0.876,1.253c-0.064,0.011-0.128,0.017-0.191,0.017c-0.515,0-0.973-0.369-1.063-0.894   l-1.169-6.633c-4.594,2.329-7.743,7.091-7.743,12.595h-0.565c-1.144,0-2.07,0.925-2.07,2.07   C33.248,23.464,34.174,24.391,35.318,24.391z"></path><path d="M73.192,93.067H26.805c-0.534,0-0.966,0.433-0.966,0.966S26.271,95,26.805,95h46.387c0.533,0,0.967-0.434,0.967-0.967   S73.726,93.067,73.192,93.067z"></path><path d="M77.377,58.519c-0.554-0.229-1.16-0.358-1.796-0.358H24.417c-0.638,0-1.246,0.13-1.801,0.361   c-1.7,0.707-2.898,2.386-2.898,4.339v0.11l0.019,0.108l4.247,24.63c0.063,2.537,2.146,4.58,4.698,4.58h42.636   c2.552,0,4.635-2.043,4.698-4.58l4.245-24.63l0.02-0.109V62.86C80.28,60.906,79.079,59.227,77.377,58.519z M50,77.247   c-1.117,0-2.024-0.903-2.024-2.023c0-1.116,0.907-2.02,2.024-2.02c1.117,0,2.022,0.903,2.022,2.02   C52.021,76.344,51.116,77.247,50,77.247z"></path></g></svg>