<svg height='100px' width='100px'  fill="#ffffff" xmlns:dc="http://purl.org/dc/elements/1.1/" xmlns:cc="http://creativecommons.org/ns#" xmlns:rdf="http://www.w3.org/1999/02/22-rdf-syntax-ns#" xmlns:svg="http://www.w3.org/2000/svg" xmlns="http://www.w3.org/2000/svg" xmlns:sodipodi="http://sodipodi.sourceforge.net/DTD/sodipodi-0.dtd" xmlns:inkscape="http://www.inkscape.org/namespaces/inkscape" viewBox="0 0 64 64" version="1.1" xml:space="preserve" style="" x="0px" y="0px" fill-rule="evenodd" clip-rule="evenodd" stroke-linejoin="round" stroke-miterlimit="2"><path d="m 47.52684,35.752696 c -0.535111,2.076447 -1.505779,3.980449 -2.807114,5.607118 -0.34489,0.432 -0.275556,1.061335 0.156444,1.406224 0.430223,0.344889 1.061335,0.275556 1.404447,-0.156445 1.477335,-1.845335 2.576003,-4.00356 3.184004,-6.359119 0.136889,-0.533334 -0.18489,-1.079112 -0.720001,-1.217779 -0.533334,-0.136889 -1.079113,0.184889 -1.21778,0.720001 z" style="" stroke-width="1.77778" fill="#ffffff"></path><path d="m 34,18.00632 c -0.003,0.55 -0.45,0.994 -1,0.994 -7.175,0 -13,5.825 -13,13 0,7.175 5.825,13 13,13 0.552,0 1,0.448 1,1 v 12 c 0,0.552 -0.448,1 -1,1 -1.412,0 -2.825,-0.111 -4.224,-0.332 -0.392,-0.063 -0.711,-0.351 -0.811,-0.736 l -0.943,-3.619 c -1.951,-0.523 -3.824,-1.299 -5.572,-2.308 l -3.226,1.892 c -0.343,0.201 -0.773,0.18 -1.094,-0.054 -2.292,-1.665 -4.308,-3.681 -5.973,-5.973 -0.234,-0.321 -0.255,-0.751 -0.054,-1.094 l 1.892,-3.226 c -1.01,-1.748 -1.786,-3.622 -2.308,-5.572 l -3.619,-0.943 c -0.385,-0.1 -0.673,-0.419 -0.736,-0.811 -0.443,-2.799 -0.443,-5.649 0,-8.448 0.063,-0.392 0.351,-0.711 0.736,-0.811 l 3.619,-0.943 c 0.523,-1.951 1.299,-3.824 2.308,-5.572 l -1.892,-3.226 c -0.201,-0.343 -0.18,-0.773 0.054,-1.094 1.665,-2.292 3.681,-4.308 5.973,-5.973 0.321,-0.234 0.751,-0.255 1.094,-0.054 l 3.226,1.892 c 1.748,-1.01 3.622,-1.786 5.572,-2.308 l 0.943,-3.619 c 0.1,-0.385 0.419,-0.673 0.811,-0.736 1.399,-0.221 2.812,-0.332 4.224,-0.332 0.552,0 1,0.448 1,1 v 12 z m 2,-10.827 c 12.386,1.483 22,12.038 22,24.821 0,12.783 -9.614,23.338 -22,24.821 v -6.057 c 9.063,-1.44 16,-9.298 16,-18.764 0,-9.466 -6.937,-17.324 -16,-18.764 z" style="" fill="#ffffff"></path><path d="m 33.222,27.00532 c 3.638,-2.396 9.253,-5.856 9.253,-5.856 0.395,-0.243 0.905,-0.184 1.232,0.144 0.328,0.327 0.387,0.837 0.144,1.232 0,0 -3.46,5.615 -5.856,9.253 0.003,0.074 0.005,0.148 0.005,0.222 0,2.76 -2.24,5 -5,5 -2.76,0 -5,-2.24 -5,-5 0,-2.76 2.24,-5 5,-5 0.074,0 0.148,0.002 0.222,0.005 z" style="" fill="#ffffff"></path><path style="" d="m 50,32.00032 a 1,1 0 0 1 -1,1 1,1 0 0 1 -1,-1 1,1 0 0 1 1,-1 1,1 0 0 1 1,1 z" stroke-width="0.2" fill="#ffffff"></path></svg>