<?xml version="1.0" encoding="UTF-8"?>
<svg width="1200pt" height="1200pt" version="1.1" viewBox="0 0 1200 1200" xmlns="http://www.w3.org/2000/svg">
 <path d="m1181.6 1093.6-449.04-442.57c54.195-68.387 85.184-153.55 85.184-245.16 0-220.64-180.66-400-403.88-400-223.22 0-402.57 179.36-402.57 400 0 220.64 180.63 400 403.86 400 87.742 0 167.74-27.109 233.55-74.852l451.61 445.16c11.613 11.613 25.828 16.781 40.023 16.781 15.484 0 29.664-5.168 41.277-16.781 21.938-23.227 21.938-59.359 0-82.586zm-1067.1-687.73c0-163.87 134.18-296.77 300.63-296.77 166.45 0 300.66 132.9 300.66 296.77s-135.49 296.77-300.66 296.77c-165.16 0-300.63-134.2-300.63-296.77zm501.91 6.4492c0 24.516-20.645 45.164-45.16 45.164h-108.37v103.22c0 24.52-20.645 45.164-45.16 45.164s-45.16-20.645-45.16-45.164v-103.22h-114.84c-24.516 0-45.164-20.648-45.164-45.164s20.648-45.16 45.164-45.16h114.84v-117.44c0-24.516 20.645-45.164 45.16-45.164s45.16 20.648 45.16 45.164v117.44h108.37c25.809 0 45.16 20.645 45.16 45.16z" fill="#fff"/>
</svg>
