<?xml version="1.0" encoding="UTF-8"?>
<svg width="1200pt" height="1200pt" version="1.1" viewBox="0 0 1200 1200" xmlns="http://www.w3.org/2000/svg">
 <g fill="#fff">
  <path d="m710.41 779.06h-589.03c-33.762 0-61.383-27.621-61.383-61.383s27.621-61.383 61.383-61.383h589.03c33.762 0 61.383 27.621 61.383 61.383-0.003906 33.762-27.625 61.383-61.387 61.383z"/>
  <path d="m760.39 527.93h-639.01c-33.762 0-61.383-27.621-61.383-61.383s27.621-61.383 61.383-61.383h639.01c33.762 0 61.383 27.621 61.383 61.383s-27.621 61.383-61.383 61.383z"/>
  <path d="m643.36 1031.4h-521.98c-33.762 0-61.383-27.621-61.383-61.383s27.621-61.383 61.383-61.383h521.98c33.762 0 61.383 27.621 61.383 61.383-0.003906 33.762-27.625 61.383-61.387 61.383z"/>
  <path d="m1135.6 544.25-91.922 159.21c-12.59 21.805-44.062 21.805-56.648 0l-91.918-159.21c-12.59-21.805 3.1484-49.059 28.324-49.059h183.84c25.176 0 40.91 27.254 28.324 49.059z"/>
  <path d="m818.91 281.67h-697.53c-33.762 0-61.383-27.621-61.383-61.383 0-33.762 27.621-61.383 61.383-61.383h697.53c33.762 0 61.383 27.621 61.383 61.383-0.003906 33.758-27.625 61.383-61.387 61.383z"/>
 </g>
</svg>
