<?xml version="1.0" encoding="UTF-8"?>
<svg width="1200pt" height="1200pt" version="1.1" viewBox="0 0 1200 1200" xmlns="http://www.w3.org/2000/svg">
 <path d="m1160.1 491.98c-0.21484-0.50391-0.57422-0.92578-1.0781-1.1992-25.922-14.641-53.41-22.066-81.707-22.066-37.199 0-74.629 13.105-111.21 38.93-2.9766 2.0898-6.4453 3.1914-10.055 3.1914-5.6875 0-11.016-2.7617-14.281-7.3906-5.543-7.8594-3.6719-18.77 4.2109-24.324 43.836-30.949 84.301-45.984 123.68-45.984 19.246 0 38.809 3.5898 59.855 11.004 0.99609 0.34766 2.1133 0.023437 2.7617-0.80469 0.68359-0.83984 16.43-21.348 7.9453-71.258-3.7578-17.93-10.645-32.566-20.387-43.379-19.645-24.926-39.562-30.156-52.824-30.156-8.2305 0-13.441 2.0508-13.668 2.1367-0.48047 0.19141-0.88672 0.52734-1.1641 0.98438-19.055 29.965-41.172 50.09-81.574 74.27-2.7227 1.6211-5.8086 2.4727-8.9531 2.4727-6.1211 0-11.844-3.2539-14.988-8.4961-4.9453-8.2578-2.2422-18.996 6.0117-23.941 48.77-29.184 68.16-48.371 79.895-79.188 5.9297-21.742-1.3789-51.07-16.945-68.113l-3.1211-3.8281c-17.699-21.781-50.594-62.328-133.75-83.629-11.543-3.6719-23.328-5.5312-35.039-5.5312-33.887 0-55.992 15.254-56.914 15.898-0.91016 0.63672-1.2852 1.8008-0.9375 2.8438 3.3008 9.6953 13.355 39.191 3.1211 72.215-2.2695 7.3555-8.9883 12.289-16.668 12.289-1.7539 0-3.4922-0.25391-5.1836-0.78125-9.1797-2.8555-14.34-12.648-11.484-21.84 6.7812-21.875 5.3281-41.195-4.4297-59.039-12.758-23.352-30.445-39.07-53.965-48.035-22.453-9.5508-58.031-11.676-72.383-12.145-92.461 0.50391-158.38 6.457-241.8 36.301-10.68 3.4805-19.008 10.477-23.461 19.68-5.2578 10.895-5.1367 24.48 0.37109 39.277 0.070312 0.17969 0.26562 0.78125 0.60156 1.7383 6.457 18.887 12.77 35.832 18.77 50.387 1.7773 4.3086 1.7773 9.0469-0.011719 13.355-1.7891 4.2969-5.1484 7.6562-9.457 9.4336-2.1367 0.875-4.3672 1.3203-6.6484 1.3203-7.043 0-13.379-4.2461-16.152-10.812-5.0039-11.941-20.594-51-20.734-51.359-0.28906-0.76953-7.5117-18.887-30.781-18.887-17.473 0-39.156 10.402-64.391 30.898-33.562 26.004-50.699 49.559-50.941 69.996-0.16797 14.41 8.4375 21.551 9.0352 22.02 6.9258 4.4141 44.543 33.098 60.266 50.605 6.5742 7.3086 6.3594 18.18-0.49219 24.73-3.2656 3.1211-7.5469 4.8359-12.059 4.8359-4.8125 0-9.2891-1.9219-12.613-5.3867-39.023-40.766-71.016-60.602-97.824-60.602-3.7695 0-7.4648 0.40625-10.992 1.2109-10.402 2.3867-27.277 14.375-37.43 30.168-35.797 46.512-47.484 83.004-50.785 145.45-1.9922 37.379 8.1016 73.859 19.43 89.711 15.926 22.273 32.027 34.883 38.137 39.301 0 0 4.9062 3.1211 6.7812 1.6562 15.938-12.516 34.188-19.094 56.594-19.094 13.402 0 28.559 2.2578 45.047 6.7188 4.3672 1.1875 8.0156 4.043 10.262 8.0508 2.3047 4.1055 2.8672 9.0586 1.5352 13.586-2.1602 7.3906-9.0352 12.551-16.754 12.551-1.6562 0-3.3008-0.25391-4.8945-0.70703-11.52-3.3594-22.273-4.7891-31.945-5.0742-9.5273-0.25391-26.902 0.64844-34.777 9.5391-0.35938 0.40625-0.68359 0.81641-0.80469 1.332-0.10938 0.49219-1.9688 42.973 58.5 64.645 50.785 18.191 77.184 18.793 187.55 18.793 16.273 0 34.176-0.16797 56.316-0.53906 5.5781-0.15625 13.488-2.9023 18.527-8.7461 3.8398-4.4414 5.4844-10.008 4.7539-15.828-0.058594-9.3711 1.3906-17.93 4.6094-26.93 13.223-37.055 39.852-61.246 86.352-78.492 1.9688-0.73047 3.9961-1.1055 6.0703-1.1055 7.2617 0 13.824 4.5859 16.355 11.398 1.6211 4.3672 1.4531 9.1094-0.50391 13.344-1.9453 4.2461-5.4102 7.4648-9.7812 9.0977-35.555 13.188-57.457 32.027-65.113 55.992-12.898 40.441 16.957 84.84 17.316 85.199 88.859 87.086 261.5 89.566 270.18 65.398 7.3086-17.941 12.336-46.414-5.293-80.242-27.613-52.969-121.29-56.258-122.23-56.305-9.6133-0.26562-17.23-8.3164-16.957-17.902 0.25391-9.3594 8.1016-16.98 17.867-16.98 4.6914 0.13281 115.09 3.7578 152.26 75.059 20.184 38.699 17.34 73.141 11.387 95.281-1.4297 5.9414-0.34766 11.941 2.8789 16.055 2.0625 2.5938 5.9141 5.6875 12.758 5.6875 0 0 61.152 0.39453 111.12-9.9961 6.7578-1.3906 13.199 3.6016 14.258 10.379 1.0547 6.8047-3.6133 13.188-10.402 14.242-73.332 11.473-137.63 17.207-193.44 17.207-67.441 0-122.51-8.3867-166.23-25.176 0.74219 30.828 11.219 57.707 30.266 79.703 0.12109 0.17969 0.22656 0.3125 0.33594 0.48047 6.3477 6.6836 15.863 16.141 24.551 24.059 6.6484 6.0586 38.102 26.102 46.285 31.043 15.793 9.2148 87.602 53.398 94.5 57.84 31.609 20.363 40.969 42.469 41.953 43.789 3.3711 4.4648 5.1133 17.711 5.1133 17.711 2.8555 11.879 13.57 20.711 26.34 20.676 14.914-0.035156 27-12.168 26.953-27.098 0 0 0.42188-30.348-11.41-51.145-1.8945-3.8516-26.797-44.652-55.535-66.816-8.7227-6.7305-29.305-21.781-29.305-21.781l-0.12109-0.058594c-2.3398-1.5977-3.0703-4.7383-1.5703-7.1758 1.5234-2.4727 4.7773-3.2656 7.2852-1.7383 0 0 60.637 42.59 98.652 31.992 55.871-15.562 129-52.309 129-134.99 0-12.289-1.2227-23.844-3.5508-34.727 7.7539-4.1289 15.457-8.7969 23.148-14.16 9.0234-7.2227 11.711-16.176 12.371-22.414 0.9375-8.9297-1.6445-18.383-6.7422-24.625l-36.816-47.41-0.43359-0.46875c-7.668-9.7422-17.699-11.785-24.781-11.785-6.0352 0-10.766 1.4531-13.297 2.4102-12.938 6.5273-26.566 11.879-40.453 15.898-9.1445 2.6289-19.02-2.9297-21.613-11.93-1.2852-4.4766-0.76953-9.1914 1.4766-13.273 2.2578-4.0781 5.9531-7.0312 10.441-8.3164 31.68-9.1562 88.836-34.43 115.93-100.82 2.6758-6.6016 9.0234-10.859 16.176-10.859 2.2578 0 4.4648 0.43359 6.5625 1.2969 8.9141 3.625 13.223 13.836 9.5742 22.754-8.6875 21.301-20.594 40.586-35.594 57.648-6.8398 11.039-5.9531 22.477 2.8086 35.062l24.047 31.246c0.32422 0.44531 0.76953 0.75781 1.2852 0.88672 0.39453 0.12109 9.793 2.7734 23.207 2.7734 18.07 0 43.645-4.9062 62.785-28.355 46.777-55.934 49.055-104.33 50.699-139.67 0.17969-3.5156 0.32422-6.9375 0.52734-10.586-2.0703-25.871-18.605-39.008-25.996-43.641zm-716.51-23.184c-22.5 22.234-47.328 38.605-73.766 48.672-0.30078 0.10938-0.55078 0.27734-0.76953 0.49219-12.168 6.6133-16.414 15.73-14.148 30.445l10.02 57.035c0.89844 4.5703-0.035156 9.2266-2.6406 13.094-2.6055 3.8633-6.5391 6.5039-11.125 7.3906-9.4219 1.8594-18.672-4.4883-20.496-13.754l-10.922-61.559c-3.3359-12.938-15.758-19.777-23.809-20.688-0.32422-0.17969-0.70703-0.28906-1.1172-0.30078-86.746-3.1328-156.18-59.172-156.88-59.734-3.6016-2.9648-5.8438-7.1406-6.3125-11.773-0.45703-4.6328 0.92578-9.1797 3.8633-12.781 3.3242-4.0664 8.2578-6.3945 13.512-6.3945 3.9961 0 7.9219 1.3906 11.027 3.9375 2.6289 2.1367 65.219 52.332 140.34 52.332 44.328 0 84.266-17.242 118.69-51.227 6.625-6.5508 18.121-6.4922 24.672 0.15625 3.2773 3.3125 5.0625 7.7148 5.0273 12.371 0.003906 4.6406-1.8477 9.0078-5.1719 12.285zm23.008-121.19c-54.539 0-93.551 33.742-95.195 35.172-3.1914 2.7969-7.2734 4.3438-11.508 4.3438-5.0273 0-9.8164-2.1602-13.117-5.9297-3.0703-3.5039-4.6094-7.9922-4.2969-12.648 0.28906-4.6445 2.3867-8.9023 5.8906-11.977 23.891-21 67.621-43.43 118.67-43.43 36.781 0 71.953 11.664 104.54 34.68 3.8047 2.6875 6.3359 6.6953 7.1289 11.293 0.79297 4.5859-0.25391 9.2148-2.9414 13.02-3.2656 4.6328-8.6055 7.3906-14.27 7.3906-3.6133 0-7.0781-1.1055-10.043-3.2031-26.984-19.051-55.547-28.711-84.859-28.711zm403.84 247.37c-3 3.5742-7.2109 5.7617-11.844 6.168-75.156 6.5898-131.15-9.9727-165.2-48.961-5.3164-6.0703-10.188-12.875-14.461-20.219-0.097656-0.17969-0.23828-0.34766-0.37109-0.50391-4.5234-4.5469-10.715-6.9844-18.422-7.2617-2.7227-0.097656-5.6055 0.070313-8.8086 0.52734-0.34766-0.070312-22.078 4.7031-43.414 3.9961-48.098-1.5859-79.02-24.133-80.305-25.078-7.7539-5.7109-9.3945-16.656-3.6836-24.406 3.4062-4.6445 8.9023-7.2969 14.664-7.0781 3.4922 0.12109 6.8281 1.2734 9.6719 3.3477 0.97266 0.69531 24.203 16.117 60.59 18.277 17.594 1.043 34.848-4.5117 36.949-5.3984 13.453-5.6523 12.949-20.566 12.289-26.34-2.8555-33.73 3.1211-60.637 3.3594-61.777 2.0742-9.2266 11.543-15.289 20.867-13.176 9.3477 2.125 15.277 11.461 13.176 20.832-0.16797 0.75781-16.055 75.457 24.312 121.46 26.363 30.035 72.312 42.574 135.76 36.996 9.793-0.81641 18.086 6.3828 18.898 15.863 0.39063 4.625-1.0234 9.1484-4.0234 12.727zm-13.707-270.11c-31.246 29.965-46.645 77.629-39.18 121.45 1.4648 8.5312-4.3086 16.668-12.828 18.121-0.88672 0.15625-1.7891 0.22656-2.6758 0.22656-7.668 0-14.531-5.4375-15.457-13.066-5.7344-46.824 9.4219-90.047 9.6016-90.492 1.0078-2.4609 1.1406-4.5977 0.37109-6.3477-0.91016-2.1602-3-3.3477-4.6211-3.9844-46.848-5.1836-131.22-23.016-170.4-84.168-6.0352-8.8906-21.828-4.332-47.398-4.3672-114.89-0.19141-131.17-73.98-131.81-77.125-0.82812-4.1055-0.011718-8.3047 2.3047-11.797 2.3164-3.5039 5.8438-5.8906 9.9609-6.7188 1.0312-0.21484 2.0898-0.32422 3.1328-0.32422 7.3555 0 13.812 5.2305 15.359 12.434 0.49219 2.1133 13.094 52.078 101.32 52.078 4.3672 0 8.9141-0.12109 13.512-0.37109 10.141-1.2344 15.816-6.5742 17.293-16.297 1.4531-33.996 27.059-59.27 41.965-68.832 2.5312-1.6328 5.4609-2.4961 8.4609-2.4961 5.3867 0 10.332 2.6992 13.246 7.2227 2.2695 3.5273 3.0234 7.7266 2.125 11.82-0.89844 4.1055-3.3359 7.6094-6.8516 9.875-1.6211 1.0664-39.66 26.496-23.543 64.031 29.016 67.609 127.7 81.961 168.78 84.984 5.1836-0.40625 11.09-3.5039 16.152-8.4961 3.4688-3.9961 6.4805-7.2109 9.4688-10.066 39.926-38.27 42.312-75.73 42.395-77.305 0.44531-8.6406 7.8242-15.359 16.402-14.914 8.5781 0.38281 15.301 7.668 14.977 16.234-0.078125 2.0898-2.5 51.191-52.062 98.688z" fill="#fff"/>
</svg>
