<?xml version="1.0" encoding="UTF-8"?>
<svg width="1200pt" height="1200pt" version="1.1" viewBox="0 0 1200 1200" xmlns="http://www.w3.org/2000/svg">
 <g fill="#fff">
  <path d="m2.2188 545.84 512.35 605.77-234.34-605.77z"/>
  <path d="m392.69 235.05h-182.34c-7.5 0-14.566 3.5156-19.082 9.5039l-191.27 253.47h285.57z"/>
  <path d="m913.86 498.02h286.14l-191.87-253.5c-4.5195-5.9688-11.574-9.4805-19.062-9.4805h-182.33z"/>
  <path d="m684.93 1151.4 511.64-605.6h-277.36z"/>
  <path d="m576.16 1176.9v-631.04h-244.67z"/>
  <path d="m623.97 498.02h238.26l-107.12-262.98h-131.14z"/>
  <path d="m337.2 498.02h238.96v-262.98h-131.84z"/>
  <path d="m623.97 545.84v633.54l243.96-633.54z"/>
  <path d="m623.97 44.531c0-13.203-10.703-23.906-23.906-23.906s-23.906 10.703-23.906 23.906v95.629c0 13.203 10.703 23.906 23.906 23.906s23.906-10.703 23.906-23.906z"/>
  <path d="m804.98 162.02c6.1211 0 12.234-2.332 16.906-7.0039l67.617-67.617c9.3359-9.3359 9.3359-24.473 0-33.812-9.3398-9.3359-24.473-9.3359-33.812 0l-67.617 67.621c-9.3359 9.3359-9.3359 24.473 0 33.812 4.668 4.668 10.785 7 16.906 7z"/>
  <path d="m379.94 155.02c4.668 4.668 10.785 7.0039 16.906 7.0039 6.1172 0 12.238-2.332 16.906-7.0039 9.3359-9.3359 9.3359-24.473 0-33.812l-67.617-67.617c-9.3359-9.3359-24.473-9.3359-33.812 0-9.3359 9.3359-9.3359 24.473 0 33.812z"/>
 </g>
</svg>
