<?xml version="1.0" encoding="UTF-8"?>
<svg width="1200pt" height="1200pt" version="1.1" viewBox="0 0 1200 1200" xmlns="http://www.w3.org/2000/svg">
 <g fill="#fff" fill-rule="evenodd">
  <path d="m332 296.73 141.21 80.867v0.003907c-5.5312 6.3672-9.7734 13.746-12.492 21.73l-141.18-80.855c5.4844-6.4023 9.707-13.777 12.457-21.746zm187.05 57.539 16.367-154.92 0.003907 0.003907c8.043 2.4648 16.469 3.4258 24.863 2.832l-16.332 154.54c-8.0703-2.3828-16.523-3.1953-24.902-2.3984zm102-206.55 146.94 58.262c-4.5117 7.0977-7.6133 14.996-9.1328 23.266l-147-58.297v0.003906c4.5-7.0977 7.6211-14.98 9.2031-23.234zm248.61 43.777 124.8-97.199-58.859-9.4922c-3.3125-0.48047-6.293-2.2695-8.2734-4.9648-1.9844-2.6914-2.8047-6.0703-2.2773-9.3711 0.52344-3.3047 2.3516-6.2617 5.0703-8.207 2.7188-1.9453 6.1055-2.7227 9.4023-2.1523l86.398 13.934 0.003907-0.003907c3.6328 0.30078 6.9531 2.1758 9.0859 5.1328s2.8711 6.6953 2.0117 10.238l-13.922 86.398 0.003906 0.003906c-0.46484 3.3242-2.2461 6.3203-4.9453 8.3164-2.6953 1.9961-6.082 2.8242-9.3945 2.3008-3.3164-0.52734-6.2773-2.3594-8.2266-5.0938-1.9492-2.7305-2.7148-6.1328-2.1328-9.4375l9.0117-55.895-122.4 95.258c-3.1992-6.2266-7.3477-11.914-12.301-16.863-1.0195-1.0078-2.0508-1.9688-3.1094-2.9023zm-596.83 150.5-19.129 159.45c-8.0469-2.5273-16.504-3.4844-24.91-2.8203l19.199-159.79c8.0195 2.5898 16.449 3.6719 24.863 3.1914zm-91.633 266.75-110.4 60.555c-6.0117 2.9062-13.246 0.58594-16.445-5.2734-3.2031-5.8594-1.2461-13.199 4.4453-16.688l110.4-60.539c2.543 8.0234 6.6172 15.477 12 21.945z"/>
  <path d="m297.38 245.59c-7.7148-7.7148-18.176-12.051-29.086-12.051s-21.375 4.3359-29.086 12.051c-7.7148 7.7148-12.051 18.176-12.051 29.086 0 10.91 4.3359 21.375 12.051 29.086 7.7109 7.7148 18.176 12.051 29.086 12.051s21.371-4.3359 29.086-12.047c7.7031-7.7227 12.031-18.184 12.031-29.09s-4.3281-21.367-12.031-29.086z"/>
  <path d="m583.92 105.83c-7.7148-7.7148-18.18-12.047-29.09-12.047-10.91 0-21.371 4.332-29.086 12.047s-12.051 18.18-12.051 29.086c0 10.91 4.3359 21.375 12.051 29.09s18.176 12.047 29.086 12.047c10.91 0 21.375-4.332 29.09-12.047 7.7031-7.7188 12.031-18.18 12.031-29.09 0-10.906-4.3281-21.367-12.031-29.086z"/>
  <path d="m854.14 212.98c-7.7148-7.7109-18.18-12.043-29.09-12.043-10.906 0.003906-21.367 4.3359-29.082 12.051-7.7109 7.7148-12.047 18.176-12.047 29.086 0 10.91 4.3359 21.371 12.047 29.086 7.7148 7.7148 18.176 12.047 29.082 12.051 10.91 0 21.375-4.332 29.09-12.043 7.707-7.7227 12.035-18.184 12.035-29.094 0-10.91-4.3281-21.375-12.035-29.094z"/>
  <path d="m553.63 392.4c-7.7148-7.7109-18.18-12.047-29.09-12.047-10.91 0-21.371 4.3359-29.086 12.051-7.7148 7.7109-12.047 18.176-12.047 29.086 0 10.91 4.332 21.371 12.047 29.086 7.7148 7.7148 18.176 12.051 29.086 12.051 10.91 0 21.375-4.3359 29.09-12.051 7.7031-7.7188 12.027-18.18 12.027-29.086s-4.3242-21.367-12.027-29.09z"/>
  <path d="m262.44 536.79c-7.7148-7.7148-18.18-12.051-29.09-12.051-10.91 0-21.371 4.3359-29.086 12.051s-12.047 18.176-12.047 29.086 4.332 21.375 12.047 29.09c7.7148 7.7148 18.176 12.047 29.086 12.047 10.91 0 21.375-4.332 29.09-12.047 7.7031-7.7227 12.027-18.184 12.027-29.09s-4.3242-21.367-12.027-29.086z"/>
  <path d="m62.734 1114.9h25.094v-366.13h151.64v366.13h142.76v-495.71h151.64v495.71h142.75v-689.79h151.66v689.79h142.75v-859.22h151.66v859.22h25.082v25.094h-1085z"/>
 </g>
</svg>
