<?xml version="1.0" encoding="UTF-8"?>
<svg width="1200pt" height="1200pt" version="1.1" viewBox="0 0 1200 1200" xmlns="http://www.w3.org/2000/svg">
 <path d="m50.418 295.14c14.82-149.67 144.1-257.64 291.76-257.64h515.34c146.8 0 275.76 106.75 291.29 255.6 18.305 175.46 18.258 323.71-0.1875 500.88-15.516 148.99-144.49 256.03-291.51 256.03h-315.29l-264.99 109.65c-13.828 5.7227-29.734 2.6758-40.465-7.7461-10.734-10.426-14.246-26.238-8.9297-40.223l28.281-74.414c-108.68-32.734-193.39-125.77-205.2-245.18-17.324-175.13-17.387-322.45-0.11328-496.94zm560.05 20.145c74.438-70.379 194.3-70.379 268.74 0 48.914 46.246 64.875 100.66 55.93 155.99-8.4844 52.484-38.754 102.49-74.754 146.11-72.293 87.578-179.7 163.55-240.33 201.83-12.23 7.7227-27.809 7.7227-40.035 0.003907-60.551-38.215-168-114.13-240.34-201.71-36.02-43.609-66.32-93.629-74.809-146.13-8.9492-55.359 7.0352-109.8 55.988-156.09 74.438-70.379 194.3-70.379 268.74 0l10.434 9.8672z" fill="#fff" fill-rule="evenodd"/>
</svg>
