<svg height='100px' width='100px'  fill="#ffffff" xmlns="http://www.w3.org/2000/svg" xmlns:xlink="http://www.w3.org/1999/xlink" version="1.1" x="0px" y="0px" viewBox="0 0 100 100" enable-background="new 0 0 100 100" xml:space="preserve"><path d="M94.29,50.012c0.001,0.066,0.001,0.131,0.001,0.196c0,24.467-19.905,44.373-44.373,44.373  c-20.649,0-38.049-14.178-42.977-33.311l3.734,3.734l6.168-6.168c3.833,14.682,17.208,25.55,33.074,25.55  c18.845,0,34.178-15.333,34.178-34.179c0-0.065-0.001-0.131-0.001-0.196h-5.267l10.557-10.556l10.5,10.556"></path><path d="M15.741,50.012C15.847,31.256,31.138,16.03,49.918,16.03c15.82,0,29.162,10.804,33.039,25.421l6.384-6.383l3.359,3.36  C87.526,19.66,70.308,5.835,49.918,5.835c-24.402,0-44.266,19.799-44.373,44.177H0.114l10.557,10.557l10.5-10.557"></path><path d="M33.794,27.27v45.876h13.818V64.17h4.611v8.977h13.817V27.27H33.794z M42.512,69.926h-4.498V64.17h4.498V69.926z   M42.512,60.202h-4.498v-5.755h4.498V60.202z M42.512,50.479h-4.498v-5.756h4.498V50.479z M42.512,40.755h-4.498v-5.756h4.498  V40.755z M52.167,60.136h-4.498V54.38h4.498V60.136z M52.167,50.411h-4.498v-5.755h4.498V50.411z M52.167,40.755h-4.498v-5.756  h4.498V40.755z M61.711,69.926h-4.498V64.17h4.498V69.926z M61.711,60.202h-4.498v-5.755h4.498V60.202z M61.711,50.479h-4.498  v-5.756h4.498V50.479z M61.711,40.755h-4.498v-5.756h4.498V40.755z"></path></svg>