<svg height='100px' width='100px'  fill="#ffffff" xmlns:dc="http://purl.org/dc/elements/1.1/" xmlns:cc="http://creativecommons.org/ns#" xmlns:rdf="http://www.w3.org/1999/02/22-rdf-syntax-ns#" xmlns:svg="http://www.w3.org/2000/svg" xmlns="http://www.w3.org/2000/svg" version="1.1" x="0px" y="0px" viewBox="0 0 100 100"><g transform="matrix(0.22499991,0,0,0.22499991,-894.99964,420.71836)" style="" fill="#ffffff"><g transform="matrix(0.84394417,0,0,0.84394417,392.63896,956.09393)" style="" fill="#ffffff"><path d="m 4419.2389,-2848.2118 79.7968,-59.2942 -35.5261,-8.2402 3.7296,-118.3062 -9.4085,-4.3876 -49.7753,109.5085 -33.8181,-7.8578 z" style="opacity:0.98999999;color:#000000;fill:#ffffff;fill-opacity:1;fill-rule:nonzero;stroke:none;stroke-width:199.99980164;marker:none;visibility:visible;display:inline;overflow:visible;enable-background:accumulate"></path><path d="m 4680.7797,-2998.4871 -18.5029,30.8456 -152.9271,-73.9038 -9.1072,14.3571 132.7459,108.4776 -18.0952,30.168 97.9949,-15.7952 z" style="opacity:0.98999999;color:#000000;fill:#ffffff;fill-opacity:1;fill-rule:nonzero;stroke:none;stroke-width:199.99980164;marker:none;visibility:visible;display:inline;overflow:visible;enable-background:accumulate"></path><path d="m 4712.9564,-3117.6058 35.416,-92.9507 -97.3439,-19.23 16.4545,31.1388 -176.2869,118.7409 8.2128,14.8863 196.7278,-84.3806 z" style="opacity:0.98999999;color:#000000;fill:#ffffff;fill-opacity:1;fill-rule:nonzero;stroke:none;stroke-width:199.99980164;marker:none;visibility:visible;display:inline;overflow:visible;enable-background:accumulate"></path><path d="m 4426.2034,-3085.1754 -71.5118,-36.103 7.7571,-34.7289 -88.0415,46.0294 60.1599,79.0938 7.7459,-34.7574 81.7136,1.6528 z" style="opacity:0.98999999;color:#000000;fill:#ffffff;fill-opacity:1;fill-rule:nonzero;stroke:none;stroke-width:199.99980164;marker:none;visibility:visible;display:inline;overflow:visible;enable-background:accumulate"></path><path d="m 4186.072,-3046.0288 a 74.953316,74.953316 0 1 1 -149.9067,0 74.953316,74.953316 0 1 1 149.9067,0 z" transform="matrix(0.02803147,-0.7459824,0.7459824,0.02803147,6629.5884,89.788337)" style="opacity:0.98999999;color:#000000;fill:#ffffff;fill-opacity:1;fill-rule:nonzero;stroke:none;stroke-width:20;marker:none;visibility:visible;display:inline;overflow:visible;enable-background:accumulate"></path><path d="m 4522.1621,-3251.8694 -70.3631,-70.3074 -57.3299,80.987 35.1442,-2.2932 39.6874,200.202 8.9831,6.1282 7.9855,-212.3581 z" style="opacity:0.98999999;color:#000000;fill:#ffffff;fill-opacity:1;fill-rule:nonzero;stroke:none;stroke-width:199.99980164;marker:none;visibility:visible;display:inline;overflow:visible;enable-background:accumulate"></path></g></g></svg>