<svg height='100px' width='100px'  fill="#ffffff" xmlns="http://www.w3.org/2000/svg" xmlns:xlink="http://www.w3.org/1999/xlink" version="1.1" x="0px" y="0px" viewBox="0 0 34 34" enable-background="new 0 0 34 34" xml:space="preserve"><g><path d="M24.5,16c-4.68,0-8.5,3.81-8.5,8.5c0,4.68,3.82,8.5,8.5,8.5c4.69,0,8.5-3.82,8.5-8.5   C33,19.81,29.19,16,24.5,16z M28.5,26H26v2.5c0,0.83-0.67,1.5-1.5,1.5S23,29.33,23,28.5V26h-2.5c-0.83,0-1.5-0.67-1.5-1.5   c0-0.83,0.67-1.5,1.5-1.5H23v-2.5c0-0.83,0.67-1.5,1.5-1.5s1.5,0.67,1.5,1.5V23h2.5c0.83,0,1.5,0.67,1.5,1.5   C30,25.33,29.33,26,28.5,26z"></path><path d="M19.24,33H6.27C3.39,33,1.03,30.7,1,27.87v-0.14C1,20.16,7.16,14,14.74,14c2.08,0,4.06,0.47,5.83,1.31   c-3.56,1.53-6.07,5.07-6.07,9.19C14.5,28.08,16.4,31.23,19.24,33z"></path><path d="M20.24,6.5c0,3.03-2.47,5.5-5.5,5.5s-5.5-2.47-5.5-5.5c0-3.03,2.47-5.5,5.5-5.5S20.24,3.47,20.24,6.5z"></path></g></svg>