<svg height='100px' width='100px'  fill="#ffffff" xmlns="http://www.w3.org/2000/svg" xmlns:xlink="http://www.w3.org/1999/xlink" version="1.1" x="0px" y="0px" viewBox="0 0 100 100" enable-background="new 0 0 100 100" xml:space="preserve"><path d="M61.6,31.8c4.1,4,4.1,10.6,0,14.7s-10.6,4.1-14.7,0c-4.1-4-4.1-10.6,0-14.7C51,27.7,57.5,27.7,61.6,31.8z M81.8,63.1v16.5  c0,1.6-1,2.9-2.5,3.4L37,97.6c-1.6,0.5-3.2-0.6-3.2-2.3v-8.9H23.7c-3.6,0-6.5-2.9-6.5-6.5V62.3h-4.8c-2.5,0-4-2.8-2.7-4.9  c1.4-2.2,3.1-5.2,4.7-8.3c1.5-3,2.8-8.1,2.8-11.5v-1h0.1C18.7,16.6,36,0.9,56.7,2.4c18.7,1.3,33.6,17,34.1,35.7  C91,47.7,87.6,56.5,81.8,63.1z M79.4,41.6l0-2.4l0-2.4c0-0.9-0.6-1.6-1.5-1.8l-4.7-0.8c-0.5-1.8-1.2-3.5-2.1-5.1l2.8-3.9  c0.5-0.7,0.4-1.7-0.2-2.3L72,21.3l-1.7-1.7c-0.6-0.6-1.6-0.6-2.3-0.1l-3.9,2.8c-1.6-0.9-3.3-1.7-5.1-2.1l-0.8-4.7  c-0.2-0.9-0.9-1.5-1.8-1.5l-2.4,0l-2.4,0c-0.9,0-1.6,0.6-1.8,1.5l-0.8,4.7c-1.8,0.5-3.6,1.2-5.2,2.2l-3.9-2.7  c-0.7-0.5-1.7-0.4-2.3,0.2l-1.7,1.7l-1.7,1.7c-0.6,0.6-0.7,1.6-0.2,2.3l2.8,3.9c-0.9,1.6-1.6,3.3-2.1,5.1l-4.7,0.7  c-0.9,0.2-1.5,0.9-1.5,1.8l0,2.4l0,2.4c0,0.9,0.6,1.6,1.5,1.8l4.7,0.8c0.5,1.8,1.2,3.5,2.1,5.1l-2.7,3.9c-0.5,0.7-0.4,1.7,0.2,2.3  l1.7,1.7l1.7,1.7c0.6,0.6,1.6,0.7,2.3,0.2l3.9-2.8c1.6,0.9,3.3,1.6,5.1,2.1l0.8,4.7c0.2,0.9,0.9,1.5,1.8,1.5l2.4,0l2.4,0  c0.9,0,1.6-0.6,1.8-1.5l0.8-4.7c1.7-0.5,3.4-1.1,5-2.1L68,59c0.7,0.5,1.7,0.4,2.3-0.2l1.7-1.7l1.7-1.7c0.6-0.6,0.7-1.6,0.2-2.3  l-2.8-3.9c0.9-1.6,1.7-3.3,2.1-5.1l4.7-0.8C78.8,43.2,79.4,42.4,79.4,41.6z"></path></svg>