<svg height='100px' width='100px'  fill="#ffffff" xmlns="http://www.w3.org/2000/svg" xmlns:xlink="http://www.w3.org/1999/xlink" xml:space="preserve" version="1.1" style="shape-rendering:geometricPrecision;text-rendering:geometricPrecision;image-rendering:optimizeQuality;" viewBox="0 0 846.66 846.66" x="0px" y="0px" fill-rule="evenodd" clip-rule="evenodd"><defs><style type="text/css">
   
    .fil0 {fill:#ffffff}
   
  </style></defs><g><path class="fil0" d="M423.34 55.34c203.21,0 367.98,164.78 367.98,367.99 0,203.21 -164.77,367.99 -367.98,367.99 -203.21,0 -367.99,-164.78 -367.99,-367.99 0,-203.21 164.78,-367.99 367.99,-367.99zm17.61 467.11c-25.98,25.98 -68.05,26.02 -94.07,0 -25.98,-25.98 -25.93,-68.13 0,-94.06 25.98,-25.98 180.36,-86.21 180.36,-86.21 0,0 -60.32,154.29 -86.29,180.27zm-23.18 -23.77c-13.05,13.01 -34.16,13.06 -47.17,0 -13.05,-13.01 -13.05,-34.16 0,-47.17 13.06,-13.01 34.12,-13.01 47.17,0 13.01,13.06 13.01,34.21 0,47.17zm6.3 -400.12c23.54,0 42.67,19.08 42.67,42.57 0,23.54 -19.13,42.62 -42.67,42.62 -23.49,0 -42.57,-19.08 -42.57,-42.62 0,-23.49 19.08,-42.57 42.57,-42.57zm-264.4 152.64c11.77,-20.37 37.84,-27.36 58.2,-15.59 20.37,11.77 27.36,37.84 15.59,58.21 -11.73,20.36 -37.79,27.35 -58.16,15.58 -20.41,-11.77 -27.4,-37.84 -15.63,-58.2zm527.24 0c-11.77,-20.37 -37.83,-27.36 -58.2,-15.59 -20.37,11.77 -27.36,37.84 -15.59,58.21 11.73,20.36 37.79,27.35 58.16,15.58 20.37,-11.77 27.4,-37.84 15.63,-58.2z"></path></g></svg>