<svg height='100px' width='100px'  fill="#ffffff" xmlns="http://www.w3.org/2000/svg" data-name="Layer 1" viewBox="0 0 100 100" x="0px" y="0px"><title>Artboard 8</title><path d="M33.11,1h56a5.62,5.62,0,0,1,5.62,5.62V60.29a5.62,5.62,0,0,1-5.62,5.62H38.54v-8H86.71V9H37.12A15.44,15.44,0,0,0,33.11,1ZM21.86,21.13a9.5,9.5,0,1,0-9.5-9.5A9.5,9.5,0,0,0,21.86,21.13ZM5.29,32V50.35a7.32,7.32,0,0,0,5.9,7.18v37a4.51,4.51,0,1,0,9,0V68.21a1.71,1.71,0,0,1,1.37-1.72,1.65,1.65,0,0,1,1.93,1.63V94.49a4.51,4.51,0,1,0,9,0V35.65l8.46,7a4.25,4.25,0,0,0,5.33.06l12.49-9.84A4.37,4.37,0,0,0,60,27.19a4.25,4.25,0,0,0-6.26-1.13L43.76,33.9l-10-8.25a4.23,4.23,0,0,0-2.7-1H12.61A7.32,7.32,0,0,0,5.29,32Z"></path></svg>