<svg height='100px' width='100px'  fill="#ffffff" xmlns="http://www.w3.org/2000/svg" xmlns:xlink="http://www.w3.org/1999/xlink" version="1.1" x="0px" y="0px" viewBox="0 0 100 100" style="enable-background:new 0 0 100 100;" xml:space="preserve"><style type="text/css">
	.st0{fill-rule:evenodd;clip-rule:evenodd;}
</style><path d="M68.2,3.9H29.7c-3.7,0-6.7,3-6.7,6.7v78.2c0,3.7,3,6.7,6.7,6.7h38.5c3.7,0,6.7-3,6.7-6.7V10.6C74.8,6.9,71.8,3.9,68.2,3.9  L68.2,3.9z M39.4,8h19c0.5,0,0.9,0.7,0.9,1.6c0,0.9-0.4,1.6-0.9,1.6h-19c-0.5,0-0.9-0.7-0.9-1.6C38.5,8.7,38.9,8,39.4,8L39.4,8z   M48.9,88.8c-2.3,0-4.3-1.9-4.3-4.2c0-2.3,1.9-4.3,4.3-4.3c2.3,0,4.2,1.9,4.2,4.3C53.1,86.9,51.2,88.8,48.9,88.8L48.9,88.8z   M69.8,74.3H28V15.2h41.8V74.3z M69.8,74.3"></path></svg>