<svg height='100px' width='100px'  fill="#ffffff" xmlns="http://www.w3.org/2000/svg" xmlns:xlink="http://www.w3.org/1999/xlink" version="1.1" x="0px" y="0px" viewBox="0 0 64 64" enable-background="new 0 0 64 64" xml:space="preserve"><g><g><path d="M32,42.73c-2.68,0-5.186,1.069-7.056,3.011c-0.397,0.412-0.392,1.066,0.014,1.471l6.3,6.3    c0.205,0.205,0.474,0.308,0.742,0.308s0.537-0.103,0.742-0.308l6.3-6.3c0.405-0.404,0.411-1.059,0.014-1.471    C37.186,43.8,34.68,42.73,32,42.73z"></path><path d="M32,26.641c-6.923,0-13.483,3.005-17.996,8.244c-0.358,0.417-0.335,1.039,0.054,1.428l5.71,5.71    c0.212,0.212,0.51,0.339,0.804,0.306c0.299-0.018,0.576-0.162,0.763-0.397c2.58-3.267,6.469-5.141,10.666-5.141    s8.086,1.874,10.666,5.141c0.187,0.235,0.464,0.38,0.763,0.397c0.021,0.002,0.041,0.002,0.062,0.002    c0.277,0,0.545-0.11,0.742-0.308l5.71-5.71c0.389-0.389,0.412-1.011,0.054-1.428C45.482,29.646,38.924,26.641,32,26.641z"></path><path d="M61.623,23.21C54.022,14.93,43.226,10.181,32,10.181S9.978,14.93,2.377,23.21c-0.38,0.414-0.366,1.055,0.031,1.452    l5.939,5.94c0.204,0.204,0.512,0.311,0.771,0.308c0.289-0.008,0.561-0.134,0.754-0.349C15.501,24.281,23.566,20.68,32,20.68    s16.499,3.602,22.128,9.882c0.193,0.215,0.465,0.341,0.754,0.349c0.01,0,0.019,0,0.028,0c0.278,0,0.545-0.11,0.742-0.308    l5.939-5.94C61.989,24.265,62.003,23.624,61.623,23.21z"></path></g></g></svg>