<svg height='100px' width='100px'  fill="#ffffff" xmlns="http://www.w3.org/2000/svg" xmlns:xlink="http://www.w3.org/1999/xlink" version="1.1" x="0px" y="0px" viewBox="0 0 32 32" style="enable-background:new 0 0 32 32;" xml:space="preserve"><path d="M23,30c0,0.5999756-0.4000244,1-1,1H10c-0.5999756,0-1-0.4000244-1-1s0.4000244-1,1-1h5v-2.1300049  C15.3200073,26.960022,15.6500244,27,16,27s0.6799927-0.039978,1-0.1300049V29h5C22.5999756,29,23,29.4000244,23,30z"></path><path d="M19,7.5C19,7.7800293,19.2199707,8,19.5,8H23v2h-3.5c-0.2800293,0-0.5,0.2199707-0.5,0.5s0.2199707,0.5,0.5,0.5H23v2h-3.5  c-0.2800293,0-0.5,0.2199707-0.5,0.5s0.2199707,0.5,0.5,0.5H23v2h-3.5c-0.2800293,0-0.5,0.2199707-0.5,0.5s0.2199707,0.5,0.5,0.5H23  v2c0,1.8699951-1.2800293,3.4299927-3.0100098,3.8699951C19.9299927,20.7199707,18.1699829,19,16,19  s-3.9299927,1.7199707-3.9899902,3.8699951C10.2800293,22.4299927,9,20.8699951,9,19v-2h3.5c0.2800293,0,0.5-0.2199707,0.5-0.5  S12.7800293,16,12.5,16H9v-2h3.5c0.2800293,0,0.5-0.2199707,0.5-0.5S12.7800293,13,12.5,13H9v-2h3.5  c0.2800293,0,0.5-0.2199707,0.5-0.5S12.7800293,10,12.5,10H9V8h3.5C12.7800293,8,13,7.7800293,13,7.5S12.7800293,7,12.5,7H9V5  c0-2.210022,1.789978-4,4-4h1v3.5C14,4.7800293,14.2199707,5,14.5,5S15,4.7800293,15,4.5V1h2v3.5C17,4.7800293,17.2199707,5,17.5,5  S18,4.7800293,18,4.5V1h1c2.210022,0,4,1.789978,4,4v2h-3.5C19.2199707,7,19,7.2199707,19,7.5z"></path><circle cx="16" cy="23" r="3"></circle></svg>