<svg height='100px' width='100px'  fill="#ffffff" xmlns="http://www.w3.org/2000/svg" xmlns:xlink="http://www.w3.org/1999/xlink" version="1.0" x="0px" y="0px" viewBox="0 0 100 100" enable-background="new 0 0 100 100" xml:space="preserve"><path d="M74.915,19.409c0.134-1.123,0.053-2.214-0.325-3.236c-2.471-6.693-15.481-8.177-29.063-3.301  c-12.903,4.632-21.653,13.32-20.384,19.921L20,70.001v6.664c0,7.363,5.97,13.336,13.333,13.336h33.33  c7.363,0,13.337-5.97,13.337-13.333v-6.667L74.915,19.409z M47.78,19.148c4.518-1.621,9.033-2.48,13.053-2.48  c4.932,0,7.23,1.341,7.51,1.83c0.222,1.419-4.336,8.125-16.119,12.357c-4.521,1.621-9.04,2.48-13.057,2.48  c-4.936,0-7.233-1.342-7.514-1.833C31.433,30.085,35.999,23.374,47.78,19.148z M31.048,38.731c5.6,2.058,14.379,1.641,23.428-1.604  c6.143-2.204,11.335-5.335,14.965-8.718l3.245,34.926H27.649L31.048,38.731z M73.33,76.668c0,3.682-2.985,6.667-6.667,6.667  l-33.33-0.004c-3.682,0-6.666-2.984-6.666-6.666v-6.664h6.666v6.667H40v-6.667h6.667v6.667h6.666v-6.667H73.33V76.668z"></path></svg>