<svg height='100px' width='100px'  fill="#ffffff" xmlns="http://www.w3.org/2000/svg" data-name="Layer 2" viewBox="0 0 28 28" x="0px" y="0px"><title>UI</title><path d="M26,7H23a1,1,0,0,1,0-2h3a1,1,0,0,1,0,2Z"></path><path d="M26,23H23a1,1,0,0,1,0-2h3a1,1,0,0,1,0,2Z"></path><path d="M2,7H16.142a4,4,0,1,0,0-2H2A1,1,0,0,0,2,7Z"></path><path d="M26,13H11.858a3.981,3.981,0,0,0-7.716,0H2a1,1,0,0,0,0,2H4.142a3.981,3.981,0,0,0,7.716,0H26a1,1,0,0,0,0-2Z"></path><path d="M20,18a4,4,0,0,0-3.858,3H2a1,1,0,0,0,0,2H16.142A3.993,3.993,0,1,0,20,18Z"></path></svg>