<svg height='100px' width='100px'  fill="#ffffff" xmlns="http://www.w3.org/2000/svg" xmlns:xlink="http://www.w3.org/1999/xlink" version="1.1" x="0px" y="0px" viewBox="0 0 70 70" style="enable-background:new 0 0 70 70;" xml:space="preserve"><path d="M34.7,54.6c-2.8,0-5.9-0.4-9.1-1.6c-0.3-0.1-0.4-0.4-0.3-0.7s0.4-0.4,0.7-0.3c8.9,3.4,17.9,0,18,0c0.3-0.1,0.6,0,0.7,0.3  c0.1,0.3,0,0.6-0.3,0.7C44.1,53.1,40.1,54.6,34.7,54.6z"></path><path d="M34.7,57.8c-2.8,0-5.9-0.4-9.1-1.6c-0.3-0.1-0.4-0.4-0.3-0.7s0.4-0.4,0.7-0.3c8.9,3.4,17.9,0,18,0c0.3-0.1,0.6,0,0.7,0.3  c0.1,0.3,0,0.6-0.3,0.7C44.1,56.3,40.1,57.8,34.7,57.8z"></path><path d="M34.7,61c-2.8,0-5.9-0.4-9.1-1.6c-0.3-0.1-0.4-0.4-0.3-0.7s0.4-0.4,0.7-0.3c8.9,3.4,17.9,0,18,0c0.3-0.1,0.6,0,0.7,0.3  c0.1,0.3,0,0.6-0.3,0.7C44.1,59.5,40.1,61,34.7,61z"></path><path d="M34.9,65c-0.6,0-1.3-0.1-2-0.4c-0.3-0.1-0.4-0.4-0.3-0.7c0.1-0.3,0.4-0.4,0.7-0.3c1.6,0.6,3.3,0,3.3,0  c0.3-0.1,0.6,0,0.7,0.3c0.1,0.3,0,0.6-0.3,0.7C37,64.7,36.1,65,34.9,65z"></path><path d="M53.7,21.7C52.9,14.6,48,8.5,41.3,6.1c-2.7-1-5.7-1.3-8.5-1c-8.8,1-15.9,8.4-16.6,17.3c-0.5,6.1,1.9,11.9,6.6,15.9  c1.6,1.4,2.5,3.4,2.5,5.7v5.3c0,0.2,0.1,0.4,0.3,0.5c3.2,1.2,6.3,1.6,9.1,1.6c5.4,0,9.4-1.5,9.7-1.6c0.2-0.1,0.3-0.3,0.3-0.5V44  c0-2.3,0.9-4.4,2.6-5.8C52,34.1,54.4,28,53.7,21.7z M46.6,37.4c-1.9,1.7-3,4.1-3,6.6v4.9c-0.9,0.3-3.6,1.2-7.2,1.4  c-7.7-10.4-7.8-19.8,2.7-23.1c-2.8,2.1-6.2,3.5-6.9,7.7c8.7,0.8,14.2-5.4,15.2-13c0.3-2,0-4.2-0.8-5.7c-0.2,2.9-3,4-5.2,5  c-1.9,0.9-3.8,1.6-5.4,2.6c-1.7,1-3,2.3-4,3.9c0.2-1.7-0.4-3.2-1.4-4.6c-0.7-0.9-1.5-1.6-2.4-2.5c-1-1-2.3-2.1-1.8-3.7  c-0.7,0.6-1.3,1.8-1.5,2.9c-1,4.3,0.7,8.7,5.6,10c0.4-2.4-1.1-3.8-2.2-5.5c1,1.2,3.3,3.4,2.9,5.2c0,0.1-3.3,6.3,0.7,20.7  c-1.8-0.2-3.7-0.6-5.5-1.3V44c0-2.6-1.1-4.9-2.9-6.5c-4.4-3.7-6.6-9.2-6.2-15C17.9,14.1,24.7,7.1,33,6.2c0.6-0.1,1.3-0.1,2-0.1  c2.1,0,4.1,0.3,6,1c6.4,2.2,11,8,11.7,14.7C53.4,27.7,51.1,33.5,46.6,37.4z"></path></svg>