<svg height='100px' width='100px'  fill="#ffffff" xmlns="http://www.w3.org/2000/svg" xmlns:xlink="http://www.w3.org/1999/xlink" version="1.1" x="0px" y="0px" viewBox="0 0 30 30" style="enable-background:new 0 0 30 30;" xml:space="preserve"><g><path d="M17.3624268,18.8890991h-4.7248535c-3.7353516,0-6.7635498,3.0280762-6.7635498,6.7634888   c0,1.0822754,0.8773193,1.9596558,1.9597168,1.9596558h14.3325195c1.0823975,0,1.9597168-0.8773804,1.9597168-1.9596558   C24.1259766,21.9171753,21.0977783,18.8890991,17.3624268,18.8890991z"></path><path d="M19.5762939,11.8535767c0-2.9921875-2.0505371-4.78479-4.581665-4.78479   c-2.5203857,0-4.5709229,1.7926025-4.5709229,4.78479c0,2.979248,2.0505371,6.0343628,4.5709229,6.0343628   C17.5257568,17.8879395,19.5762939,14.8328247,19.5762939,11.8535767z"></path><path d="M23.8328857,10.7052612C23.5501709,6.0726318,19.7025146,2.3877563,15,2.3877563   c-4.7047119,0-8.5534668,3.6882324-8.8331299,8.3238525c-0.7756348,0.6309814-1.2772217,1.5802612-1.2772217,2.6422729   c0,1.7944336,0.90979,3.300415,2.7039795,3.4281616h0.074707c0.2670898,0,1.0339355-0.0959473,1.2263184-0.2883301   c0.2242432-0.2028809,0.3416748-0.4802856,0.3416748-0.7796021v-4.7094116c0-0.2993774-0.1174316-0.5877075-0.3416748-0.7905884   c-0.1708984-0.1534424-0.3984375-0.2357788-0.6293945-0.2555542C8.8707275,6.7903442,11.6578369,4.3877563,15,4.3877563   c3.3424072,0,6.1297607,2.4031982,6.7349854,5.5717773c-0.2333984,0.0214233-0.4498291,0.1027222-0.6188965,0.2545776   c-0.2241211,0.2028809-0.3417969,0.4912109-0.3417969,0.7905884v4.7094116c0,0.2993164,0.1176758,0.5767212,0.3417969,0.7796021   c0.1922607,0.1814575,0.4486084,0.2883301,0.7263184,0.2883301h0.074707   c1.7941895-0.1277466,3.1932373-1.633728,3.1932373-3.4281616C25.1103516,12.2884521,24.6094971,11.3361816,23.8328857,10.7052612z   "></path></g></svg>