<svg height='100px' width='100px'  fill="#ffffff" xmlns="http://www.w3.org/2000/svg" xmlns:xlink="http://www.w3.org/1999/xlink" xmlns:serif="http://www.serif.com/" viewBox="0 0 101 101" version="1.1" xml:space="preserve" style="" x="0px" y="0px" fill-rule="evenodd" clip-rule="evenodd" stroke-linejoin="round" stroke-miterlimit="2"><path d="M24.879,61.824l-0,3.102c-0,10.618 8.608,19.226 19.226,19.226l3.098,0l-0,7.508c-0,4.33 3.51,7.84 7.84,7.84l22.324,0c4.33,0 7.84,-3.51 7.84,-7.84l-0,-59.996c-0,-16.659 -13.505,-30.164 -30.164,-30.164l-0.001,0c-16.659,0 -30.163,13.505 -30.163,30.163l-0,7.916l-6.359,6.358c-2.662,2.662 -3.458,6.666 -2.017,10.145c1.412,3.409 4.7,5.655 8.376,5.742Zm52.488,-17.204l-18.047,0l-0,0.126c-0,2.163 -1.756,3.92 -3.92,3.92c-2.163,0 -3.92,-1.757 -3.92,-3.92l-0,-0.126l-20.555,0l-6.861,6.861c-0.42,0.42 -0.546,1.051 -0.318,1.6c0.227,0.549 0.763,0.907 1.357,0.907l7.616,0l-0,10.938c-0,6.288 5.097,11.386 11.386,11.386l10.938,0l-0,15.348l22.324,0l-0,-47.04Zm-32.037,9.668c2.14,3.513 5.956,5.658 10.07,5.658c4.114,0 7.931,-2.145 10.07,-5.658c1.126,-1.848 0.539,-4.262 -1.309,-5.387c-1.848,-1.126 -4.262,-0.539 -5.387,1.309c-0.717,1.177 -1.995,1.896 -3.374,1.896c-1.378,0 -2.657,-0.719 -3.374,-1.896c-1.125,-1.848 -3.539,-2.435 -5.386,-1.309c-1.848,1.125 -2.435,3.539 -1.31,5.387Zm32.037,-17.508l-0,-5.116c-0,-12.329 -9.995,-22.324 -22.324,-22.324l-0.001,0c-12.329,0 -22.323,9.995 -22.323,22.323l-0,5.117l18.761,0l-0,-0.126c-0,-2.163 1.757,-3.92 3.92,-3.92c2.164,0 3.92,1.757 3.92,3.92l-0,0.126l18.047,0Zm-25.341,-5.59c0.717,-1.177 1.996,-1.896 3.374,-1.896c1.379,0 2.657,0.719 3.374,1.896c1.125,1.848 3.539,2.435 5.387,1.31c1.848,-1.126 2.435,-3.539 1.309,-5.387c-2.139,-3.514 -5.956,-5.659 -10.07,-5.659c-4.114,0 -7.93,2.145 -10.07,5.659c-1.125,1.848 -0.538,4.261 1.31,5.387c1.847,1.125 4.261,0.538 5.386,-1.31Z"></path></svg>