<svg height='100px' width='100px'  fill="#ffffff" xmlns="http://www.w3.org/2000/svg" data-name="Layer 1" viewBox="0 0 50 50" x="0px" y="0px"><title>communication_tnp</title><path d="M25,11a5,5,0,1,0-5-5A5,5,0,0,0,25,11Zm0-8a3,3,0,1,1-3,3A3,3,0,0,1,25,3ZM17,23H33a1,1,0,0,0,1-1,9,9,0,0,0-18,0A1,1,0,0,0,17,23Zm8-8a7,7,0,0,1,6.93,6H18.07A7,7,0,0,1,25,15ZM10,37a5,5,0,1,0-5-5A5,5,0,0,0,10,37Zm0-8a3,3,0,1,1-3,3A3,3,0,0,1,10,29Zm0,10a9,9,0,0,0-9,9,1,1,0,0,0,1,1H18a1,1,0,0,0,1-1A9,9,0,0,0,10,39ZM3.07,47a7,7,0,0,1,13.86,0H3.07ZM40,37a5,5,0,1,0-5-5A5,5,0,0,0,40,37Zm0-8a3,3,0,1,1-3,3A3,3,0,0,1,40,29Zm0,10a9,9,0,0,0-9,9,1,1,0,0,0,1,1H48a1,1,0,0,0,1-1A9,9,0,0,0,40,39Zm-6.93,8a7,7,0,0,1,13.86,0H33.07Zm-2.21-8.84a1,1,0,0,1-1.37.37L25.09,36,25,36l-0.09,0L20.5,38.53a1,1,0,0,1-1-1.73L24,34.2V29a1,1,0,0,1,2,0v5.2l4.5,2.6A1,1,0,0,1,30.87,38.16Z"></path></svg>