<svg width="36" height="36" viewBox="0 0 36 36" fill="none" xmlns="http://www.w3.org/2000/svg">
<path d="M6 15H30V17H6V15ZM21 30C21 32.208 20.208 34 18 34C15.791 34 15 32.208 15 30C15 27.792 15.791 28 18 28C20.208 28 21 27.792 21 30Z" fill="#292F33"/>
<path d="M18 31C11.373 31 8 32.343 8 34V36H28V34C28 32.343 24.627 31 18 31Z" fill="#66757F"/>
<path d="M18 0C15.6131 0 13.3239 0.948212 11.636 2.63604C9.94821 4.32387 9 6.61305 9 9V16H27V9C27 6.61305 26.0518 4.32387 24.364 2.63604C22.6761 0.948212 20.3869 0 18 0V0Z" fill="#99AAB5"/>
<path d="M15.5 4C16.3284 4 17 3.32843 17 2.5C17 1.67157 16.3284 1 15.5 1C14.6716 1 14 1.67157 14 2.5C14 3.32843 14.6716 4 15.5 4Z" fill="#292F33"/>
<path d="M20.5 4C21.3284 4 22 3.32843 22 2.5C22 1.67157 21.3284 1 20.5 1C19.6716 1 19 1.67157 19 2.5C19 3.32843 19.6716 4 20.5 4Z" fill="#292F33"/>
<path d="M17.5 8C18.3284 8 19 7.32843 19 6.5C19 5.67157 18.3284 5 17.5 5C16.6716 5 16 5.67157 16 6.5C16 7.32843 16.6716 8 17.5 8Z" fill="#292F33"/>
<path d="M22.5 8C23.3284 8 24 7.32843 24 6.5C24 5.67157 23.3284 5 22.5 5C21.6716 5 21 5.67157 21 6.5C21 7.32843 21.6716 8 22.5 8Z" fill="#292F33"/>
<path d="M12.5 8C13.3284 8 14 7.32843 14 6.5C14 5.67157 13.3284 5 12.5 5C11.6716 5 11 5.67157 11 6.5C11 7.32843 11.6716 8 12.5 8Z" fill="#292F33"/>
<path d="M15.5 12C16.3284 12 17 11.3284 17 10.5C17 9.67157 16.3284 9 15.5 9C14.6716 9 14 9.67157 14 10.5C14 11.3284 14.6716 12 15.5 12Z" fill="#292F33"/>
<path d="M10.5 12C11.3284 12 12 11.3284 12 10.5C12 9.67157 11.3284 9 10.5 9C9.67157 9 9 9.67157 9 10.5C9 11.3284 9.67157 12 10.5 12Z" fill="#292F33"/>
<path d="M20.5 12C21.3284 12 22 11.3284 22 10.5C22 9.67157 21.3284 9 20.5 9C19.6716 9 19 9.67157 19 10.5C19 11.3284 19.6716 12 20.5 12Z" fill="#292F33"/>
<path d="M25.5 12C26.3284 12 27 11.3284 27 10.5C27 9.67157 26.3284 9 25.5 9C24.6716 9 24 9.67157 24 10.5C24 11.3284 24.6716 12 25.5 12Z" fill="#292F33"/>
<path d="M17.5 16C18.3284 16 19 15.3284 19 14.5C19 13.6716 18.3284 13 17.5 13C16.6716 13 16 13.6716 16 14.5C16 15.3284 16.6716 16 17.5 16Z" fill="#292F33"/>
<path d="M22.5 16C23.3284 16 24 15.3284 24 14.5C24 13.6716 23.3284 13 22.5 13C21.6716 13 21 13.6716 21 14.5C21 15.3284 21.6716 16 22.5 16Z" fill="#292F33"/>
<path d="M12.5 16C13.3284 16 14 15.3284 14 14.5C14 13.6716 13.3284 13 12.5 13C11.6716 13 11 13.6716 11 14.5C11 15.3284 11.6716 16 12.5 16Z" fill="#292F33"/>
<path d="M9 15.0625V17.0005C9 21.9715 13.029 26.0005 18 26.0005C22.971 26.0005 27 21.9715 27 17.0005V15.0625H9Z" fill="#66757F"/>
<path d="M30 14C29.7348 14 29.4804 14.1054 29.2929 14.2929C29.1054 14.4804 29 14.7348 29 15V17C29 23.074 24.075 28 18 28C11.925 28 7 23.074 7 17V15C7 14.7348 6.89464 14.4804 6.70711 14.2929C6.51957 14.1054 6.26522 14 6 14C5.73478 14 5.48043 14.1054 5.29289 14.2929C5.10536 14.4804 5 14.7348 5 15V17C5 24.18 10.82 30 18 30C25.18 30 31 24.18 31 17V15C31 14.7348 30.8946 14.4804 30.7071 14.2929C30.5196 14.1054 30.2652 14 30 14Z" fill="#66757F"/>
</svg>
