<svg height='100px' width='100px'  fill="#000000" xmlns="http://www.w3.org/2000/svg" data-name="Layer 1" viewBox="0 0 100 100" x="0px" y="0px"><title>Artboard 5</title><path d="M41.6,49.88A8.52,8.52,0,1,0,58.51,48.4L93,42.32a4.43,4.43,0,0,0,3.52-5.54A48.14,48.14,0,0,0,63.22,3.53,4.43,4.43,0,0,0,57.68,7L51.6,41.49a8.48,8.48,0,0,0-10,8.39Z"></path><path d="M50.12,96.83a46.87,46.87,0,0,0,46.69-42.1,4.34,4.34,0,0,0-1.11-3.4,4.41,4.41,0,0,0-3.27-1.46,4.49,4.49,0,0,0-.78.07,4.43,4.43,0,0,0-3.62,4A38.16,38.16,0,1,1,46.1,12a4.41,4.41,0,0,0-.37-8.8l-.46,0a46.95,46.95,0,0,0,4.86,93.64Z"></path><path d="M43.74,31.62a4.33,4.33,0,0,0,2.8-3.36,4.42,4.42,0,0,0-1-3.62,4.35,4.35,0,0,0-3.33-1.58,4.3,4.3,0,0,0-1.42.24A28.18,28.18,0,1,0,76.7,59.18a4.25,4.25,0,0,0-.56-3.9,4.45,4.45,0,0,0-3.61-1.88,4.53,4.53,0,0,0-.78.07,4.33,4.33,0,0,0-3.36,2.8A19.35,19.35,0,1,1,43.74,31.62Z"></path></svg>