<svg height='100px' width='100px'  fill="#000000" xmlns="http://www.w3.org/2000/svg" data-name="Layer 1" viewBox="0 0 512 512" x="0px" y="0px"><title>microphone</title><rect x="156.61" width="198.78" height="344.56" rx="99.39" ry="99.39"></rect><path d="M426.35,240.47a16.57,16.57,0,1,0-33.13,0c0,75.66-61.56,137.22-137.22,137.22S118.78,316.13,118.78,240.47a16.57,16.57,0,1,0-33.13,0c0,88.34,67.6,161.19,153.78,169.54v68.86H173.17a16.57,16.57,0,0,0,0,33.13H338.83a16.57,16.57,0,0,0,0-33.13H272.57V410C358.75,401.65,426.35,328.81,426.35,240.47Z"></path></svg>