<svg height='100px' width='100px'  fill="#000000" xmlns="http://www.w3.org/2000/svg" xmlns:xlink="http://www.w3.org/1999/xlink" version="1.1" x="0px" y="0px" viewBox="10 -10 532 532" style="enable-background:new 10 -10 532 532;" xml:space="preserve"><g><g><g><path d="M228.4,208.4c-26.2,26.3-26.2,69,0,95.3c26.3,26.2,69,26.2,95.3,0c26.2-26.3,26.2-69,0-95.3     C297.4,182.1,254.6,182.1,228.4,208.4z"></path><path d="M127.1,404.9C87.3,365.1,65.5,312.2,65.5,256c0-56.2,21.9-109.1,61.6-148.9c2.2-2.2,3.5-5.2,3.5-8.3     c0-3.1-1.2-6.1-3.5-8.3c-2.2-2.2-5.2-3.5-8.3-3.5c-3.2,0-6.1,1.2-8.3,3.4c-44.2,44.2-68.6,103-68.6,165.6     c0,62.5,24.3,121.3,68.6,165.5c2.2,2.2,5.2,3.4,8.3,3.4s6.1-1.2,8.3-3.4c2.2-2.2,3.5-5.2,3.5-8.3     C130.6,410.1,129.3,407.1,127.1,404.9L127.1,404.9z"></path><path d="M390.6,141.4c-4.6-4.6-12.1-4.6-16.7,0c-4.6,4.6-4.6,12.1,0,16.7c26.2,26.1,40.6,60.9,40.6,97.9     c0,37-14.4,71.7-40.6,97.9c-4.6,4.6-4.6,12.1,0,16.7c4.6,4.6,12.1,4.6,16.7,0C421.2,340,438,299.3,438,256     C438,212.7,421.2,172,390.6,141.4z"></path><path d="M137.6,256c0-37,14.4-71.8,40.6-97.9c4.6-4.6,4.6-12.1,0-16.7c-2.3-2.3-5.3-3.4-8.4-3.4c-3,0-6,1.1-8.3,3.4     C130.8,172,114,212.7,114,256c0,43.3,16.8,84,47.4,114.6c4.6,4.6,12.1,4.6,16.7,0c4.6-4.6,4.6-12.1,0-16.7     C152,327.7,137.6,293,137.6,256z"></path><path d="M441.6,90.4c-4.6-4.6-12.1-4.6-16.7,0c-4.6,4.6-4.6,12.1,0,16.7c39.8,39.8,61.7,92.7,61.7,148.9     c0,56.2-21.9,109.1-61.7,148.9c-4.6,4.6-4.6,12.1,0,16.7c4.6,4.6,12.1,4.6,16.7,0c44.2-44.2,68.6-103,68.6-165.5     C510.1,193.5,485.8,134.6,441.6,90.4z"></path></g></g></g></svg>