<?xml version="1.0" encoding="UTF-8"?>
<svg width="1200pt" height="1200pt" version="1.1" viewBox="0 0 1200 1200" xmlns="http://www.w3.org/2000/svg">
 <g fill="#fff">
  <path d="m697.8 576h3.4805c15.148 0.023438 29.352-7.3594 38.031-19.773 8.6836-12.41 10.746-28.285 5.5273-42.508-14.004-37.926-40.371-70.035-74.852-91.148-34.477-21.117-75.062-30.008-115.21-25.246-40.148 4.7656-77.523 22.906-106.11 51.5-28.582 28.598-46.703 65.984-51.445 106.14-4.7422 40.148 4.1719 80.73 25.305 115.2 21.133 34.469 53.254 60.816 91.188 74.805 14.242 5.2266 30.141 3.1484 42.559-5.5625 12.418-8.7109 19.785-22.949 19.723-38.117v-3.4805c-0.22266-9.5664-3.3047-18.852-8.8398-26.656-5.5391-7.8047-13.285-13.773-22.238-17.145-15.805-6.293-29.324-17.23-38.773-31.375-9.4492-14.141-14.383-30.816-14.148-47.824 0.57812-21.777 9.4844-42.508 24.891-57.91 15.402-15.406 36.133-24.312 57.91-24.891 17.012-0.26953 33.707 4.6367 47.871 14.066 14.164 9.4258 25.129 22.934 31.449 38.734 3.3438 8.9609 9.2891 16.715 17.07 22.277 7.7812 5.5586 17.047 8.6641 26.609 8.9219z"/>
  <path d="m837 536.28c1.5859 11.004 7.0742 21.074 15.469 28.367 8.3945 7.293 19.133 11.32 30.25 11.352h3.4805c13.27 0.070312 25.922-5.582 34.723-15.512 8.8008-9.9258 12.898-23.164 11.238-36.328-12.863-88.566-58.25-169.17-127.32-226.08s-156.86-86.066-246.25-81.766-173.98 41.742-237.26 105.03c-63.285 63.281-100.73 147.87-105.03 237.26s24.852 177.18 81.766 246.25 137.52 114.45 226.08 127.32c13.141 1.6562 26.363-2.4258 36.285-11.199 9.9219-8.7734 15.59-21.395 15.555-34.641v-3.4805c-0.03125-11.121-4.0586-21.855-11.352-30.25-7.293-8.3945-17.363-13.887-28.367-15.469-64.668-9.8477-123.38-43.355-164.75-94.023-41.371-50.672-62.457-114.89-59.172-180.23 3.2852-65.332 30.707-127.12 76.953-173.38 46.246-46.262 108.02-73.711 173.35-77.02 65.332-3.3125 129.57 17.75 180.25 59.098 50.688 41.352 84.215 100.05 94.09 164.71z"/>
  <path d="m823.92 756h88.078c13.586 0.066406 26.559-5.6289 35.711-15.672 9.1484-10.039 13.613-23.488 12.289-37.008-1.5117-12.129-7.4609-23.27-16.703-31.27-9.2383-8-21.117-12.293-33.336-12.051h-153.96c-25.461 0-49.879 10.113-67.883 28.117-18.004 18.004-28.117 42.422-28.117 67.883v153.96c-0.24219 12.219 4.0508 24.098 12.051 33.336 8 9.2422 19.141 15.191 31.27 16.703 13.52 1.3242 26.969-3.1406 37.008-12.289 10.043-9.1523 15.738-22.125 15.672-35.711v-88.078l146.04 146.04c12.133 12.133 29.816 16.871 46.391 12.43 16.574-4.4414 29.52-17.387 33.961-33.961 4.4414-16.574-0.29688-34.258-12.43-46.391z"/>
 </g>
</svg>
