<?xml version="1.0" encoding="UTF-8"?>
<svg width="1200pt" height="1200pt" version="1.1" viewBox="0 0 1200 1200" xmlns="http://www.w3.org/2000/svg">
 <path d="m563.62 1043.3v80.586c0 20.699 16.801 37.5 37.5 37.5s37.5-16.801 37.5-37.5v-80.586c0-20.699-16.801-37.5-37.5-37.5s-37.5 16.801-37.5 37.5zm331.91-8.3633-40.273-69.789c-10.352-17.926-33.336-24.074-51.262-13.727-17.887 10.352-24.039 33.301-13.727 51.227l40.312 69.789c10.352 17.926 33.301 24.074 51.227 13.727 17.926-10.352 24.074-33.301 13.727-51.227zm-548.51-69.789-40.312 69.789c-10.352 17.926-4.1992 40.875 13.727 51.227 17.926 10.352 40.875 4.1992 51.227-13.727l40.312-69.789c10.352-17.926 4.1992-40.875-13.727-51.227-17.926-10.352-40.875-4.1992-51.227 13.727zm255-610.61c-79.125-75.637-200.85-66.488-264.71-2.6641-91.988 91.988-99.602 222.64-2.5117 341.29 71.289 87.113 154.35 180.3 246.75 240.49 12.449 8.1367 28.5 8.1367 40.949 0 92.926-60.562 165.94-129.94 247.99-242.06 90.113-123.19 88.801-247.16-3.75-339.71-63.863-63.824-185.59-72.977-264.71 2.6641zm-403.54 434.62-69.789 40.312c-17.926 10.352-24.074 33.301-13.727 51.227 10.352 17.926 33.301 24.074 51.227 13.727l69.789-40.312c17.926-10.352 24.074-33.301 13.727-51.227-10.352-17.926-33.301-24.074-51.227-13.727zm875.06 40.312-69.789-40.312c-17.926-10.352-40.875-4.1992-51.227 13.727-10.352 17.926-4.1992 40.875 13.727 51.227l69.789 40.312c17.926 10.352 40.875 4.1992 51.227-13.727 10.352-17.926 4.1992-40.875-13.727-51.227zm51.449-266.96h-80.586c-20.699 0-37.5 16.801-37.5 37.5s16.801 37.5 37.5 37.5h80.586c20.699 0 37.5-16.801 37.5-37.5s-16.801-37.5-37.5-37.5zm-967.12 0h-80.625c-20.699 0-37.5 16.801-37.5 37.5s16.801 37.5 37.5 37.5h80.625c20.664 0 37.5-16.801 37.5-37.5s-16.836-37.5-37.5-37.5zm78.113-216.6-69.789-40.312c-17.926-10.352-40.875-4.1992-51.227 13.727-10.352 17.926-4.1992 40.875 13.727 51.227l69.789 40.312c17.926 10.352 40.875 4.1992 51.227-13.727 10.352-17.926 4.1992-40.875-13.727-51.227zm800.06-40.312-69.789 40.312c-17.926 10.352-24.074 33.301-13.727 51.227 10.352 17.926 33.301 24.074 51.227 13.727l69.789-40.312c17.926-10.352 24.074-33.301 13.727-51.227-10.352-17.926-33.301-24.074-51.227-13.727zm-205.46-178.01-40.312 69.789c-10.312 17.926-4.1641 40.875 13.727 51.227 17.926 10.352 40.914 4.1992 51.262-13.727l40.273-69.789c10.352-17.926 4.1992-40.875-13.727-51.227-17.926-10.352-40.875-4.1992-51.227 13.727zm-418.61 69.789-40.312-69.789c-10.352-17.926-33.301-24.074-51.227-13.727-17.926 10.352-24.074 33.301-13.727 51.227l40.312 69.789c10.352 17.926 33.301 24.074 51.227 13.727 17.926-10.352 24.074-33.301 13.727-51.227zm151.65-121.24v80.586c0 20.699 16.801 37.5 37.5 37.5s37.5-16.801 37.5-37.5v-80.586c0-20.699-16.801-37.5-37.5-37.5s-37.5 16.801-37.5 37.5z" fill="#fff" fill-rule="evenodd"/>
</svg>
