<?xml version="1.0" encoding="UTF-8"?>
<svg width="1200pt" height="1200pt" version="1.1" viewBox="0 0 1200 1200" xmlns="http://www.w3.org/2000/svg">
 <path d="m950 300c0 89.633-33.695 171.4-89.105 233.32-23.293 26.035-50.43 48.559-80.516 66.684 30.086 18.125 57.223 40.648 80.516 66.684 55.41 61.922 89.105 143.68 89.105 233.32v200h-700v-200c0-89.637 33.695-171.39 89.105-233.32 23.297-26.035 50.43-48.559 80.516-66.684-30.086-18.125-57.219-40.648-80.516-66.684-55.41-61.918-89.105-143.68-89.105-233.32v-200h700zm-600 600c0-90.82 48.367-170.45 121.23-214.34l103.77-62.531v231.88zm275-45 225 45c0-90.82-48.371-170.45-121.23-214.34l-103.77-62.531zm202.16-450.43-227.16 45.434-227.16-45.434c-14.672-31.832-22.836-67.254-22.836-104.57v-100h500v100c0 37.312-8.1641 72.734-22.836 104.57z" fill="#fff" fill-rule="evenodd"/>
</svg>
