<?xml version="1.0" encoding="UTF-8"?>
<svg width="1200pt" height="1200pt" version="1.1" viewBox="0 0 1200 1200" xmlns="http://www.w3.org/2000/svg">
 <g fill="#fff">
  <path d="m203.88 1029.1h99.031v132.04h-99.031z"/>
  <path d="m809.06 732.04h-20.844l-188.22 150.57-188.22-150.57h-20.844c-103.14 0-187.06 83.914-187.06 187.06v44.012h99.031v-66.02h66.02v264.08l462.14 0.003906v-264.08h66.02v66.02h99.031v-44.012c0-103.14-83.914-187.06-187.06-187.06zm-176.05 297.09h-66.02v-66.02h66.02z"/>
  <path d="m897.09 1029.1h99.031v132.04h-99.031z"/>
  <path d="m600 710.03c-28.809 0-56.547-4.6562-82.527-13.223v35.227h-0.007812l82.535 66.031 82.535-66.027h-0.011718v-35.227c-25.977 8.5664-53.715 13.219-82.523 13.219z"/>
  <path d="m401.94 445.95c0 109.21 88.848 198.06 198.06 198.06 63.664 0 120.4-30.203 156.66-77.023l-156.66 0.003907v-66.02h190.28c5.0586-17.477 7.7812-35.934 7.7812-55.016v-77.027c0-109.21-88.848-198.06-198.06-198.06s-198.06 88.848-198.06 198.06h-66.02c0-145.61 118.47-264.08 264.08-264.08 145.61 0 264.08 118.46 264.08 264.08h66.02c0-182.02-148.08-330.1-330.1-330.1s-330.1 148.08-330.1 330.1v66.02h132.04z"/>
  <path d="m930.1 566.99v-132.04h-66.02v66.02h-73.801c-7.0156 24.23-18.547 46.559-33.617 66.02z"/>
 </g>
</svg>
