<?xml version="1.0" encoding="UTF-8"?>
<svg width="1200pt" height="1200pt" version="1.1" viewBox="0 0 1200 1200" xmlns="http://www.w3.org/2000/svg">
 <g fill="#fff">
  <path d="m1068.5 713.77h-643.79c-3.3164-0.003906-6.4961 1.3125-8.8398 3.6562s-3.6562 5.5234-3.6562 8.8359v136.7c0 3.3125 1.3125 6.4922 3.6562 8.8359s5.5234 3.6562 8.8398 3.6562h115.38c0.035156-40.41 21.617-77.734 56.617-97.93 35.004-20.195 78.117-20.195 113.12 0 35 20.195 56.582 57.52 56.617 97.93h14.934c0.039063-40.41 21.617-77.734 56.621-97.93 35-20.195 78.117-20.195 113.12 0 35.004 20.195 56.582 57.52 56.621 97.93h60.762c3.3164 0 6.4961-1.3125 8.8398-3.6562s3.6562-5.5234 3.6562-8.8359v-136.7c0-3.3125-1.3125-6.4922-3.6562-8.8359s-5.5234-3.6602-8.8398-3.6562z"/>
  <path d="m376.89 416.86h-184.24c-4.2812-0.007812-8.3008 2.0703-10.773 5.5664l-130.89 185.08c-5.6289 5.7148-10.285 12.312-13.789 19.527-4.7422 9.8594-7.1953 20.66-7.1836 31.602v22.297h11.09c11.023-0.015625 21.605 4.3516 29.406 12.141 7.8047 7.793 12.188 18.367 12.188 29.391 0 11.027-4.3828 21.602-12.188 29.395-7.8008 7.7891-18.383 12.156-29.406 12.141h-11.09v98.207c-0.007813 3.5078 1.3789 6.875 3.8594 9.3555 2.4766 2.4844 5.8438 3.8789 9.3516 3.875h32.348c-0.078125-30.062 11.812-58.926 33.047-80.215 21.23-21.285 50.062-33.25 80.129-33.25s58.895 11.965 80.129 33.25c21.234 21.289 33.121 50.152 33.043 80.215h88.203v-445.37c0.003906-3.5117-1.3906-6.875-3.875-9.3516-2.4844-2.4805-5.8516-3.8672-9.3594-3.8594zm-39.676 173.03h-242.55l97.023-147h145.52z"/>
  <path d="m188.75 794.62c-21.441 0.003906-42 8.5234-57.156 23.688-15.16 15.16-23.672 35.723-23.668 57.164 0 21.438 8.5234 41.996 23.684 57.156 15.164 15.156 35.727 23.672 57.164 23.668 21.441-0.003907 42-8.5234 57.156-23.688 15.16-15.16 23.672-35.723 23.668-57.164 0-21.438-8.5156-42-23.68-57.16-15.164-15.156-35.727-23.672-57.168-23.664zm0 119.05v0.003906c-10.137 0-19.859-4.0234-27.027-11.188-7.1719-7.1641-11.199-16.887-11.203-27.02-0.003906-10.137 4.0195-19.859 11.184-27.031 7.168-7.168 16.887-11.199 27.023-11.203 10.137 0 19.859 4.0234 27.027 11.188 7.168 7.1641 11.199 16.883 11.203 27.02 0.003907 10.137-4.0156 19.863-11.184 27.031-7.1641 7.1719-16.887 11.199-27.023 11.203z"/>
  <path d="m894.51 794.62c-21.441 0.003906-42 8.5234-57.16 23.688-15.156 15.16-23.668 35.723-23.668 57.164 0.003906 21.438 8.5234 41.996 23.688 57.156 15.16 15.156 35.723 23.672 57.164 23.668 21.438-0.003907 42-8.5234 57.156-23.688 15.156-15.16 23.672-35.723 23.668-57.164-0.003907-21.438-8.5234-42-23.684-57.156-15.164-15.156-35.727-23.672-57.164-23.668zm0 119.05v0.003906c-10.137-0.003906-19.855-4.0352-27.02-11.203-7.1641-7.168-11.191-16.887-11.188-27.023 0-10.133 4.0273-19.852 11.191-27.02 7.168-7.1641 16.887-11.191 27.023-11.195 10.133 0 19.855 4.0234 27.023 11.191 7.168 7.1641 11.195 16.883 11.199 27.016 0 10.141-4.0273 19.867-11.195 27.039-7.1719 7.168-16.898 11.195-27.035 11.195z"/>
  <path d="m653.21 794.62c-21.438 0.003906-42 8.5234-57.156 23.688-15.156 15.16-23.672 35.723-23.668 57.164 0.003906 21.438 8.5234 41.996 23.684 57.156 15.164 15.156 35.727 23.672 57.164 23.668 21.441-0.003907 42-8.5234 57.16-23.688 15.156-15.16 23.668-35.723 23.668-57.164 0-21.438-8.5195-42.004-23.68-57.16-15.164-15.16-35.73-23.672-57.172-23.664zm0 119.05v0.003906c-10.133-0.003906-19.852-4.0352-27.02-11.203-7.1641-7.168-11.188-16.887-11.188-27.023 0.003906-10.133 4.0273-19.852 11.195-27.02 7.168-7.1641 16.887-11.191 27.02-11.195 10.137 0 19.855 4.0234 27.023 11.191 7.168 7.1641 11.199 16.883 11.199 27.016 0.003906 10.141-4.0234 19.867-11.195 27.039-7.168 7.168-16.895 11.195-27.035 11.195z"/>
  <path d="m1164.8 628.26-1.0469-0.89844c-2.6758-2.2578-6.0586-3.5117-9.5586-3.543-3.5039-0.035156-6.9102 1.1602-9.625 3.3672-16.383 12.977-38.035 17.215-58.098 11.375-20.066-5.8398-36.059-21.035-42.922-40.773-6.8633-19.738-3.7383-41.578 8.375-58.605 12.117-17.023 31.727-27.129 52.625-27.113h0.32422c0.98438 0.007813 1.9336-0.375 2.6328-1.0703 0.70312-0.69141 1.1016-1.6328 1.1055-2.6172v-209.21l-35.707-55.465h-0.99609l-9.9922 6.4297-303.27 195.32h-315.01l-0.003907 235.48h370.04v-187.93l248.24-159.87v157.88c-24.293 12.09-42.305 33.934-49.547 60.086-7.2383 26.152-3.0273 54.152 11.586 77.016 14.617 22.863 38.258 38.441 65.031 42.852 26.777 4.4102 54.164-2.7656 75.34-19.734 3.4883-2.7578 5.5625-6.9297 5.6562-11.375 0.089843-4.4453-1.8086-8.7031-5.1836-11.598z"/>
 </g>
</svg>
