<?xml version="1.0" encoding="UTF-8"?>
<svg width="1200pt" height="1200pt" version="1.1" viewBox="0 0 1200 1200" xmlns="http://www.w3.org/2000/svg">
 <g fill="#fff">
  <path d="m843.75 375c4.9727 0 9.7422-1.9766 13.258-5.4922 3.5156-3.5156 5.4922-8.2852 5.4922-13.258v-125.04c12.25 2.0664 24.648 3.1211 37.07 3.1523 18.992 0.19531 37.883-2.8086 55.875-8.8906 47.23-16.625 107.01 0.015626 108.11 0.32813 5.3008 1.5312 11.012 0.64844 15.602-2.4141 4.5938-3.0625 7.6016-7.9922 8.2305-13.477 0.625-5.4844-1.1992-10.965-4.9805-14.984l-51.172-54.305 51.168-54.305c4.5117-4.7891 6.1797-11.59 4.4062-17.922-1.7773-6.332-6.7422-11.273-13.082-13.02-2.8398-0.77734-70.223-18.887-130.19 0.21484-39.012 12.43-94.984-0.26562-95.543-0.39844h-0.003907c-5.5703-1.2852-11.422 0.035157-15.898 3.5938-4.4766 3.5547-7.0859 8.957-7.0898 14.672v282.79c0 4.9727 1.9766 9.7422 5.4922 13.258 3.5156 3.5156 8.2852 5.4922 13.258 5.4922zm111.15-283.67c24.836-6.9453 50.816-8.8008 76.383-5.4531l-39.469 41.891c-3.2773 3.4805-5.1016 8.0781-5.1016 12.859s1.8242 9.3789 5.1016 12.859l25.898 27.484h0.003906c-25.266-1.7852-50.637 1.3164-74.727 9.1328-26.133 7.8594-53.848 8.8828-80.492 2.9727v-97.328c30.773 4.9414 62.242 3.4375 92.402-4.418z"/>
  <path d="m486.79 413.43c-1.7812-6.25-6.668-11.133-12.918-12.91-2.1953-0.62109-54.199-15.043-100.62 0.23047-23.098 7.5859-57.566 2.2656-68.867-0.41797h0.003907c-5.5859-1.3438-11.48-0.054688-15.992 3.5-4.5117 3.5547-7.1445 8.9844-7.1445 14.73v218.93c0 6.6992 3.5742 12.887 9.375 16.238 5.8008 3.3477 12.949 3.3477 18.75 0 5.8008-3.3516 9.375-9.5391 9.375-16.238v-91.832c7.6719 1.0977 15.414 1.6602 23.164 1.6836 14.832 0.15625 29.582-2.2656 43.586-7.1641 33.949-12.328 77.492 0.23047 77.922 0.35156v0.003907c5.2734 1.5625 10.969 0.73438 15.574-2.2734 4.6094-3.0039 7.6641-7.8789 8.3594-13.336 0.69141-5.457-1.0469-10.945-4.7539-15.008l-35.926-39.363 35.926-39.359c4.3789-4.7969 5.9609-11.52 4.1836-17.77zm-79.348 69.77 12.883 14.109v-0.003906c-16.195-0.21875-32.305 2.3633-47.617 7.6328-17.457 5.4961-36.023 6.4648-53.953 2.8086v-67.074c22.133 3.1211 44.668 1.6562 66.211-4.3008 15.062-4.4883 30.836-6.1094 46.5-4.7734l-24.023 26.324c-3.1484 3.4531-4.8945 7.9609-4.8945 12.637s1.7461 9.1836 4.8945 12.641z"/>
  <path d="m24.406 233.17c-1.7305 19.922-3.6797 42.5 6.3281 62.52 2.0117 3.875 4.2344 7.6406 6.6562 11.27 2.6953 3.4609 4.7031 7.4023 5.9141 11.613-1.2188 3.168-2.9219 6.1289-5.043 8.7773-3.0039 4.1172-5.6367 8.4922-7.8672 13.074-4.7617 10.77-5.7695 22.828-2.8594 34.238 2.9102 11.41 9.5703 21.512 18.91 28.684 2.8555 2.0703 5.8398 3.9531 8.9336 5.6445 2.043 1.0586 3.9844 2.3047 5.7969 3.7227 5.7031 5.2734 0.78906 21.23-3.543 35.309-1.1992 3.8984-2.3789 7.7305-3.3867 11.43-10.555 38.543-0.64062 78.465 7.332 110.56 1.7539 8.6836 4.9102 17.02 9.3477 24.684 2.832 4.3008 6.0742 8.3203 9.6758 12.004 1.707 1.7461 3.3086 3.5938 4.8008 5.5273 3.4961 5.7188 6.1289 11.918 7.8164 18.402 3.0156 11.59 8.3281 22.453 15.621 31.953 12.406 12.723 28.281 21.512 45.645 25.277 10.203 2.1367 19.758 6.6406 27.898 13.148 8.2852 8.8164 9.1172 25.148 9.9961 42.445 1.207 23.621 2.7109 53.008 27.227 70.387l0.003906-0.003906c3.2617 2.2344 6.6719 4.2461 10.207 6.0156 2.5469 1.1523 4.9336 2.625 7.1055 4.3828 2.3242 2.6094 1.5 11.25 0.77734 18.887v0.003906c-3.2852 15.594-0.41797 31.852 8 45.383 7.1289 8.5742 16.441 15.062 26.953 18.785l1.125 0.50391h0.003906c23.273 10.293 45.004 23.777 64.562 40.062 8.2344 5.5273 14.426 13.609 17.621 23 0.30859 4.3125 0.16406 8.6445-0.42969 12.926-3.2539 14.883 0.26172 30.441 9.6055 42.473 6.7383 6.8867 15.402 11.57 24.855 13.438 10.945 2.332 22.062 3.7422 33.242 4.2109 18.402 1.2734 34.297 2.3789 42.336 11.82 0.99609 1.1719 1.8945 2.4531 2.8125 3.7266h-0.003907c3.4336 5.2461 7.7656 9.8438 12.801 13.578 23.016 16.039 46.773 0.57812 62.492-9.6602 6.6367-4.332 19.035-12.379 22.121-10.574 2.2852 2.2734 4.2266 4.8711 5.7578 7.7109l1.875 2.9492v-0.003907c2.4023 3.6367 5.0117 7.1289 7.8203 10.461v-55.262c-21.883-10.219-42.66 3.2734-58.043 13.301v-0.003906c-6.1328 4.7461-13.129 8.2461-20.602 10.312-1.4141-1.457-2.6836-3.0391-3.7969-4.7344-1.5117-2.0977-3.0391-4.1836-4.6953-6.125-18.246-21.434-44.824-23.273-68.27-24.902h-0.003906c-9.0898-0.36719-18.137-1.457-27.055-3.2617-2.1016-0.3125-4.1172-1.0664-5.9062-2.2148-0.80469-4.5352-0.80469-9.1758-0.007812-13.715 0.93359-7.1953 1.0117-14.473 0.23047-21.688-4.0781-18.824-15.051-35.441-30.762-46.582-22.234-18.508-46.934-33.836-73.391-45.539l-1.1797-0.52344v0.003906c-4.375-1.5-8.4297-3.8125-11.949-6.8125-1.9297-6.3242-2.2031-13.035-0.79687-19.492 1.3086-13.742 3.1055-32.555-10.09-47.379-5.0547-5.2773-11.047-9.5664-17.676-12.645-2.0625-1-4.0547-2.1406-5.9609-3.4141-9.0273-6.3984-10.355-20.023-11.461-41.703-1.1367-22.203-2.418-47.359-20.113-66.203l-0.003906 0.003906c-12.363-11.52-27.562-19.551-44.047-23.273-10.43-2.0195-20.148-6.7383-28.188-13.688-4.0039-5.8633-6.9141-12.402-8.5859-19.301-2.8008-10.309-7.2617-20.094-13.211-28.965-2.3516-3.1172-4.8828-6.0898-7.582-8.9062-1.9961-2.0117-3.8203-4.1875-5.457-6.5039-2.207-4.332-3.7812-8.9609-4.6758-13.742-7.2773-29.297-15.527-62.508-7.5625-91.609 0.91406-3.332 1.9766-6.7852 3.0664-10.297 6.8281-22.188 16.188-52.578-6.8281-73.871l-0.003907 0.007812c-3.8711-3.4141-8.1289-6.3555-12.688-8.7734-1.75-0.93359-3.4414-1.9727-5.0625-3.1133-2.4531-2.0352-4.2031-4.793-4.9961-7.8828-0.79688-3.0898-0.59766-6.3477 0.56641-9.3203 1.3438-2.5898 2.8984-5.0703 4.6406-7.4141 6.207-7.7188 10.199-16.984 11.551-26.797 0.26172-12.738-3.8828-25.18-11.727-35.219-1.6875-2.4961-3.2383-5.082-4.6523-7.7422-5.2812-10.566-3.9375-26.09-2.5195-42.527 1.9922-22.941 4.2422-48.953-11.762-70.16-5.8281-7.7773-9.7617-16.805-11.488-26.367 6.4648 2.1055 13.301 2.8164 20.059 2.0898 18.953-2.6133 27.449-18.191 33.07-28.5 1.8672-4.0469 4.3477-7.7852 7.3516-11.082 4.4297-3.4414 14.949 1.4375 29.344 8.7344 19.281 9.7734 43.27 21.941 67.043 8.6523 3.2656-1.8281 5.9102-4.5938 7.5938-7.9375 1.6797-3.3438 2.3242-7.1133 1.8438-10.824-1.9297-9.3906-1.2305-19.129 2.0234-28.145 2.3711-4.7461 7.7656-7.9453 10.344-7.1133 2.0273 0.88672 3.957 1.9766 5.7695 3.2422 4.4844 3.082 9.3633 5.5469 14.5 7.3359 10.914 2.8242 22.395 2.6016 33.188-0.64062l3.5156-0.76172c27.027-5.5977 55.684-1.0859 85.117 4.4453 27.641 5.1992 56.168 11.723 74.645 29.066v0.003906c11.328 12.164 20.602 26.098 27.445 41.246 2.3984 4.5586 4.7969 9.1133 7.2891 13.59v0.003906c9.8398 17.68 21.289 34.418 34.195 50 11.918 15.773 27.5 28.41 45.391 36.812 15.508 6.6602 32.949 7.2656 48.883 1.6992 19.664 25.879 57.75 68.285 97.41 70.547 24.949 1.4688 47.707-8.9141 69.734-18.914 7.9609-3.6172 15.719-7.0898 23.238-9.8789v-39.414c-13.285 4.0352-26.238 9.1016-38.734 15.148-18.715 8.4922-36.43 16.488-52.094 15.625-22.176-1.2617-56.387-35.34-78.727-68.348v-0.003906c-3.0664-4.5273-7.9492-7.4883-13.379-8.1172-5.4297-0.625-10.859 1.1445-14.875 4.8516-3.9258 2.7344-8.5039 4.3711-13.273 4.75-4.7656 0.37891-9.5469-0.51953-13.855-2.5977-12.191-6.1406-22.762-15.078-30.844-26.082-11.434-13.809-21.574-28.641-30.293-44.309-2.3516-4.2188-4.6055-8.5195-6.875-12.82-8.668-18.906-20.496-36.199-34.973-51.133-25.828-24.258-60.297-32.359-93.387-38.582-31.961-6.0117-65.992-11.277-99.637-4.3125l-3.9844 0.85938 0.003907 0.003906c-4.4375 1.3828-9.1016 1.9023-13.734 1.5312-2.0195-0.89062-3.9492-1.9766-5.7578-3.2461-4.5391-3.1172-9.4766-5.6016-14.684-7.3867-10.785-2.8008-22.211-1.7227-32.281 3.0469-10.07 4.7695-18.145 12.926-22.809 23.047-4.6289 9.6484-7 20.23-6.9297 30.934-7.2852-2.4922-14.34-5.6094-21.086-9.3203-19.363-9.8125-45.867-23.266-69.422-4.8086-7.2305 6.2734-13.074 13.988-17.16 22.645-1.6133 3.2656-3.5352 6.3672-5.7383 9.2695-2.6172-0.49609-5.1992-1.1797-7.7188-2.0469-8.8438-2.7734-27.219-8.543-40.32 6.4961-2.582 2.9648-4.1641 6.6641-4.5234 10.578-2.168 24.641 4.8281 49.219 19.648 69.023 7.3438 9.7227 5.8867 26.539 4.3477 44.344z"/>
  <path d="m1030.8 322.71c-13.461 2.2539-27.133 3-40.758 2.2344-28.41-2.8477-53.742-19.98-80.559-38.121-3.1133-2.1055-6.3008-4.2383-9.4844-6.3594v45.168c25.996 17.262 53.367 33.324 86.289 36.629v-0.007813c16.445 1.1133 32.961 0.32812 49.227-2.3438 9.8438-1.25 19.152-2.4258 28.281-2.6602 17.277-0.52734 39.918 4.4102 47.379 19.52 2.5234 6.3086 4.1094 12.949 4.7148 19.711 0.72656 5.5625 1.7344 11.086 3.0195 16.547 1.7031 6.7695 4.0547 13.32 6.3359 19.656 5.4922 15.242 8.7969 25.695 4.8789 31.801h0.003906c-1.7266 2.2656-3.6758 4.3516-5.8164 6.2305-4.6523 4.1328-8.7227 8.8789-12.094 14.109-5.8398 10.918-8.4414 23.277-7.4961 35.625 0.53125 44.113 8.7461 87.797 24.27 129.09l1.7578 4.6328c5.9883 15.738 11.656 30.605 8.1289 42.535-0.87109 2.6641-1.9062 5.2695-3.0938 7.8086-2.7461 5.7148-4.7852 11.742-6.0703 17.953-4.1641 23.293 8.5586 41.977 18.777 56.992 6.4883 7.9297 11.203 17.164 13.816 27.07 1.4297 11.195-5.9062 23.117-14.391 36.922v0.003906c-5.6914 8.7227-10.645 17.902-14.816 27.445-4.1992 11.246-7.2422 22.891-9.082 34.754-1.2188 13.168-5.5234 25.859-12.57 37.051-9.7344 9.7109-21.883 16.652-35.191 20.105-35.539 13.637-72.695 22.613-110.54 26.707-12.234 1.3086-23.941 5.6836-34.039 12.715l-0.019532 0.007813v0.003906c-1.6836 1.0039-3.4258 1.9023-5.2188 2.6914l-3.1602 1.5195c-14.059 6.8945-25.16 18.625-31.27 33.043-6.1133 14.414-6.8281 30.551-2.0117 45.449 4.8203 14.898 14.844 27.562 28.238 35.672-0.99609 0.88672-2.207 1.9062-3.6914 3.0859-3.0156 1.8906-6.4844 2.9414-10.043 3.043s-7.0781-0.75-10.199-2.4648c-2.8125-1.3906-5.5859-3.1758-8.3867-4.9258-10.941-6.875-25.938-16.305-44.129-10.383h0.003907c-8.1875 3.0781-15.457 8.1875-21.121 14.852-1.1367 1.1719-2.2539 2.3516-3.4414 3.4531l-0.003907-0.003906c-7.4219 5.7148-16.879 8.1055-26.125 6.6055-9.2461-1.5-17.461-6.7578-22.699-14.523-1.5-2.7734-2.8125-5.8398-4.1484-8.918-5.4844-12.617-13.77-31.688-34.953-35.523-2.1953-0.39062-4.418-0.58594-6.6484-0.58594-6.3008 0.20703-12.535 1.3906-18.473 3.5078l-2.1406 0.66016h-0.003906c-2.7227 0.79688-5.4883 1.4492-8.2852 1.9492v16.426c0.007812 7.5039-1.4883 14.934-4.4062 21.852 7.957-0.61328 15.824-2.0586 23.477-4.3086l2.5195-0.76953h-0.003906c2.3125-0.80859 4.6758-1.4492 7.0781-1.9141 3.207 4.1211 5.7266 8.7344 7.4531 13.66 1.7773 4.082 3.5625 8.1406 5.5586 11.82 10.457 18.199 28.684 30.602 49.457 33.652 4.0273 0.66406 8.1016 0.99609 12.184 1 16.824 0.23437 33.121-5.8633 45.656-17.086 1.6758-1.5547 3.2969-3.2227 4.918-4.8984 1.6992-1.9375 3.5977-3.6914 5.668-5.2266 4.4805 1.6133 8.7383 3.7852 12.68 6.4648 3.7617 2.4492 7.6484 4.7031 11.645 6.7539 9.5 4.8867 20.18 7.0234 30.828 6.168 10.648-0.85156 20.848-4.6641 29.449-11 11.289-7.25 19.133-18.789 21.719-31.953 0.78906-8.8008-2.125-17.535-8.0391-24.105-2.1875-2.5859-5.0352-4.5312-8.2383-5.6289-7.0195-2.3398-12.812-7.3828-16.102-14.008-3.2852-6.625-3.793-14.289-1.4102-21.293 2.3867-7.0039 7.4648-12.762 14.113-16.008l2.4922-1.1992c3.4688-1.543 6.8164-3.3477 10.016-5.4023 4.8906-3.5234 10.582-5.7812 16.559-6.5703 40.934-4.3164 81.133-13.949 119.58-28.648 20.098-5.5078 38.195-16.656 52.16-32.125 11.07-15.867 17.988-34.262 20.113-53.496 1.4219-9.3906 3.7539-18.625 6.9648-27.566 3.4219-7.6172 7.4414-14.953 12.023-21.934 10.664-17.34 22.75-36.996 19.656-61.305-3.0859-15.879-9.957-30.781-20.023-43.441-8.918-13.102-14.234-21.605-12.863-29.27 0.82812-3.2773 2-6.4609 3.4961-9.4961 1.8398-3.9883 3.4219-8.0938 4.7344-12.285 7.0859-24.07-1.8672-47.578-9.0625-66.477l-1.6953-4.4688c-14-37.227-21.402-76.609-21.883-116.38-0.53516-5.3516 0.18359-10.758 2.1055-15.781 1.7266-2.3359 3.7031-4.4766 5.8984-6.3789 4.3398-3.875 8.1875-8.2656 11.453-13.078 14.211-22.129 5.6953-45.773-1.1445-64.77-2.0586-5.7109-4-11.109-5.2383-16.059-0.98047-3.9141-1.6289-8.2773-2.3086-12.898l0.003906-0.003906c-1.0586-10.652-3.8242-21.066-8.1875-30.844-15.27-30.941-52.223-41.07-81.969-40.41h0.003907c-10.723 0.44141-21.414 1.4258-32.035 2.9492z"/>
  <path d="m710.75 860.13c-23.117 7.6172-57.578 2.2617-68.867-0.41016l0.003907-0.003906c-5.5859-1.3477-11.48-0.058594-15.996 3.5-4.5117 3.5547-7.1445 8.9844-7.1406 14.73v218.93c0 6.6992 3.5742 12.887 9.375 16.238 5.8008 3.3477 12.949 3.3477 18.75 0 5.8008-3.3516 9.375-9.5391 9.375-16.238v-91.828c7.6719 1.1016 15.414 1.6641 23.164 1.6836 14.832 0.15234 29.582-2.2695 43.586-7.168 33.957-12.324 77.492 0.23047 77.922 0.34766 5.2734 1.5664 10.969 0.73828 15.578-2.2656 4.6055-3.0078 7.6641-7.8828 8.3555-13.34 0.69531-5.4609-1.043-10.945-4.7539-15.008l-35.926-39.359 35.926-39.348c4.3828-4.8008 5.9648-11.527 4.1875-17.777-1.7812-6.25-6.668-11.133-12.922-12.902-2.1953-0.63281-54.207-15.051-100.62 0.21875zm34.188 82.453 12.883 14.109c-16.195-0.22656-32.305 2.3555-47.617 7.625-17.457 5.4922-36.02 6.4609-53.953 2.8086v-67.07c22.133 3.1289 44.668 1.668 66.211-4.293 15.062-4.5039 30.836-6.125 46.5-4.7812l-24.023 26.312c-3.1484 3.457-4.8945 7.9688-4.8945 12.645s1.7461 9.1875 4.8945 12.645z"/>
 </g>
</svg>
