<svg width="54" height="54" viewBox="0 0 54 54" fill="none" xmlns="http://www.w3.org/2000/svg">
<path d="M35.956 34.4249C35.4286 33.4672 36.0994 32.4927 37.2469 31.2861C39.0652 29.3708 41.0438 24.9285 39.2044 20.4186C39.2171 20.3933 38.8416 19.6339 38.8542 19.6086L38.0991 19.5706C37.8586 19.5369 29.5519 19.52 21.2367 19.52C12.9216 19.52 4.61486 19.5369 4.37439 19.5706C4.37439 19.5706 3.25643 20.3933 3.26486 20.4186C1.42971 24.9285 3.4083 29.3708 5.22236 31.2861C6.36564 32.4927 7.03643 33.4672 6.5133 34.4249C6.00283 35.3572 4.48408 35.4922 4.48408 35.4922C4.48408 35.4922 4.83424 36.4456 5.67799 36.9603C6.45846 37.4371 7.42033 37.5467 8.08268 37.5636C8.08268 37.5636 10.6772 39.0444 17.461 39.0444H25.0125C31.7963 39.0444 34.3908 37.5636 34.3908 37.5636C35.0531 37.5467 36.015 37.4371 36.7955 36.9603C37.6392 36.4456 37.9894 35.4922 37.9894 35.4922C37.9894 35.4922 36.4664 35.3572 35.956 34.4249Z" fill="#543930"/>
<path d="M34.3531 35.8215C32.5474 33.0794 36.551 32.0542 36.551 32.0542L36.5552 32.0584C35.8592 32.9233 35.5427 33.6784 35.952 34.4251C36.4624 35.3575 37.9812 35.4925 37.9812 35.4925C37.9812 35.4925 35.9098 37.3319 34.3531 35.8215Z" fill="url(#paint0_radial)"/>
<path d="M39.2132 20.4185C41.0061 24.7849 39.1203 29.2821 37.3527 31.1805C37.1122 31.4421 36.0828 32.4504 35.8466 33.2561C35.8466 33.2561 31.8219 27.641 30.6196 24.3419C30.3791 23.6754 30.1555 22.9919 30.126 22.2832C30.1049 21.7516 30.185 21.1188 30.493 20.6674C30.8685 20.1147 38.998 19.9502 38.998 19.9502C38.998 19.9586 39.2132 20.4185 39.2132 20.4185Z" fill="url(#paint1_radial)"/>
<path d="M3.26144 20.4193C1.47269 24.7857 3.35847 29.2829 5.12191 31.1771C5.36237 31.4387 6.39175 32.4469 6.628 33.2527C6.628 33.2527 10.6527 27.6376 11.855 24.3385C12.0997 23.6719 12.3191 22.9885 12.3486 22.2797C12.3697 21.7482 12.2896 21.1154 11.9816 20.664C11.6061 20.1113 11.1674 20.259 10.5303 20.259C9.31534 20.259 3.9955 19.9468 3.58206 19.9468C3.58628 19.9594 3.26144 20.4193 3.26144 20.4193Z" fill="url(#paint2_radial)"/>
<path d="M8.12544 35.8215C9.93106 33.0794 5.92747 32.0542 5.92747 32.0542L5.92325 32.0584C6.61935 32.9233 6.93575 33.6784 6.52653 34.4251C6.01606 35.3575 4.49731 35.4925 4.49731 35.4925C4.49731 35.4925 6.5645 37.3319 8.12544 35.8215Z" fill="url(#paint3_radial)"/>
<path d="M21.1359 40.2461H21.0938C13.4578 40.2461 5.56875 41.807 1.6875 45.393V52.2695H43.0312V50.8352C43.0312 43.7477 31.9359 40.2461 21.1359 40.2461Z" fill="url(#paint4_linear)"/>
<path d="M21.1357 33.7451C14.4025 33.7451 8.90552 35.4579 8.90552 37.5293C8.90552 38.8456 10.9769 39.9593 14.1241 40.6386C15.8369 40.9971 17.2713 49.962 19.3047 52.2696H21.8149C25.3586 49.9198 28.9446 40.6386 30.8979 39.799C32.4124 39.162 33.3279 38.3646 33.3279 37.5293C33.3236 35.42 27.8688 33.7451 21.1357 33.7451Z" fill="#404042"/>
<path d="M25.0587 39.4121H17.3975V43.6224C17.3975 45.5251 18.9584 47.0691 20.8821 47.0691H21.5782C23.502 47.0691 25.0629 45.5251 25.0629 43.6224V39.4121H25.0587Z" fill="#E59600"/>
<path d="M24.7129 52.2703L25.5651 44.2969H16.6213L17.752 52.2703H24.7129Z" fill="#BDBDBD"/>
<path d="M49.3541 52.2704L48.4302 47.4189L44.2536 46.3642C42.8614 46.0267 41.5114 46.9126 41.3005 48.347C41.3005 48.347 41.001 49.5283 40.3682 52.2704H49.3541Z" fill="#616161"/>
<path d="M44.9286 51.6367C46.9557 51.6367 48.5989 50.1257 48.5989 48.2617C48.5989 46.3978 46.9557 44.8867 44.9286 44.8867C42.9016 44.8867 41.2583 46.3978 41.2583 48.2617C41.2583 50.1257 42.9016 51.6367 44.9286 51.6367Z" fill="#404042"/>
<path d="M10.3566 41.1158L10.23 41.0525C9.98109 40.9301 5.02406 40.5251 2.29453 43.82C1.9275 44.2587 1.88953 44.7987 2.21015 45.2459L3.51797 46.8069C3.8175 47.1655 4.23093 47.4439 4.61906 47.4439C4.77093 47.4439 4.92281 47.4017 5.05781 47.3047C8.50453 44.862 10.4747 44.7481 11.5209 45.0856L12.4702 45.3894L10.3566 41.1158Z" fill="#808080"/>
<path d="M4.76626 45.6473C5.39535 45.6473 5.90532 45.1373 5.90532 44.5082C5.90532 43.8791 5.39535 43.3691 4.76626 43.3691C4.13717 43.3691 3.6272 43.8791 3.6272 44.5082C3.6272 45.1373 4.13717 45.6473 4.76626 45.6473Z" fill="#757575" stroke="#9E9E9E" stroke-width="0.125" stroke-miterlimit="10"/>
<path d="M5.14619 44.8031C5.28599 44.8031 5.39932 44.6898 5.39932 44.55C5.39932 44.4102 5.28599 44.2969 5.14619 44.2969C5.00639 44.2969 4.89307 44.4102 4.89307 44.55C4.89307 44.6898 5.00639 44.8031 5.14619 44.8031Z" fill="#424242"/>
<path d="M4.38643 44.6762C4.52622 44.6762 4.63955 44.5628 4.63955 44.4231C4.63955 44.2833 4.52622 44.1699 4.38643 44.1699C4.24663 44.1699 4.1333 44.2833 4.1333 44.4231C4.1333 44.5628 4.24663 44.6762 4.38643 44.6762Z" fill="#424242"/>
<path d="M39.0945 43.8157C36.3228 40.5251 31.3995 40.9258 31.1548 41.0524L31.0283 41.1157L28.9231 45.3851L29.8723 45.0813C30.9186 44.7438 32.8887 44.8577 36.3059 47.2835C36.4409 47.3974 36.5928 47.4438 36.7489 47.4438C37.1708 47.4438 37.6222 47.1021 37.8669 46.811L39.1958 45.2247C39.4995 44.7944 39.4615 44.2544 39.0945 43.8157Z" fill="#808080"/>
<path d="M36.5766 45.6468C37.2056 45.6468 37.7156 45.1368 37.7156 44.5077C37.7156 43.8786 37.2056 43.3687 36.5766 43.3687C35.9475 43.3687 35.4375 43.8786 35.4375 44.5077C35.4375 45.1368 35.9475 45.6468 36.5766 45.6468Z" fill="#757575" stroke="#9E9E9E" stroke-width="0.125" stroke-miterlimit="10"/>
<path d="M36.1965 44.8031C36.3363 44.8031 36.4496 44.6898 36.4496 44.55C36.4496 44.4102 36.3363 44.2969 36.1965 44.2969C36.0567 44.2969 35.9434 44.4102 35.9434 44.55C35.9434 44.6898 36.0567 44.8031 36.1965 44.8031Z" fill="#424242"/>
<path d="M36.9975 44.6762C37.1373 44.6762 37.2506 44.5628 37.2506 44.423C37.2506 44.2833 37.1373 44.1699 36.9975 44.1699C36.8577 44.1699 36.7444 44.2833 36.7444 44.423C36.7444 44.5628 36.8577 44.6762 36.9975 44.6762Z" fill="#424242"/>
<path d="M19.6583 52.2703L18.3083 40.7109C18.2239 40.3734 17.9708 40.1203 17.6755 40.1203C17.338 40.1625 17.0005 40.1625 16.7052 40.1625C13.4145 40.1625 10.4614 38.8125 8.98486 37.9688L13.7942 52.2703H19.6583Z" fill="url(#paint5_linear)"/>
<path d="M28.4333 52.2703L33.2427 37.9688C31.7661 38.8125 28.7708 40.1625 25.6489 40.1625C25.2692 40.1625 24.8896 40.1625 24.5521 40.0781H24.5099C24.2567 40.0781 24.0036 40.3313 23.9192 40.6688L22.4849 52.2703H28.4333Z" fill="url(#paint6_linear)"/>
<path d="M32.6356 21.2505H9.5759C7.09106 21.2505 5.05762 23.4189 5.05762 26.0641C5.05762 28.7135 7.09106 30.8777 9.5759 30.8777H32.6314C35.1162 30.8777 37.1496 28.7092 37.1496 26.0641C37.1539 23.4147 35.1204 21.2505 32.6356 21.2505Z" fill="#E59600"/>
<path d="M21.1056 4.64062C13.765 4.64062 6.96436 12.4917 6.96436 23.7895C6.96436 35.0283 13.9717 40.5844 21.1056 40.5844C28.2395 40.5844 35.2468 35.0283 35.2468 23.7895C35.2468 12.4917 28.4462 4.64062 21.1056 4.64062Z" fill="#FFCA28"/>
<path d="M14.5369 26.9359C15.6855 26.9359 16.6167 25.9726 16.6167 24.7844C16.6167 23.5961 15.6855 22.6328 14.5369 22.6328C13.3882 22.6328 12.457 23.5961 12.457 24.7844C12.457 25.9726 13.3882 26.9359 14.5369 26.9359Z" fill="#404040"/>
<path d="M27.7839 27.9534C29.1632 27.9534 30.2814 26.7956 30.2814 25.3673C30.2814 23.9391 29.1632 22.7812 27.7839 22.7812C26.4045 22.7812 25.2864 23.9391 25.2864 25.3673C25.2864 26.7956 26.4045 27.9534 27.7839 27.9534Z" fill="#404040"/>
<path d="M17.6722 21.4437C17.2798 20.9248 16.377 20.1738 14.622 20.1738C12.867 20.1738 11.96 20.929 11.5719 21.4437C11.3989 21.6715 11.4411 21.9373 11.5634 22.0976C11.6731 22.2452 12.0022 22.3844 12.365 22.2621C12.7278 22.1398 13.4365 21.7727 14.622 21.7643C15.8075 21.7727 16.5162 22.1398 16.879 22.2621C17.2419 22.3844 17.5709 22.2495 17.6806 22.0976C17.803 21.9373 17.8451 21.6757 17.6722 21.4437Z" fill="#6D4C41"/>
<path d="M31.843 21.3428C31.3747 20.7226 30.2905 19.8198 28.1853 19.8198C26.0802 19.8198 24.9959 20.7226 24.5277 21.3428C24.3209 21.617 24.3716 21.9334 24.515 22.1275C24.65 22.3047 25.0424 22.4692 25.4769 22.3215C25.9114 22.1739 26.7636 21.7351 28.1853 21.7225C29.607 21.7309 30.4592 22.1739 30.8938 22.3215C31.3283 22.4692 31.7206 22.3047 31.8556 22.1275C31.9949 21.9334 32.0497 21.617 31.843 21.3428Z" fill="#6D4C41"/>
<path d="M22.7339 28.6026C22.6875 28.5857 22.6453 28.5731 22.5989 28.5688H19.6163C19.5699 28.5731 19.5234 28.5857 19.4813 28.6026C19.2113 28.7123 19.0636 28.9907 19.1902 29.2903C19.3167 29.5898 19.9116 30.4251 21.1097 30.4251C22.3078 30.4251 22.9027 29.5856 23.0292 29.2903C23.1516 28.9949 23.0039 28.7123 22.7339 28.6026Z" fill="#E59600"/>
<path d="M24.7037 32.0155C23.3579 32.8129 18.9535 32.8129 17.612 32.0155C16.8399 31.5557 16.051 32.2602 16.3717 32.9605C16.6881 33.6482 19.0928 35.2471 21.1684 35.2471C23.244 35.2471 25.6192 33.6482 25.9356 32.9605C26.252 32.256 25.4757 31.5557 24.7037 32.0155Z" fill="#795548"/>
<path d="M28.207 3.21535C22.6256 1.4477 18.9932 3.43051 17.0399 4.49363C16.6349 4.71301 4.31619 13.99 4.61151 14.8211C3.54838 15.7239 2.21104 17.6435 3.12651 20.1368C3.81838 22.0141 6.57322 22.8789 6.57322 22.8789C6.37916 26.2582 7.00776 28.338 7.34104 29.1775C7.4001 29.3252 7.60682 29.3125 7.64479 29.1607C8.06244 27.49 9.48416 21.6513 9.34494 20.6346C9.34494 20.6346 14.129 19.6853 18.6979 16.323C19.626 15.6396 20.6343 15.0574 21.7059 14.6313C27.4434 12.3489 28.6457 16.2429 28.6457 16.2429C28.6457 16.2429 32.6198 15.4793 33.8179 20.9974C34.2693 23.0646 34.5731 26.3763 34.8304 28.6924C34.8473 28.8569 35.0709 28.8907 35.1342 28.7388C35.5349 27.8191 36.3365 25.9966 36.5263 24.1361C36.5938 23.4822 38.1337 21.7652 38.8888 18.9597C39.9056 15.2135 30.2699 3.87348 28.207 3.21535Z" fill="#543930"/>
<path d="M4.5145 14.905C3.51466 15.7909 2.16888 17.7695 3.16028 20.2248C3.907 22.0769 6.57325 22.8784 6.57325 22.8784C6.57325 22.8869 7.10482 23.0472 7.37904 23.0472L8.00341 13.8081C6.72513 13.8081 5.49747 14.192 4.70435 14.7447C4.717 14.7573 4.51028 14.8923 4.5145 14.905Z" fill="url(#paint7_radial)"/>
<path d="M35.2266 11.2894C33.3281 10.8084 30.6281 10.4119 28.0547 10.1503C25.9031 9.93092 23.5406 10.3697 21.0938 10.3697C18.6469 10.3697 16.2844 9.93092 14.1328 10.1503C11.5594 10.3697 8.35313 11.2894 6.45469 11.7703C3.16406 12.6056 1.6875 13.4789 1.6875 14.7065C1.6875 15.9342 3.41719 16.5037 6.75 17.3348C8.64844 17.8158 10.125 18.9126 13.4578 19.305C15.6094 19.5665 19.1953 18.7776 21.6 18.7776C24.0469 18.7776 27.2531 19.5665 29.4047 19.3472C31.9781 19.1278 33.4969 18.0773 35.3953 17.5964C38.7281 16.7653 40.4578 15.8878 40.4578 14.6601C40.4578 13.4325 38.5594 12.1204 35.2266 11.2894Z" fill="url(#paint8_radial)"/>
<path d="M27.2527 1.87274C26.0715 1.56477 24.1309 1.69977 22.9496 1.87274C19.9543 2.40008 20.3762 2.09212 17.5496 1.83055C16.4105 1.69977 14.8918 1.61118 13.7949 1.96133C9.57617 3.27758 9.06992 6.99852 6.41211 12.6938C6.4543 17.9082 35.9434 17.8618 35.9012 12.6938C33.3277 7.26008 31.6402 3.05399 27.2527 1.87274Z" fill="url(#paint9_radial)"/>
<path opacity="0.2" d="M16.3695 4.36544C17.7195 5.32732 19.3648 5.81247 21.0101 5.5931C22.4866 5.42013 23.921 4.84638 25.271 4.19247C25.482 4.06169 25.7351 4.32326 25.6507 4.58904C25.4398 5.15857 23.3304 7.30591 20.8413 7.30591C18.521 7.30591 16.9601 6.29763 16.1585 4.8506C15.9898 4.63122 16.0741 4.15029 16.3695 4.36544Z" fill="#EEEEEE"/>
<path d="M34.6363 9.88838C29.7426 12.7782 12.5723 12.7782 7.7207 9.84619C7.29883 10.7659 6.87695 11.732 6.45508 12.6938C6.49727 17.9082 35.9863 17.8618 35.9441 12.6938C35.4801 11.7699 35.0582 10.8081 34.6363 9.88838Z" fill="#404042"/>
<g opacity="0.6">
<path opacity="0.6" d="M38.0958 18.3104C41.1755 22.1916 40.5427 27.8869 36.7036 31.0088C32.8646 34.1307 27.1693 33.4557 24.0474 29.5744C20.9255 25.6932 21.6005 19.9979 25.4818 16.876C29.363 13.7541 34.974 14.4291 38.0958 18.3104Z" fill="url(#paint10_radial)"/>
</g>
<path d="M42.6767 36.1884L40.2805 38.0953L34.948 31.4381L37.3442 29.5312L42.6767 36.1884Z" fill="#C7C7C7"/>
<path d="M39.0238 17.4238C35.48 12.9519 29.0253 12.2347 24.5957 15.8206C20.166 19.4066 19.4488 25.9035 22.9925 30.3331C26.5363 34.7628 32.991 35.5222 37.4207 31.9363C41.8503 28.3503 42.5675 21.8535 39.0238 17.4238ZM35.9188 30.0252C32.5269 32.7378 27.5741 32.2189 24.8614 28.7891C22.1488 25.3592 22.7057 20.4064 26.0975 17.6516C29.4894 14.8967 34.4422 15.4578 37.1549 18.8877C39.8718 22.3175 39.3107 27.3083 35.9188 30.0252Z" fill="url(#paint11_radial)"/>
<path d="M47.715 42.441L47.5462 42.2301C47.3775 40.7957 46.5337 38.8973 45.0994 37.0832C43.8337 35.4801 42.3994 34.2988 41.1337 33.7504C40.7962 33.5816 40.5009 33.3285 40.2478 33.0332L39.9103 32.6113L37.2947 34.7207L37.6322 35.1426C37.8853 35.4379 38.0541 35.7754 38.1384 36.1551C38.3916 37.5473 39.2353 39.2348 40.5009 40.7957C41.9353 42.6098 43.5806 43.8754 44.9306 44.3394L45.0994 44.5504C45.2681 44.7613 45.5212 44.8879 45.8166 44.8879C46.0275 44.8879 46.1962 44.8035 46.365 44.6769L46.7447 44.3816C46.8291 44.3394 46.9134 44.2973 46.9978 44.2129C47.0822 44.1707 47.1244 44.0863 47.2087 44.0019L47.5884 43.7066C47.9681 43.4113 48.0525 42.8207 47.715 42.441Z" fill="url(#paint12_radial)"/>
<path d="M40.7533 33.9197L38.3064 35.8603C38.0111 36.0713 37.6314 36.0291 37.4205 35.776L37.2518 35.5228C37.0408 35.2275 37.083 34.8478 37.3361 34.6369L39.783 32.6541C40.0783 32.4432 40.458 32.4854 40.6689 32.7385L40.8377 32.9916C41.0908 33.2869 41.0486 33.6666 40.7533 33.9197Z" fill="#ABABAB"/>
<path d="M42.8323 41.1837C42.4864 41.5507 42.1742 41.9473 41.938 42.3903C41.5963 43.0231 38.5377 44.2043 40.2252 46.7314C40.7188 47.4106 42.2586 49.5537 43.6086 50.1486C46.4309 51.3931 50.4472 47.4781 50.8227 47.2714C53.1852 45.9846 47.0511 39.9265 45.1948 39.9729C44.9713 39.9898 44.638 40.0531 44.3384 40.0995C43.7605 40.2007 43.1952 40.804 42.8323 41.1837Z" fill="url(#paint13_radial)"/>
<path d="M50.5817 45.1783L48.1601 46.9502C47.8437 47.1696 47.7467 47.5704 47.9154 47.891C48.0926 48.2454 48.544 48.3635 48.9152 48.1779L51.5393 46.7266C51.9654 46.503 52.1342 45.9799 51.8937 45.5833L51.7713 45.3808C51.5182 44.9758 50.974 44.883 50.5817 45.1783Z" fill="url(#paint14_radial)"/>
<path d="M41.4909 48.3508C41.4909 48.3508 42.2249 48.3171 43.1868 48.0471C46.0977 47.2202 44.2794 44.2797 44.0052 43.8157C42.6088 41.4363 44.908 40.4449 46.4521 39.0907C46.7727 38.808 47.7937 37.7449 47.5237 36.7408C46.8782 35.2179 45.5915 36.2346 42.7143 38.171C41.9296 38.6983 41.1955 39.2805 40.5332 39.9555C37.3691 43.1576 40.124 46.811 41.4909 48.3508Z" fill="url(#paint15_radial)"/>
<path d="M48.3633 40.7439L45.1739 43.6421C44.7436 44.026 45.0009 44.3804 45.3089 44.8318C45.638 45.3296 46.0008 45.6925 46.5239 45.3423L50.0719 42.8828C50.6709 42.4693 50.827 41.6551 50.3967 41.1067L50.1773 40.8282C49.7302 40.2714 48.9033 40.2292 48.3633 40.7439Z" fill="url(#paint16_radial)"/>
<path d="M46.7768 38.7696L44.1654 41.419C43.7731 41.8071 43.7309 42.402 44.0473 42.8196C44.3848 43.2795 45.0598 43.3385 45.5407 42.9799L48.5191 40.7356C49.0718 40.3137 49.1815 39.5248 48.7427 39.0185L48.5191 38.7612C48.0635 38.2507 47.2662 38.2507 46.7768 38.7696Z" fill="url(#paint17_radial)"/>
<path d="M49.6326 43.0481L47.0465 45.2629C46.6542 45.5835 46.5698 46.1235 46.8271 46.5285C47.0971 46.9757 47.7046 47.0854 48.1729 46.7943L51.0628 44.976C51.6028 44.6343 51.7673 43.9256 51.4045 43.4278L51.2231 43.1746C50.8476 42.681 50.122 42.6178 49.6326 43.0481Z" fill="url(#paint18_radial)"/>
<path d="M50.1438 42.8238C49.8906 42.4145 47.1316 45.1441 46.5156 45.1188C45.8111 45.0892 45.326 44.3552 45.6677 43.7139C46.0558 42.9925 48.8655 40.6722 48.7389 40.5119C48.5027 40.2124 45.4146 43.9881 44.3556 42.6508C43.6975 41.8239 44.5877 41.1489 45.1024 40.5836C45.4061 40.2503 46.8742 38.9383 46.7899 38.8286C46.7055 38.7231 46.3511 39.048 46.3047 39.0775C46.001 39.2674 44.2924 40.7988 43.8916 41.2881C43.2292 42.0981 43.3811 42.7014 43.6342 43.0642C43.9296 43.4903 44.2375 44.1189 44.4063 44.6083C44.7606 45.6503 44.3388 47.1944 44.3936 47.3294C44.4527 47.4728 44.8661 46.6164 44.9463 45.8486C44.9927 45.3972 45.4314 45.258 45.7858 45.5449C46.001 45.722 46.1908 45.8908 46.2583 45.9836C46.4017 46.1777 47.2539 47.3125 47.486 47.747C47.5746 47.9158 47.6547 48.0424 47.8277 48.1731C47.9542 48.2702 48.0977 48.3419 48.2538 48.3841C48.9456 48.5739 49.5911 48.1394 50.1142 47.7766C50.4264 47.5572 51.7427 46.7641 51.8988 46.3844C51.2196 46.8906 48.8992 48.7638 48.2917 47.7681C47.9627 47.2028 48.5449 46.9877 48.9161 46.7514C49.338 46.4856 50.0847 45.9288 50.4475 45.587C50.5488 45.49 51.1352 45.0597 51.0719 44.9753C50.9749 44.853 49.7514 45.7642 49.6122 45.8655C49.1102 46.2241 48.1399 47.0931 47.4691 46.6839C47.2244 46.532 47.0514 46.2452 47.0514 45.9541C47.0514 45.2538 50.2746 43.0347 50.1438 42.8238Z" fill="#EDA600"/>
<defs>
<radialGradient id="paint0_radial" cx="0" cy="0" r="1" gradientUnits="userSpaceOnUse" gradientTransform="translate(37.1173 33.9256) rotate(154.924) scale(2.91965 2.16597)">
<stop offset="0.663" stop-color="#6D4C41"/>
<stop offset="1" stop-color="#6D4C41" stop-opacity="0"/>
</radialGradient>
<radialGradient id="paint1_radial" cx="0" cy="0" r="1" gradientUnits="userSpaceOnUse" gradientTransform="translate(29.5502 25.6679) rotate(-94.2783) scale(12.8244 10.6883)">
<stop offset="0.725" stop-color="#6D4C41" stop-opacity="0"/>
<stop offset="1" stop-color="#6D4C41"/>
</radialGradient>
<radialGradient id="paint2_radial" cx="0" cy="0" r="1" gradientUnits="userSpaceOnUse" gradientTransform="translate(12.9264 25.6681) rotate(-85.7217) scale(12.8244 10.6883)">
<stop offset="0.725" stop-color="#6D4C41" stop-opacity="0"/>
<stop offset="1" stop-color="#6D4C41"/>
</radialGradient>
<radialGradient id="paint3_radial" cx="0" cy="0" r="1" gradientUnits="userSpaceOnUse" gradientTransform="translate(5.35961 33.926) rotate(25.0761) scale(2.91965 2.16597)">
<stop offset="0.663" stop-color="#6D4C41"/>
<stop offset="1" stop-color="#6D4C41" stop-opacity="0"/>
</radialGradient>
<linearGradient id="paint4_linear" x1="22.3594" y1="40.187" x2="22.3594" y2="56.6697" gradientUnits="userSpaceOnUse">
<stop offset="0.161" stop-color="#606060"/>
<stop offset="0.288" stop-color="#606060"/>
<stop offset="0.449" stop-color="#595959"/>
<stop offset="0.684" stop-color="#464646"/>
<stop offset="0.962" stop-color="#262626"/>
<stop offset="1" stop-color="#212121"/>
</linearGradient>
<linearGradient id="paint5_linear" x1="14.3216" y1="39.9946" x2="14.3216" y2="57.3893" gradientUnits="userSpaceOnUse">
<stop offset="0.125" stop-color="#757575"/>
<stop offset="0.3" stop-color="#707070"/>
<stop offset="0.502" stop-color="#626262"/>
<stop offset="0.718" stop-color="#4B4B4B"/>
<stop offset="0.942" stop-color="#2B2B2B"/>
<stop offset="1" stop-color="#212121"/>
</linearGradient>
<linearGradient id="paint6_linear" x1="27.8638" y1="39.9832" x2="27.8638" y2="57.3893" gradientUnits="userSpaceOnUse">
<stop offset="0.125" stop-color="#757575"/>
<stop offset="0.3" stop-color="#707070"/>
<stop offset="0.502" stop-color="#626262"/>
<stop offset="0.718" stop-color="#4B4B4B"/>
<stop offset="0.942" stop-color="#2B2B2B"/>
<stop offset="1" stop-color="#212121"/>
</linearGradient>
<radialGradient id="paint7_radial" cx="0" cy="0" r="1" gradientUnits="userSpaceOnUse" gradientTransform="translate(10.4909 19.0442) rotate(7.83354) scale(7.12401 10.0104)">
<stop offset="0.598" stop-color="#6D4C41" stop-opacity="0"/>
<stop offset="1" stop-color="#6D4C41"/>
</radialGradient>
<radialGradient id="paint8_radial" cx="0" cy="0" r="1" gradientUnits="userSpaceOnUse" gradientTransform="translate(21.0725 14.7669) scale(23.9152 20.3756)">
<stop offset="0.003" stop-color="#757575"/>
<stop offset="0.333" stop-color="#686868"/>
<stop offset="0.941" stop-color="#464646"/>
<stop offset="1" stop-color="#424242"/>
</radialGradient>
<radialGradient id="paint9_radial" cx="0" cy="0" r="1" gradientUnits="userSpaceOnUse" gradientTransform="translate(20.8165 2.93629) rotate(90) scale(13.1602 19.9299)">
<stop offset="0.003" stop-color="#757575"/>
<stop offset="0.333" stop-color="#686868"/>
<stop offset="0.941" stop-color="#464646"/>
<stop offset="1" stop-color="#424242"/>
</radialGradient>
<radialGradient id="paint10_radial" cx="0" cy="0" r="1" gradientUnits="userSpaceOnUse" gradientTransform="translate(25.8607 17.5241) rotate(6.367) scale(17.6799)">
<stop stop-color="#FAFAFA"/>
<stop offset="1" stop-color="#EEEEEE"/>
</radialGradient>
<radialGradient id="paint11_radial" cx="0" cy="0" r="1" gradientUnits="userSpaceOnUse" gradientTransform="translate(30.4014 13.5907) rotate(-1.341) scale(20.6567)">
<stop stop-color="#E0E0E0"/>
<stop offset="0.227" stop-color="#DBDBDB"/>
<stop offset="0.494" stop-color="#CDCDCD"/>
<stop offset="0.779" stop-color="#B5B5B5"/>
<stop offset="1" stop-color="#9E9E9E"/>
</radialGradient>
<radialGradient id="paint12_radial" cx="0" cy="0" r="1" gradientUnits="userSpaceOnUse" gradientTransform="translate(39.3188 34.4191) scale(5.74172)">
<stop stop-color="#FFA726"/>
<stop offset="0.04" stop-color="#FFA623"/>
<stop offset="0.517" stop-color="#FF9800"/>
<stop offset="1" stop-color="#FB8C00"/>
</radialGradient>
<radialGradient id="paint13_radial" cx="0" cy="0" r="1" gradientUnits="userSpaceOnUse" gradientTransform="translate(42.6486 48.48) rotate(-129.42) scale(9.14827 9.6721)">
<stop offset="0.307" stop-color="#FFCA28"/>
<stop offset="1" stop-color="#FFB300"/>
</radialGradient>
<radialGradient id="paint14_radial" cx="0" cy="0" r="1" gradientUnits="userSpaceOnUse" gradientTransform="translate(49.839 40.1289) rotate(-58.041) scale(6.70318)">
<stop stop-color="#FFB300"/>
<stop offset="1" stop-color="#FFCA28"/>
</radialGradient>
<radialGradient id="paint15_radial" cx="0" cy="0" r="1" gradientUnits="userSpaceOnUse" gradientTransform="translate(46.3203 38.4644) rotate(-28.0401) scale(6.88746 6.69746)">
<stop stop-color="#FFB300"/>
<stop offset="1" stop-color="#FFCA28"/>
</radialGradient>
<radialGradient id="paint16_radial" cx="0" cy="0" r="1" gradientUnits="userSpaceOnUse" gradientTransform="translate(51.4932 39.4792) rotate(-41.201) scale(7.61906)">
<stop stop-color="#FFB300"/>
<stop offset="1" stop-color="#FFCA28"/>
</radialGradient>
<radialGradient id="paint17_radial" cx="0" cy="0" r="1" gradientUnits="userSpaceOnUse" gradientTransform="translate(51.421 39.8016) rotate(-33.051) scale(7.28113)">
<stop stop-color="#FFB300"/>
<stop offset="1" stop-color="#FFCA28"/>
</radialGradient>
<radialGradient id="paint18_radial" cx="0" cy="0" r="1" gradientUnits="userSpaceOnUse" gradientTransform="translate(50.6092 39.5914) rotate(-50.38) scale(7.28367)">
<stop stop-color="#FFB300"/>
<stop offset="1" stop-color="#FFCA28"/>
</radialGradient>
</defs>
</svg>
