<svg width="42" height="32" viewBox="0 0 42 32" fill="none" xmlns="http://www.w3.org/2000/svg">
<path d="M39.6911 0.498047H2.30934C1.95688 0.49846 1.61897 0.638696 1.36979 0.887977C1.1206 1.13726 0.9805 1.47522 0.980225 1.82769V4.50257C0.980225 4.62581 1.11386 4.76725 1.22306 4.82445L20.8718 16.0476C20.9221 16.0764 20.9792 16.0913 21.0371 16.0908C21.0964 16.0909 21.1546 16.0751 21.2056 16.045L40.2605 4.83537C40.3676 4.77557 40.6515 4.61749 40.7581 4.54469C40.8871 4.45681 41.0202 4.37725 41.0202 4.21969V1.82717C41.0198 1.47479 40.8796 1.13696 40.6305 0.887794C40.3813 0.638625 40.0435 0.49846 39.6911 0.498047V0.498047Z" fill="#6F82D8"/>
<path d="M40.8546 8.53568C40.8035 8.50651 40.7456 8.49134 40.6867 8.49171C40.6278 8.49207 40.57 8.50796 40.5192 8.53776L29.736 14.8823C29.693 14.9073 29.6563 14.9417 29.6284 14.9829C29.6005 15.0241 29.5823 15.071 29.5751 15.1202C29.5678 15.1694 29.5717 15.2196 29.5866 15.2671C29.6014 15.3146 29.6267 15.3581 29.6606 15.3945L40.4454 27.0201C40.4763 27.0537 40.5139 27.0805 40.5557 27.0987C40.5975 27.117 40.6426 27.1263 40.6882 27.1262C40.7763 27.1261 40.8608 27.091 40.9231 27.0287C40.9853 26.9664 41.0204 26.882 41.0205 26.7939V8.82428C41.0208 8.76583 41.0055 8.70835 40.9764 8.65767C40.9473 8.60699 40.9053 8.56491 40.8546 8.53568Z" fill="#6F82D8"/>
<path d="M26.6283 17.0128C26.5771 16.9571 26.5084 16.9205 26.4335 16.9094C26.3586 16.8982 26.2822 16.9131 26.217 16.9514L21.8947 19.4948C21.6415 19.6411 21.3546 19.719 21.0621 19.7209C20.7696 19.7229 20.4817 19.6487 20.2266 19.5057L16.4228 17.3326C16.3614 17.2976 16.2904 17.2831 16.2202 17.2911C16.15 17.2992 16.0842 17.3294 16.0323 17.3773L1.58771 30.7756C1.54984 30.811 1.52076 30.8548 1.5028 30.9034C1.48484 30.9521 1.47848 31.0042 1.48424 31.0557C1.48999 31.1072 1.50771 31.1567 1.53596 31.2002C1.56422 31.2436 1.60224 31.2799 1.64699 31.306C1.87163 31.4381 2.08847 31.501 2.30895 31.501H39.3085C39.3733 31.5012 39.4366 31.4823 39.4907 31.4467C39.5448 31.4111 39.5872 31.3604 39.6127 31.3008C39.6386 31.2417 39.6467 31.1762 39.6358 31.1125C39.6249 31.0488 39.5955 30.9897 39.5513 30.9426L26.6283 17.0128Z" fill="#6F82D8"/>
<path d="M12.8539 15.7923C12.8922 15.7569 12.9216 15.7131 12.9397 15.6642C12.9579 15.6154 12.9644 15.563 12.9585 15.5112C12.9527 15.4594 12.9348 15.4097 12.9062 15.3662C12.8777 15.3226 12.8393 15.2863 12.7941 15.2603L1.47579 8.7957C1.42528 8.76702 1.36812 8.75211 1.31004 8.75245C1.25195 8.75279 1.19498 8.76837 1.14481 8.79764C1.09464 8.82692 1.05303 8.86885 1.02415 8.91924C0.995266 8.96964 0.980122 9.02673 0.98023 9.08482V26.0472C0.979863 26.112 0.998502 26.1755 1.03384 26.2298C1.06917 26.2841 1.11966 26.3268 1.17904 26.3527C1.23842 26.3786 1.30409 26.3865 1.36793 26.3755C1.43176 26.3644 1.49096 26.3349 1.53819 26.2906L12.8539 15.7923V15.7923Z" fill="#6F82D8"/>
</svg>
