<svg width="19" height="19" viewBox="0 0 19 19" fill="none" xmlns="http://www.w3.org/2000/svg">
<circle cx="9.03936" cy="9.03926" r="9.03926" transform="rotate(90 9.03936 9.03926)" fill="#1FAD83"/>
<path d="M8.4949 14.8215L14.7076 9.43061C14.7638 9.38188 14.8089 9.32164 14.8398 9.25396C14.8707 9.18628 14.8867 9.11275 14.8867 9.03836C14.8867 8.96396 14.8707 8.89043 14.8398 8.82275C14.8089 8.75508 14.7638 8.69483 14.7076 8.6461L8.4949 3.25687C8.47618 3.24058 8.45316 3.23002 8.4286 3.22645C8.40405 3.22287 8.37898 3.22643 8.35639 3.2367C8.33379 3.24697 8.31463 3.26352 8.30117 3.28437C8.28772 3.30522 8.28054 3.32951 8.2805 3.35432L8.2805 4.66996C8.2805 4.74467 8.31299 4.81614 8.36983 4.86649L12.4678 8.42196L3.32169 8.42196C3.25023 8.42196 3.19175 8.48043 3.19175 8.55189L3.19175 9.52644C3.19175 9.59791 3.25023 9.65638 3.32169 9.65638L12.4678 9.65638L8.36983 13.2118C8.31299 13.2606 8.2805 13.332 8.2805 13.4084L8.2805 14.724C8.2805 14.8345 8.41044 14.8946 8.4949 14.8215Z" fill="white"/>
</svg>
