<svg width="33" height="33" viewBox="0 0 33 33" fill="none" xmlns="http://www.w3.org/2000/svg">
<path d="M6.47004 0.00830078C2.91538 0.00830078 0.00610352 2.91751 0.00610352 6.47224V26.531C0.00610352 30.0857 2.91532 32.9939 6.47004 32.9939H26.5288C30.0835 32.9939 32.9917 30.0857 32.9917 26.531V6.47224C32.9917 2.91758 30.0835 0.00830078 26.5288 0.00830078H6.47004ZM8.09582 5.45158C9.80021 5.45158 10.85 6.57048 10.8824 8.04126C10.8824 9.47956 9.80014 10.6299 8.06286 10.6299H8.03088C6.35893 10.6299 5.27828 9.47963 5.27828 8.04126C5.27828 6.57052 6.39164 5.45158 8.09579 5.45158H8.09582ZM22.7835 12.3258C26.0613 12.3258 28.5185 14.4682 28.5185 19.0722V27.667H23.5371V19.6484C23.5371 17.6335 22.8161 16.2588 21.0134 16.2588C19.6371 16.2588 18.8168 17.1853 18.4567 18.0804C18.3251 18.4007 18.2928 18.8479 18.2928 19.2959V27.667H13.3113C13.3113 27.667 13.3767 14.0838 13.3113 12.6773H18.2938V14.8C18.9558 13.7787 20.1399 12.3258 22.7835 12.3258V12.3258ZM5.57211 12.6784H10.5536V27.6671H5.57211V12.6784V12.6784Z" fill="#6F82D8"/>
</svg>
