<svg width="59" height="33" viewBox="0 0 59 33" fill="none" xmlns="http://www.w3.org/2000/svg">
<g clip-path="url(#clip0)">
<path d="M16.5391 33C25.6734 33 33.0782 25.6127 33.0782 16.5C33.0782 7.3873 25.6734 0 16.5391 0C7.4048 0 0 7.3873 0 16.5C0 25.6127 7.4048 33 16.5391 33Z" fill="#6F82D8"/>
<path d="M42.8694 32.2079C47.4366 32.2079 51.139 25.19 51.139 16.5329C51.139 7.87585 47.4366 0.85791 42.8694 0.85791C38.3023 0.85791 34.5999 7.87585 34.5999 16.5329C34.5999 25.19 38.3023 32.2079 42.8694 32.2079Z" fill="#6F82D8"/>
<path d="M55.6374 30.5577C57.2451 30.5577 58.5483 24.2933 58.5483 16.5657C58.5483 8.83816 57.2451 2.57373 55.6374 2.57373C54.0298 2.57373 52.7266 8.83816 52.7266 16.5657C52.7266 24.2933 54.0298 30.5577 55.6374 30.5577Z" fill="#6F82D8"/>
</g>
<defs>
<clipPath id="clip0">
<rect width="58.5484" height="33" fill="white"/>
</clipPath>
</defs>
</svg>
