<svg width="36" height="55" viewBox="0 0 36 55" fill="none" xmlns="http://www.w3.org/2000/svg">
<path d="M31.3933 0H4.6051C3.4686 0.000447067 2.37876 0.452061 1.57505 1.25561C0.771347 2.05916 0.319518 3.14891 0.318848 4.28541V49.7171C0.319965 50.8535 0.771937 51.943 1.57555 52.7464C2.37916 53.5499 3.46873 54.0016 4.6051 54.0025H31.3933C32.5298 54.0014 33.6196 53.5497 34.4235 52.7463C35.2275 51.943 35.6801 50.8537 35.6821 49.7171V4.29216C35.6808 3.15542 35.2284 2.06568 34.4243 1.2622C33.6201 0.458729 32.53 0.0071963 31.3933 0.00675" fill="#405866"/>
<path d="M28.6134 3.26998H7.38469C6.48433 3.26997 5.62072 3.62706 4.98328 4.26292C4.34584 4.89878 3.98661 5.7615 3.98438 6.66185V42.6621C3.98616 43.5626 4.34525 44.4256 4.98279 45.0616C5.62033 45.6975 6.48419 46.0545 7.38469 46.054H28.6134C30.4866 46.054 32.0053 44.5268 32.0053 42.6621V6.65848C32.0053 4.78535 30.4823 3.2666 28.6134 3.2666" fill="#85CFEA"/>
<path d="M17.4091 3.26975H7.38957C6.48921 3.26975 5.6256 3.62684 4.98816 4.2627C4.35072 4.89856 3.99149 5.76127 3.98926 6.66163V42.6619C3.99105 43.5624 4.35014 44.4254 4.98767 45.0613C5.62521 45.6973 6.48907 46.0542 7.38957 46.0538H28.6183C29.3043 46.0538 29.9379 45.8437 30.4712 45.4977C21.4456 33.7409 16.6143 17.9367 17.4116 3.26807" fill="#28A6DE"/>
<path d="M20.7844 50.1103C20.7844 51.6434 19.539 52.893 18.0025 52.893C16.4661 52.893 15.2207 51.6443 15.2207 50.1103C15.2207 48.5764 16.4661 47.3276 18.0025 47.3276C19.539 47.3276 20.7844 48.5764 20.7844 50.1103Z" fill="#CBD5DC"/>
<path d="M10.0644 50.1111C10.0701 50.3818 10.0217 50.6509 9.9221 50.9026C9.82248 51.1544 9.67362 51.3837 9.48426 51.5772C9.29489 51.7707 9.06882 51.9245 8.81929 52.0295C8.56975 52.1345 8.30176 52.1887 8.03102 52.1889C7.76028 52.1891 7.49222 52.1352 7.24256 52.0305C6.99289 51.9258 6.76663 51.7723 6.57702 51.579C6.38742 51.3857 6.23828 51.1566 6.13834 50.905C6.03841 50.6533 5.98968 50.3843 5.99503 50.1136C6.00553 49.5812 6.22435 49.074 6.60452 48.701C6.98469 48.3281 7.49591 48.119 8.02849 48.1187C8.56106 48.1183 9.07255 48.3268 9.45318 48.6993C9.83381 49.0718 10.0533 49.5786 10.0644 50.1111Z" fill="#CBD5DC"/>
<path d="M25.9398 50.11C25.932 50.382 25.9788 50.6529 26.0775 50.9066C26.1762 51.1602 26.3248 51.3915 26.5145 51.5867C26.7041 51.782 26.9311 51.9371 27.1818 52.0431C27.4325 52.1491 27.7019 52.2037 27.9741 52.2037C28.2463 52.2037 28.5157 52.1491 28.7664 52.0431C29.0171 51.9371 29.244 51.782 29.4337 51.5867C29.6234 51.3915 29.772 51.1602 29.8707 50.9066C29.9694 50.6529 30.0162 50.382 30.0084 50.11C30.0084 49.5704 29.794 49.053 29.4125 48.6715C29.031 48.29 28.5136 48.0757 27.9741 48.0757C27.4346 48.0757 26.9171 48.29 26.5356 48.6715C26.1541 49.053 25.9398 49.5704 25.9398 50.11Z" fill="#CBD5DC"/>
</svg>
