<svg width="19" height="19" viewBox="0 0 19 19" fill="none" xmlns="http://www.w3.org/2000/svg">
<circle cx="9.03936" cy="9.96064" r="9.03926" transform="rotate(90 9.03936 9.96064)" fill="#F87272"/>
<path d="M8.4949 15.7429L14.7076 10.352C14.7638 10.3033 14.8089 10.243 14.8398 10.1753C14.8707 10.1077 14.8867 10.0341 14.8867 9.95974C14.8867 9.88535 14.8707 9.81182 14.8398 9.74414C14.8089 9.67646 14.7638 9.61622 14.7076 9.56749L8.4949 4.17825C8.47618 4.16197 8.45316 4.15141 8.4286 4.14783C8.40405 4.14426 8.37898 4.14782 8.35639 4.15809C8.33379 4.16836 8.31463 4.1849 8.30117 4.20576C8.28772 4.22661 8.28054 4.25089 8.2805 4.27571L8.2805 5.59134C8.2805 5.66606 8.31299 5.73753 8.36983 5.78788L12.4678 9.34334L3.32169 9.34334C3.25023 9.34334 3.19175 9.40181 3.19175 9.47328L3.19175 10.4478C3.19175 10.5193 3.25023 10.5778 3.32169 10.5778L12.4678 10.5778L8.36983 14.1332C8.31299 14.182 8.2805 14.2534 8.2805 14.3298L8.2805 15.6454C8.2805 15.7558 8.41044 15.8159 8.4949 15.7429Z" fill="white"/>
</svg>
