<svg width="54" height="54" viewBox="0 0 54 54" fill="none" xmlns="http://www.w3.org/2000/svg">
<path d="M54 27C54 41.9115 41.9115 54 27 54C12.09 54 0 41.9115 0 27C0 12.09 12.09 0 27 0C41.9115 0 54 12.09 54 27Z" fill="#FFCC4D"/>
<path d="M17.25 30C19.3211 30 21 27.6495 21 24.75C21 21.8505 19.3211 19.5 17.25 19.5C15.1789 19.5 13.5 21.8505 13.5 24.75C13.5 27.6495 15.1789 30 17.25 30Z" fill="#664500"/>
<path d="M36.75 30C38.8211 30 40.5 27.6495 40.5 24.75C40.5 21.8505 38.8211 19.5 36.75 19.5C34.6789 19.5 33 21.8505 33 24.75C33 27.6495 34.6789 30 36.75 30Z" fill="#664500"/>
<path d="M35.2275 41.8185C35.211 41.7525 33.51 35.25 27 35.25C20.49 35.25 18.789 41.7525 18.7725 41.8185C18.7352 41.9738 18.7489 42.1371 18.8116 42.284C18.8743 42.431 18.9826 42.5539 19.1205 42.6345C19.26 42.7157 19.4215 42.7507 19.5821 42.7346C19.7427 42.7184 19.894 42.6519 20.0145 42.5445C20.028 42.534 21.534 41.25 27 41.25C32.385 41.25 33.9255 42.495 33.984 42.5445C34.0999 42.6559 34.2487 42.7268 34.4083 42.7465C34.5678 42.7663 34.7295 42.7338 34.869 42.654C35.012 42.5732 35.1245 42.4477 35.1893 42.2968C35.2541 42.1458 35.2675 41.9778 35.2275 41.8185Z" fill="#664500"/>
<path d="M15 45C15 49.143 11.643 52.5 7.5 52.5C3.357 52.5 0 49.143 0 45C0 40.857 6 30 7.5 30C9 30 15 40.857 15 45Z" fill="#5DADEC"/>
<path d="M45 19.4997C36.669 19.4997 33.297 12.9492 33.1575 12.6702C32.9787 12.3147 32.9484 11.9028 33.0733 11.525C33.1982 11.1472 33.468 10.8345 33.8235 10.6557C34.179 10.4768 34.5909 10.4465 34.9687 10.5714C35.3465 10.6963 35.6592 10.9662 35.838 11.3217C35.9505 11.5407 38.5695 16.4997 45 16.4997C45.3978 16.4997 45.7794 16.6577 46.0607 16.939C46.342 17.2203 46.5 17.6018 46.5 17.9997C46.5 18.3975 46.342 18.779 46.0607 19.0603C45.7794 19.3416 45.3978 19.4997 45 19.4997ZM9 19.4997C8.60218 19.4997 8.22064 19.3416 7.93934 19.0603C7.65804 18.779 7.5 18.3975 7.5 17.9997C7.5 17.6018 7.65804 17.2203 7.93934 16.939C8.22064 16.6577 8.60218 16.4997 9 16.4997C16.6245 16.4997 17.994 11.8197 18.0495 11.6202C18.267 10.8282 19.0845 10.3482 19.878 10.5567C20.673 10.7652 21.1545 11.5662 20.955 12.3642C20.8815 12.6552 19.056 19.4997 9 19.4997Z" fill="#664500"/>
</svg>
