<svg width="52" height="54" viewBox="0 0 52 54" fill="none" xmlns="http://www.w3.org/2000/svg">
<path d="M26 51.0269C40.0833 51.0269 51.5 39.6101 51.5 25.5269C51.5 11.4436 40.0833 0.0268555 26 0.0268555C11.9167 0.0268555 0.5 11.4436 0.5 25.5269C0.5 39.6101 11.9167 51.0269 26 51.0269Z" fill="#FFCB4C"/>
<path d="M20.7859 31.5543C20.561 31.3769 20.3974 31.1335 20.3179 30.8583C20.2678 30.6996 20.2512 30.5323 20.2693 30.3669C20.2874 30.2015 20.3398 30.0417 20.423 29.8976C20.5063 29.7535 20.6186 29.6284 20.7529 29.5301C20.8871 29.4318 21.0404 29.3626 21.2029 29.3268C27.9949 27.7953 32.5684 31.3713 32.7619 31.5243C33.3379 31.9833 33.4504 32.7918 33.0214 33.3318C32.5924 33.8688 31.7794 33.9333 31.2049 33.4773C31.0399 33.3513 27.4204 30.5928 21.9319 31.8303C21.7324 31.8728 21.5259 31.8701 21.3276 31.8224C21.1292 31.7746 20.9441 31.683 20.7859 31.5543Z" fill="#65471B"/>
<path d="M18.6787 20.7453C20.4391 20.7453 21.8662 18.9616 21.8662 16.7613C21.8662 14.561 20.4391 12.7773 18.6787 12.7773C16.9183 12.7773 15.4912 14.561 15.4912 16.7613C15.4912 18.9616 16.9183 20.7453 18.6787 20.7453Z" fill="#65471B"/>
<path d="M35.5625 22.3381C37.3229 22.3381 38.75 20.5544 38.75 18.3541C38.75 16.1538 37.3229 14.3701 35.5625 14.3701C33.8021 14.3701 32.375 16.1538 32.375 18.3541C32.375 20.5544 33.8021 22.3381 35.5625 22.3381Z" fill="#65471B"/>
<path d="M24.9135 52.7235C24.9135 52.7235 26.811 52.107 27.057 50.6955C27.3165 49.2375 26.121 48.945 26.121 48.945C26.121 48.945 27.6825 48.633 27.879 46.881C28.0635 45.2295 26.5875 44.8365 26.5875 44.8365C26.5875 44.8365 28.0425 44.2365 28.1115 42.528C28.1685 41.0895 26.619 40.386 26.619 40.386C26.619 40.386 34.176 38.5545 34.953 38.3745C35.727 38.1945 36.933 37.452 36.5565 35.8335C36.183 34.2135 34.7505 34.1565 34.011 34.329C33.27 34.5015 23.895 36.678 20.661 37.431L18.5025 37.932C17.6925 38.1225 17.325 37.767 17.8965 37.164C18.6585 36.36 19.146 35.4705 19.3155 33.9945C19.494 32.442 18.9675 30.525 18.666 29.781C18.105 28.3995 17.1585 27.3075 16.065 26.9325C14.3595 26.3475 13.1475 27.414 13.752 29.274C14.658 32.055 14.064 34.3365 12.5025 35.7135C8.82903 38.949 7.12053 41.256 8.25753 46.173C9.49953 51.5355 14.823 54.987 20.1855 53.745L24.9135 52.7235Z" fill="#F19020"/>
<path d="M12.9442 9.52654C12.6917 9.39225 12.4869 9.18321 12.3577 8.92804C12.2796 8.78118 12.2328 8.61968 12.2204 8.45379C12.208 8.28789 12.2302 8.12123 12.2856 7.96438C12.3411 7.80753 12.4285 7.66392 12.5424 7.54267C12.6563 7.42141 12.7942 7.32517 12.9472 7.26004C19.3462 4.51353 24.4957 7.19554 24.7117 7.31104C25.3612 7.65754 25.6237 8.43154 25.2982 9.04204C24.9742 9.64954 24.1882 9.86104 23.5387 9.51904C23.3542 9.42454 19.2907 7.37104 14.1217 9.58954C13.9331 9.66719 13.7296 9.70183 13.5259 9.69094C13.3222 9.68004 13.1235 9.62388 12.9442 9.52654ZM31.1467 15.1515C30.9046 15.0005 30.7149 14.7784 30.6037 14.5155C30.5354 14.3636 30.4995 14.1991 30.4983 14.0325C30.497 13.8659 30.5305 13.7008 30.5965 13.5479C30.6626 13.3949 30.7597 13.2574 30.8818 13.1441C31.0039 13.0307 31.1483 12.944 31.3057 12.8895C37.8772 10.5855 42.8332 13.6095 43.0402 13.74C43.6627 14.13 43.8727 14.9205 43.5082 15.507C43.1452 16.092 42.3442 16.2495 41.7217 15.864C41.5417 15.756 37.6312 13.4325 32.3212 15.2955C32.127 15.3597 31.9209 15.3801 31.7178 15.3552C31.5148 15.3303 31.3197 15.2607 31.1467 15.1515Z" fill="#65471B"/>
</svg>
