<svg width="128" height="128" viewBox="0 0 128 128" fill="none" xmlns="http://www.w3.org/2000/svg">
<path d="M85.5195 121.67C76.8895 121.6 63.9395 121.26 51.1995 120.06C42.4295 119.23 33.3695 117.92 26.4895 114.02C24.5495 112.92 22.4295 112.65 20.5495 112.42C19.7495 112.32 18.9995 112.23 18.3595 112.08C13.4795 110.93 10.0695 106.71 10.0495 101.82L9.97952 69.0701C9.96952 64.5401 13.1995 60.7501 17.6695 60.0501C17.7495 60.0401 17.8195 60.0201 17.8995 60.0001C18.4495 59.8201 31.5895 55.5401 41.4895 47.8001C46.1495 44.1601 50.1395 38.5501 52.1695 32.8001C54.1895 27.0701 54.1795 20.8201 54.1695 15.8001C54.1695 12.5601 54.1595 8.53006 55.0395 7.94006C57.1795 6.53006 59.5395 5.81006 62.0495 5.81006C69.7695 5.81006 77.6495 12.8601 77.9595 20.0401C78.1795 25.0201 76.5095 30.9001 74.8995 36.5801C72.9995 43.3101 71.3495 49.1201 72.8395 53.0701C73.0595 53.6601 73.6195 54.0401 74.2395 54.0401L81.5295 53.7901H81.5995C89.7595 53.7901 96.3995 60.4301 96.4095 68.5801L96.4595 110.79C96.4595 113.7 95.3395 116.43 93.2795 118.48C92.2722 119.494 91.0739 120.298 89.7539 120.845C88.434 121.393 87.0185 121.673 85.5895 121.67H85.5195V121.67Z" fill="url(#paint0_radial)"/>
<path d="M62.0495 7.31006C68.9095 7.31006 76.1795 13.7701 76.4595 20.1001C76.6695 24.8401 75.0395 30.6001 73.4595 36.1701C71.4795 43.1501 69.7795 49.1801 71.4395 53.5901C71.6548 54.1609 72.0392 54.6526 72.5413 54.9992C73.0434 55.3459 73.6394 55.5311 74.2495 55.5301H74.3595L81.5595 55.2801H81.6195C88.9495 55.2801 94.9195 61.2401 94.9295 68.5801L94.9795 110.79C94.9795 113.29 94.0095 115.65 92.2395 117.42C90.4695 119.19 88.1195 120.17 85.6095 120.17H85.5295C76.9295 120.1 64.0195 119.76 51.3395 118.57C42.7395 117.76 33.8595 116.48 27.2295 112.72C25.0295 111.47 22.6495 111.18 20.7395 110.94C19.9795 110.85 19.2695 110.76 18.7095 110.62C14.5095 109.63 11.5695 106.01 11.5595 101.82L11.4795 69.0701C11.4695 65.2901 14.1695 62.1201 17.8995 61.5401C18.0495 61.5201 18.2095 61.4801 18.3495 61.4301C18.9095 61.2501 32.2895 56.8801 42.3995 48.9801C47.2695 45.1701 51.4495 39.3101 53.5695 33.3001C55.6795 27.3301 55.6695 20.9401 55.6595 15.8001C55.6595 13.3601 55.6495 10.0601 56.0695 9.06006C57.8518 7.911 59.9289 7.30314 62.0495 7.31006V7.31006ZM62.0495 4.31006C59.3995 4.31006 56.7195 5.03006 54.2095 6.69006C50.9695 8.83006 54.4795 21.7101 50.7495 32.2901C48.5095 38.6401 44.2395 43.7401 40.5595 46.6101C30.7595 54.2701 17.4395 58.5701 17.4395 58.5701C12.2695 59.3801 8.46951 63.8401 8.47951 69.0801L8.55951 101.83C8.57951 107.47 12.5295 112.24 18.0195 113.54C20.2395 114.06 23.2695 113.92 25.7495 115.33C32.3795 119.09 40.8795 120.59 51.0595 121.55C63.6595 122.74 76.4595 123.09 85.5095 123.17H85.6095C92.4395 123.17 97.9895 117.63 97.9795 110.79L97.9295 68.5801C97.9195 59.5701 90.6095 52.2901 81.6195 52.2901H81.4995L74.2595 52.5401C71.7595 45.9001 79.9495 30.9601 79.4695 19.9701C79.1195 12.1601 70.7895 4.31006 62.0495 4.31006V4.31006Z" fill="#EDA600"/>
<path d="M66.1196 62.5C67.9996 67.5 68.0196 75.3 66.1196 80.12C63.3696 87.08 56.6395 93.17 48.8695 94.24C46.9695 94.5 48.0995 96.25 49.9895 95.99C58.3995 94.83 69.7795 91.42 72.7395 83.87C80.8595 63.12 71.3596 52.25 67.1196 55.49C65.0796 57.07 65.0596 59.67 66.1196 62.5V62.5Z" fill="#EDA600"/>
<path d="M86.28 69.92C77.92 69.92 67.87 68.37 67.44 60.96C67.32 58.84 67.96 57.06 69.4 55.53C73.19 51.51 82.5 49.3 95.62 49.3C100.38 49.3 103.85 49.6101 103.89 49.6101C103.93 49.6101 103.98 49.62 104.02 49.62H104.11C104.25 49.61 104.38 49.6101 104.52 49.6101C108.77 49.6101 112.32 53.4401 112.61 58.3301C112.91 63.3901 109.58 67.71 105.19 67.96C105.12 67.96 105.04 67.97 104.97 67.99C104.88 68 95.62 69.92 86.28 69.92V69.92Z" fill="url(#paint1_radial)"/>
<path d="M95.6302 50.8C100.31 50.8 103.73 51.1 103.76 51.1C103.85 51.11 103.94 51.1101 104.03 51.1101C104.09 51.1101 104.15 51.11 104.2 51.1C104.31 51.09 104.42 51.09 104.52 51.09C107.97 51.09 110.87 54.3 111.11 58.39C111.23 60.51 110.63 62.52 109.42 64.06C108.29 65.5 106.75 66.3401 105.1 66.4401C104.95 66.4501 104.8 66.47 104.66 66.5C104.57 66.52 95.4402 68.4101 86.2802 68.4101C80.9602 68.4101 76.7402 67.79 73.7502 66.57C69.6402 64.89 69.0302 62.51 68.9402 60.87C68.8402 59.16 69.3402 57.79 70.5002 56.55C73.9502 52.9 83.1102 50.8 95.6302 50.8V50.8ZM95.6302 47.8C84.2102 47.8 65.2702 49.53 65.9402 61.05C66.4302 69.37 76.4702 71.42 86.2802 71.42C95.8902 71.42 105.28 69.45 105.28 69.45C110.5 69.14 114.46 64.12 114.11 58.23C113.78 52.53 109.54 48.1 104.53 48.1C104.36 48.1 104.2 48.1001 104.03 48.1101C104.03 48.1101 100.52 47.8 95.6302 47.8V47.8Z" fill="#EDA600"/>
<path d="M92.5497 88.9501C81.6397 88.9501 68.6396 87.1201 68.6396 78.3801C68.6396 69.6401 81.6397 67.8101 92.5497 67.8101C101.8 67.8101 110.23 69.1601 110.31 69.1701C110.39 69.1801 110.47 69.1901 110.55 69.1901C114.96 69.1901 118.03 73.8501 118.03 78.0301C118.03 82.4401 114.76 87.5601 110.55 87.5601C110.47 87.5601 110.39 87.5701 110.31 87.5801C110.22 87.6001 101.79 88.9501 92.5497 88.9501Z" fill="url(#paint2_radial)"/>
<path d="M92.5497 69.3199C101.67 69.3199 109.99 70.65 110.07 70.66C110.23 70.69 110.39 70.6999 110.55 70.6999C113.97 70.6999 116.53 74.5799 116.53 78.0399C116.53 81.6499 113.77 86.0699 110.55 86.0699C110.39 86.0699 110.23 86.0799 110.07 86.1099C109.99 86.1199 101.66 87.4499 92.5497 87.4499C85.7197 87.4499 80.2897 86.7299 76.3997 85.2999C70.7897 83.2399 70.1396 80.3599 70.1396 78.3799C70.1396 76.3899 70.7897 73.5199 76.3997 71.4599C80.2797 70.0399 85.7197 69.3199 92.5497 69.3199V69.3199ZM92.5497 66.3199C80.6197 66.3199 67.1396 68.5099 67.1396 78.3899C67.1396 88.2699 80.6097 90.4599 92.5497 90.4599C102.04 90.4599 110.55 89.0799 110.55 89.0799C115.71 89.0799 119.53 83.1699 119.53 78.0499C119.53 72.9299 115.71 67.7099 110.55 67.7099C110.55 67.6999 102.03 66.3199 92.5497 66.3199Z" fill="#EDA600"/>
<path d="M100.86 122.19C96.6504 122.19 75.3204 121.86 68.8604 115.39C67.7304 114.26 67.1904 113.04 67.1904 111.66C67.2104 106.41 76.2004 103.4 91.8504 103.4C97.4304 103.4 101.75 103.8 101.8 103.8C101.84 103.8 101.89 103.81 101.93 103.81C104.27 103.82 106.48 104.77 108.13 106.5C109.8 108.24 110.71 110.56 110.71 113.02C110.69 118.07 106.74 122.17 101.9 122.17C101.83 122.19 101.48 122.19 100.86 122.19V122.19Z" fill="url(#paint3_radial)"/>
<path d="M91.8602 104.91C97.3502 104.91 101.62 105.3 101.66 105.31C101.75 105.32 101.84 105.32 101.93 105.32C103.86 105.33 105.68 106.12 107.05 107.55C108.45 109.01 109.22 110.96 109.21 113.03C109.2 117.25 105.92 120.69 101.87 120.69H101.8C101.78 120.69 101.44 120.7 100.85 120.7C82.7002 120.7 72.8402 117.27 69.9102 114.34C68.8002 113.23 68.6802 112.29 68.6802 111.68C68.7102 107.5 77.5802 104.91 91.8602 104.91V104.91ZM91.8602 101.91C81.1402 101.91 65.7202 103.35 65.7002 111.66C65.6602 123.12 95.0002 123.69 100.86 123.69C101.51 123.69 101.87 123.68 101.87 123.68H101.9C107.58 123.68 112.19 118.92 112.21 113.03C112.23 107.13 107.63 102.33 101.94 102.31C101.94 102.32 97.5702 101.91 91.8602 101.91V101.91Z" fill="#EDA600"/>
<path d="M97.1205 106.32C88.1305 106.32 67.2305 105.3 67.2305 95.85C67.2305 87.91 82.3005 86.73 91.2905 86.73C99.2405 86.73 106.09 87.61 106.16 87.62C106.22 87.63 106.29 87.63 106.35 87.63C110.52 87.63 115.38 89.69 115.38 95.5C115.38 101 111.08 106 106.35 106H106.23C106.19 106.01 102.34 106.32 97.1205 106.32Z" fill="url(#paint4_radial)"/>
<path d="M91.2905 85.24V88.24C99.1205 88.24 105.9 89.11 105.96 89.12C106.09 89.14 106.22 89.14 106.35 89.14C109.99 89.14 113.88 90.81 113.88 95.51C113.88 100.14 110.22 104.51 106.35 104.51C106.27 104.51 106.19 104.51 106.1 104.52C106.06 104.52 102.27 104.83 97.1105 104.83C91.6605 104.83 83.8705 104.48 77.7005 102.84C71.7505 101.25 68.7305 98.9 68.7305 95.87C68.7305 94.94 68.7305 92.11 75.0705 90.12C79.0205 88.88 84.4705 88.25 91.2805 88.25L91.2905 85.24V85.24ZM91.2905 85.24C79.7305 85.24 65.7305 87.06 65.7305 95.86C65.7305 106.23 85.1305 107.83 97.1205 107.83C102.48 107.83 106.35 107.51 106.35 107.51C111.99 107.51 116.88 101.68 116.88 95.51C116.88 89.34 111.99 86.14 106.35 86.14C106.35 86.14 99.4205 85.24 91.2905 85.24Z" fill="#EDA600"/>
<path d="M27.79 114.9L23 96L21 113L27.79 114.9Z" fill="#EDA600"/>
<defs>
<radialGradient id="paint0_radial" cx="0" cy="0" r="1" gradientUnits="userSpaceOnUse" gradientTransform="translate(51.7687 31.401) rotate(90.1249) scale(87.0392 68.526)">
<stop offset="0.6" stop-color="#FFCA28"/>
<stop offset="1" stop-color="#FFB300"/>
</radialGradient>
<radialGradient id="paint1_radial" cx="0" cy="0" r="1" gradientUnits="userSpaceOnUse" gradientTransform="translate(102.952 58.7373) rotate(176.727) scale(28.2717 13.8338)">
<stop offset="0.599" stop-color="#FFCA28"/>
<stop offset="1" stop-color="#FFB300"/>
</radialGradient>
<radialGradient id="paint2_radial" cx="0" cy="0" r="1" gradientUnits="userSpaceOnUse" gradientTransform="translate(107.419 78.1295) rotate(-179.937) scale(31.8182 12.7596)">
<stop offset="0.599" stop-color="#FFCA28"/>
<stop offset="1" stop-color="#FFB300"/>
</radialGradient>
<radialGradient id="paint3_radial" cx="0" cy="0" r="1" gradientUnits="userSpaceOnUse" gradientTransform="translate(101.214 112.595) rotate(-179.726) scale(26.7212 13.9117)">
<stop offset="0.599" stop-color="#FFCA28"/>
<stop offset="1" stop-color="#FFB300"/>
</radialGradient>
<radialGradient id="paint4_radial" cx="0" cy="0" r="1" gradientUnits="userSpaceOnUse" gradientTransform="translate(105.021 96.2996) rotate(-179.934) scale(30.4439 12.663)">
<stop offset="0.599" stop-color="#FFCA28"/>
<stop offset="1" stop-color="#FFB300"/>
</radialGradient>
</defs>
</svg>
