<svg width="64" height="64" viewBox="0 0 64 64" fill="none" xmlns="http://www.w3.org/2000/svg">
<path d="M62.5499 55.756C62.5499 59.803 58.9949 63.085 54.6039 63.085H9.16387C4.77387 63.085 1.21387 59.803 1.21387 55.756V20.921C1.21387 16.881 4.77387 13.593 9.16387 13.593H54.6039C58.9959 13.593 62.5499 16.879 62.5499 20.921V55.756Z" fill="#E0E0E0"/>
<path d="M16.9208 55.756V20.921C16.9208 16.881 20.4778 13.593 24.8668 13.593H9.1668C4.7768 13.593 1.2168 16.879 1.2168 20.921V55.755C1.2168 59.802 4.7768 63.084 9.1668 63.084H24.8668C20.4778 63.084 16.9208 59.803 16.9208 55.756Z" fill="#D6D7D6"/>
<path d="M62.5499 23.919C62.5499 25.594 58.9949 26.953 54.6039 26.953H9.16387C4.77387 26.953 1.21387 25.594 1.21387 23.919V9.48297C1.21387 7.80697 4.77387 6.44897 9.16387 6.44897H54.6039C58.9959 6.44897 62.5499 7.80697 62.5499 9.48297V23.919Z" fill="#BE1E2D"/>
<path d="M30.0896 56.8701V38.3781C26.7126 41.0211 24.4406 42.3411 23.2696 42.3411C22.7116 42.3411 22.2206 42.1131 21.7856 41.6581C21.5797 41.4509 21.4169 41.2049 21.3067 40.9344C21.1965 40.6639 21.1411 40.3742 21.1436 40.0821C21.1436 39.3911 21.3506 38.8831 21.7776 38.5581C22.2006 38.2341 22.9516 37.8161 24.0296 37.2951C25.6376 36.5271 26.9206 35.7161 27.8836 34.8631C28.8448 34.0096 29.7045 33.0483 30.4456 31.9981C31.1886 30.9391 31.6706 30.2881 31.8996 30.0411C32.1226 29.7991 32.5496 29.6801 33.1726 29.6801C33.8816 29.6801 34.4426 29.9561 34.8696 30.5111C35.2926 31.0671 35.5096 31.8291 35.5096 32.8071V56.0781C35.5096 58.8021 34.5976 60.1651 32.7746 60.1651C31.9676 60.1651 31.3166 59.8841 30.8256 59.3341C30.3296 58.7771 30.0896 57.9551 30.0896 56.8701" fill="#25333A"/>
<path d="M22.9971 14.07C22.9971 16.621 20.9691 18.682 18.4761 18.682C15.9761 18.682 13.9541 16.621 13.9541 14.07V4.84801C13.9541 2.29701 15.9771 0.234009 18.4761 0.234009C20.9691 0.234009 22.9971 2.29701 22.9971 4.84801V14.07Z" fill="#D0D2D3"/>
<path d="M50.1504 14.07C50.1504 16.621 48.1304 18.682 45.6304 18.682C43.1344 18.682 41.1094 16.621 41.1094 14.07V4.84801C41.1094 2.29701 43.1344 0.234009 45.6304 0.234009C48.1294 0.234009 50.1504 2.29701 50.1504 4.84801V14.07" fill="#D0D2D3"/>
</svg>
