<svg width="36" height="36" viewBox="0 0 36 36" fill="none" xmlns="http://www.w3.org/2000/svg">
<path d="M29.896 26.667C29.899 26.95 29.826 27.32 29.75 27.625C29.219 29.77 26.861 32.177 23.542 31.958C20.534 31.76 18.084 30.316 18.084 28.291C18.084 26.266 20.528 24.624 23.542 24.624C26.556 24.624 29.877 24.642 29.896 26.667V26.667Z" fill="#EA596E"/>
<path d="M23.543 24.964C21.924 24.964 18.229 25.412 17.381 25.412C15.883 25.412 14.668 26.352 14.668 27.512C14.668 28.07 14.954 28.574 15.412 28.95C15.412 28.95 16.418 29.959 18.23 29.475C19.023 29.263 20.313 27.689 22.584 27.439C23.715 27.314 25.834 28.189 29.558 28.21C29.718 27.866 29.751 27.627 29.751 27.627C29.751 25.6 26.557 24.964 23.543 24.964Z" fill="#DD2E44"/>
<path d="M29.749 27.625C29.749 27.625 31.933 27.182 33.291 25.396C34.874 23.313 34.666 21.084 34.666 21.084C36.27 18.084 34.166 15.271 34.166 15.271C33.957 12.104 31.999 10.792 31.999 10.792C30.728 7.77104 27.916 6.95904 27.916 6.95904C25.708 4.37604 21.791 4.45904 21.791 4.45904C21.791 4.45904 18.121 3.11404 13.083 4.62604C12.25 4.87604 9.45803 5.45904 7.41603 6.70904C0.980029 10.649 0.493028 16.793 0.583028 17.792C1.08203 23.375 4.99903 24.375 7.49903 24.958C8.08203 26.541 10.228 29.458 14.082 28.375C18.832 27.542 20.832 26.125 21.999 26.125C23.166 26.125 26.416 27.375 29.749 27.625Z" fill="#F4ABBA"/>
<path d="M17.7363 18.648C20.0643 17.393 21.3263 17.51 22.4403 17.611C22.7943 17.643 23.1293 17.668 23.4683 17.666C25.4523 17.621 27.0593 16.785 27.7703 15.976C27.8518 15.8755 27.8912 15.7473 27.8804 15.6183C27.8695 15.4894 27.8091 15.3696 27.7119 15.2841C27.6147 15.1987 27.4882 15.1542 27.3589 15.1599C27.2296 15.1657 27.1075 15.2213 27.0183 15.315C26.4703 15.939 25.1193 16.628 23.4453 16.666C23.1453 16.675 22.8443 16.645 22.5323 16.616C21.3373 16.505 19.8533 16.369 17.2613 17.768C16.5963 18.127 15.6843 18.26 14.6963 18.36C12.4993 15.189 13.8213 12.427 14.1993 11.769C14.2363 11.771 14.2723 11.783 14.3103 11.783C14.7103 11.783 15.1123 11.685 15.4763 11.479C15.5871 11.4115 15.6674 11.3035 15.7001 11.1779C15.7328 11.0522 15.7154 10.9188 15.6515 10.8058C15.5876 10.6928 15.4822 10.6091 15.3577 10.5724C15.2332 10.5356 15.0993 10.5488 14.9843 10.609C14.6697 10.7822 14.3013 10.8303 13.9528 10.7437C13.6043 10.6572 13.3012 10.4423 13.1043 10.142C13.0299 10.0372 12.918 9.96497 12.7918 9.94044C12.6656 9.91591 12.5348 9.94093 12.4266 10.0103C12.3184 10.0797 12.241 10.188 12.2106 10.3129C12.1802 10.4378 12.199 10.5697 12.2633 10.681C12.5003 11.052 12.8343 11.331 13.2113 11.518C12.6903 12.576 11.7013 15.358 13.5833 18.469C12.2593 18.599 10.9333 18.786 9.89525 19.455C9.16569 19.933 8.52931 20.5399 8.01725 21.246C7.38825 21.138 5.08525 20.571 4.68325 18.015C4.93325 17.821 5.13525 17.565 5.26025 17.249C5.28442 17.188 5.29632 17.1227 5.29527 17.0571C5.29423 16.9914 5.28026 16.9266 5.25417 16.8663C5.22807 16.8061 5.19036 16.7515 5.14319 16.7058C5.09603 16.6601 5.04032 16.6242 4.97925 16.6C4.91819 16.5759 4.85296 16.564 4.7873 16.565C4.72164 16.566 4.65682 16.58 4.59656 16.6061C4.53629 16.6322 4.48176 16.6699 4.43606 16.7171C4.39037 16.7642 4.35442 16.82 4.33025 16.881C4.29244 16.9861 4.23226 17.0818 4.15388 17.1614C4.0755 17.241 3.98078 17.3026 3.87625 17.342C3.77034 17.3772 3.65808 17.3892 3.54712 17.3771C3.43617 17.365 3.32911 17.3292 3.23325 17.272C3.17587 17.2401 3.11275 17.2198 3.04752 17.2123C2.98229 17.2048 2.91622 17.2102 2.85307 17.2282C2.72555 17.2646 2.6177 17.3501 2.55325 17.466C2.48881 17.5819 2.47304 17.7187 2.50942 17.8462C2.5458 17.9737 2.63135 18.0816 2.74725 18.146C3.03125 18.304 3.33525 18.384 3.63725 18.384C3.67425 18.384 3.70925 18.367 3.74625 18.365C4.22225 20.778 6.12925 21.838 7.47825 22.159C7.30163 22.5349 7.18972 22.9379 7.14725 23.351C7.1356 23.4831 7.17688 23.6144 7.26202 23.716C7.34716 23.8177 7.46918 23.8813 7.60125 23.893L7.64625 23.895C7.77123 23.895 7.89168 23.8482 7.98385 23.7638C8.07603 23.6794 8.13326 23.5635 8.14425 23.439C8.25225 22.226 9.40925 20.959 10.4373 20.294C11.4013 19.673 12.8123 19.542 14.1783 19.415C15.5033 19.294 16.7553 19.178 17.7363 18.648V18.648ZM30.6023 17.144C30.5707 17.2017 30.5509 17.265 30.5438 17.3303C30.5368 17.3956 30.5426 17.4617 30.5611 17.5247C30.5796 17.5878 30.6103 17.6466 30.6515 17.6978C30.6927 17.7489 30.7436 17.7915 30.8013 17.823C30.8589 17.8545 30.9222 17.8744 30.9875 17.8814C31.0528 17.8885 31.1189 17.8826 31.182 17.8641C31.3093 17.8268 31.4166 17.7404 31.4803 17.624C31.4993 17.59 33.3223 14.175 29.9093 11.88C29.7992 11.806 29.6642 11.7788 29.5341 11.8043C29.4039 11.8298 29.2892 11.906 29.2153 12.016C29.1413 12.1261 29.114 12.261 29.1395 12.3912C29.165 12.5213 29.2412 12.636 29.3513 12.71C31.9953 14.488 30.6603 17.036 30.6023 17.144ZM9.87525 9.07002C9.95462 9.07028 10.0329 9.05154 10.1035 9.01535C10.1742 8.97916 10.2351 8.92659 10.2813 8.86202C11.7313 6.84502 13.7393 7.53502 13.8243 7.56702C13.9474 7.60767 14.0816 7.59887 14.1984 7.54249C14.3151 7.4861 14.4055 7.38654 14.4502 7.26481C14.495 7.14309 14.4907 7.00873 14.4383 6.8901C14.3859 6.77147 14.2894 6.67786 14.1693 6.62902C13.2093 6.27302 10.9923 6.16102 9.46925 8.27902C9.41579 8.35372 9.38394 8.4417 9.3772 8.53331C9.37045 8.62492 9.38908 8.71661 9.43102 8.79834C9.47297 8.88006 9.53661 8.94865 9.61498 8.99657C9.69334 9.0445 9.7834 9.06991 9.87525 9.07002V9.07002ZM22.9473 7.18202C25.1723 7.00102 26.1843 8.61402 26.2303 8.69002C26.2975 8.80446 26.4074 8.8875 26.5359 8.92089C26.5995 8.93741 26.6657 8.94125 26.7308 8.93218C26.7959 8.92311 26.8586 8.90131 26.9153 8.86802C26.9719 8.83473 27.0215 8.7906 27.0611 8.73816C27.1007 8.68572 27.1296 8.62599 27.1461 8.56238C27.1627 8.49877 27.1665 8.43253 27.1574 8.36744C27.1483 8.30235 27.1265 8.23968 27.0933 8.18302C27.0393 8.09202 25.7533 5.96502 22.8693 6.18502C22.8038 6.19014 22.74 6.2081 22.6815 6.23789C22.6229 6.26767 22.5709 6.30869 22.5282 6.3586C22.442 6.4594 22.3994 6.59031 22.4098 6.72252C22.4201 6.85473 22.4825 6.97741 22.5833 7.06359C22.6841 7.14976 22.815 7.19236 22.9473 7.18202V7.18202ZM32.0973 21.793C31.8513 21.779 31.5803 21.974 31.5583 22.25C31.5563 22.268 31.3973 23.969 29.6483 24.544C29.5339 24.5799 29.4363 24.6558 29.3733 24.7578C29.3103 24.8598 29.2861 24.9811 29.3052 25.0994C29.3242 25.2177 29.3853 25.3253 29.4771 25.4023C29.5689 25.4794 29.6854 25.5208 29.8053 25.519C29.8583 25.519 29.9109 25.5106 29.9613 25.494C32.3333 24.716 32.5473 22.43 32.5553 22.333C32.5658 22.2008 32.5235 22.0697 32.4377 21.9685C32.3519 21.8673 32.2295 21.8042 32.0973 21.793Z" fill="#EA596E"/>
<path d="M7.34586 16.934C7.32619 16.9982 7.31964 17.0656 7.32659 17.1324C7.33354 17.1991 7.35386 17.2638 7.38633 17.3225C7.4188 17.3812 7.46276 17.4328 7.51558 17.4742C7.56841 17.5156 7.62903 17.5459 7.69382 17.5634C7.75861 17.5808 7.82626 17.585 7.89272 17.5758C7.95919 17.5666 8.02311 17.544 8.08069 17.5096C8.13827 17.4751 8.18832 17.4294 8.22786 17.3752C8.2674 17.321 8.29563 17.2594 8.31086 17.194C8.40714 16.8475 8.63103 16.5504 8.93751 16.3622C9.24399 16.1741 9.61033 16.109 9.96286 16.18C10.0271 16.1935 10.0934 16.1941 10.158 16.182C10.2225 16.1698 10.284 16.1451 10.339 16.1091C10.394 16.0732 10.4413 16.0268 10.4784 15.9725C10.5154 15.9183 10.5414 15.8573 10.5549 15.793C10.5683 15.7287 10.569 15.6624 10.5568 15.5979C10.5447 15.5334 10.5199 15.4718 10.484 15.4169C10.448 15.3619 10.4016 15.3145 10.3474 15.2775C10.2931 15.2405 10.2321 15.2145 10.1679 15.201C9.75171 15.1166 9.32049 15.1463 8.91986 15.287C7.75386 13.293 7.98086 11.327 7.98386 11.306C8.00093 11.1747 7.96543 11.0419 7.88508 10.9367C7.80473 10.8314 7.68603 10.7622 7.55486 10.744C7.42388 10.7272 7.29154 10.7625 7.18639 10.8424C7.08124 10.9223 7.01173 11.0403 6.99286 11.171C6.97986 11.268 6.71286 13.487 8.05586 15.785C7.71302 16.0913 7.46639 16.4904 7.34586 16.934V16.934ZM18.5249 14.464C18.7245 14.2824 18.9854 14.183 19.2553 14.1858C19.5252 14.1885 19.784 14.2933 19.9799 14.479C20.0753 14.5708 20.2032 14.6212 20.3356 14.6191C20.468 14.6171 20.5943 14.5627 20.6869 14.468C20.7793 14.3729 20.8301 14.245 20.8283 14.1124C20.8264 13.9799 20.7719 13.8534 20.6769 13.761C20.451 13.5461 20.1781 13.3869 19.8799 13.296C20.1759 12.28 20.0589 11.829 19.7839 10.984C19.7294 10.8187 19.6771 10.6527 19.6269 10.486L19.5969 10.386C19.2329 9.17802 18.9919 8.38102 19.6839 7.25602C19.7533 7.14304 19.7751 7.00708 19.7443 6.87805C19.7136 6.74903 19.6328 6.6375 19.5199 6.56802C19.4069 6.49853 19.2709 6.47677 19.1419 6.50753C19.0129 6.53828 18.9013 6.61904 18.8319 6.73202C17.9039 8.24002 18.2449 9.36902 18.6399 10.676L18.6699 10.776C18.7289 10.97 18.7829 11.14 18.8329 11.293C19.0799 12.054 19.1549 12.309 18.8529 13.229C18.4752 13.2977 18.1249 13.4725 17.8429 13.733C17.7494 13.8243 17.6953 13.9485 17.6923 14.0791C17.6892 14.2097 17.7374 14.3363 17.8266 14.4319C17.9157 14.5274 18.0387 14.5842 18.1692 14.5902C18.2997 14.5963 18.4273 14.5509 18.5249 14.464V14.464ZM24.8899 11.479C25.1868 11.4799 25.4803 11.4147 25.7489 11.288C25.8689 11.2315 25.9615 11.1297 26.0064 11.0049C26.0514 10.8801 26.0448 10.7425 25.9884 10.6225C25.9319 10.5025 25.83 10.4099 25.7052 10.3649C25.5804 10.32 25.4429 10.3265 25.3229 10.383C25.077 10.4953 24.7979 10.5106 24.5412 10.4259C24.2846 10.3412 24.0695 10.1626 23.9389 9.92602C23.9091 9.86594 23.8676 9.81245 23.8168 9.76872C23.766 9.725 23.707 9.69194 23.6431 9.67151C23.5793 9.65107 23.512 9.64368 23.4452 9.64977C23.3785 9.65587 23.3136 9.67532 23.2546 9.70697C23.1955 9.73862 23.1434 9.78183 23.1013 9.83403C23.0593 9.88623 23.0281 9.94635 23.0098 10.0108C22.9914 10.0753 22.9862 10.1428 22.9945 10.2093C23.0028 10.2758 23.0243 10.34 23.0579 10.398C23.2379 10.734 23.5059 10.999 23.8179 11.183C23.2809 12.488 23.5859 13.874 23.8349 14.609C23.8539 14.6735 23.8858 14.7335 23.9285 14.7854C23.9713 14.8373 24.0241 14.8801 24.0838 14.9111C24.1434 14.9421 24.2088 14.9608 24.2758 14.9659C24.3429 14.9711 24.4103 14.9627 24.474 14.9413C24.5377 14.9198 24.5965 14.8857 24.6467 14.841C24.697 14.7963 24.7377 14.7419 24.7664 14.6811C24.7952 14.6203 24.8114 14.5543 24.814 14.4871C24.8167 14.4199 24.8057 14.3529 24.7819 14.29C24.6139 13.792 24.2879 12.534 24.7799 11.464C24.8179 11.466 24.8529 11.479 24.8899 11.479V11.479ZM29.6869 20.908C29.683 20.8424 29.6662 20.7781 29.6374 20.719C29.6086 20.6598 29.5683 20.607 29.5189 20.5636C29.4695 20.5202 29.412 20.487 29.3497 20.4659C29.2873 20.4449 29.2215 20.4364 29.1559 20.441C28.9161 20.4576 28.6754 20.4266 28.4476 20.3499C28.2198 20.2732 28.0094 20.1523 27.8285 19.994C27.6476 19.8358 27.4998 19.6434 27.3934 19.4278C27.2871 19.2123 27.2244 18.9779 27.2089 18.738C27.1976 18.6065 27.1358 18.4846 27.0363 18.3978C26.9369 18.3111 26.8076 18.2663 26.6759 18.273C26.5437 18.2825 26.4206 18.3439 26.3335 18.4437C26.2464 18.5436 26.2023 18.6738 26.2109 18.806C26.2519 19.396 26.4769 19.928 26.8189 20.361C26.0149 21.307 24.9619 21.576 24.3749 21.645C23.8559 21.707 23.4019 21.654 22.8769 21.592C22.3959 21.537 21.8519 21.474 21.1789 21.494L21.1739 21.495C21.1539 21.209 21.0859 20.792 20.8689 20.445C20.7943 20.3423 20.6834 20.2717 20.5588 20.2475C20.4341 20.2233 20.3049 20.2474 20.1973 20.3149C20.0897 20.3823 20.0118 20.4881 19.9792 20.6108C19.9466 20.7336 19.9619 20.8641 20.0219 20.976C20.1559 21.191 20.1809 21.534 20.1809 21.701C19.6769 21.882 19.2409 22.148 18.8469 22.405C18.1429 22.863 17.5879 23.225 16.7529 23.037C15.9969 22.864 15.2399 22.829 14.5979 22.919C14.4979 22.668 14.3399 22.368 14.0959 22.137C13.9995 22.0459 13.8708 21.9968 13.7382 22.0006C13.6056 22.0043 13.48 22.0606 13.3889 22.157C13.2978 22.2534 13.2487 22.3821 13.2524 22.5147C13.2562 22.6472 13.3125 22.7729 13.4089 22.864C13.4949 22.945 13.5629 23.063 13.6179 23.181C12.5149 23.635 11.9619 24.394 11.9359 24.431C11.8828 24.5057 11.8513 24.5935 11.8449 24.6849C11.8384 24.7763 11.8573 24.8676 11.8993 24.949C11.9413 25.0304 12.0049 25.0986 12.0832 25.1463C12.1614 25.1939 12.2513 25.2191 12.3429 25.219C12.4219 25.2192 12.4999 25.2008 12.5704 25.1651C12.641 25.1295 12.7021 25.0777 12.7489 25.014C12.7539 25.006 13.3029 24.271 14.3859 23.974C14.9459 23.82 15.7489 23.833 16.5319 24.011C16.7509 24.061 16.9539 24.078 17.1509 24.081C17.2439 24.299 17.2799 24.558 17.2849 24.654C17.2922 24.7815 17.348 24.9013 17.4407 24.989C17.5335 25.0767 17.6562 25.1257 17.7839 25.126L17.8109 25.125C17.9428 25.118 18.0666 25.0591 18.1553 24.9611C18.2439 24.8631 18.2901 24.734 18.2839 24.602C18.2672 24.3691 18.2235 24.1389 18.1539 23.916C18.6149 23.749 19.0159 23.488 19.3929 23.243C19.9649 22.87 20.5059 22.517 21.2129 22.494C21.8049 22.473 22.2929 22.53 22.7639 22.585C23.2379 22.64 23.7039 22.676 24.2179 22.646C24.3089 22.899 24.3019 23.237 24.2879 23.35C24.2794 23.4204 24.2859 23.4918 24.307 23.5595C24.3281 23.6273 24.3632 23.6897 24.4102 23.7429C24.4571 23.7961 24.5147 23.8387 24.5793 23.868C24.6439 23.8973 24.7139 23.9127 24.7849 23.913C24.9061 23.9128 25.0231 23.8686 25.1142 23.7886C25.2052 23.7086 25.2641 23.5982 25.2799 23.478C25.3165 23.1501 25.2965 22.8182 25.2209 22.497C26.1332 22.2549 26.9508 21.7421 27.5659 21.026C28.0616 21.3322 28.6404 21.4766 29.2219 21.439C29.2873 21.4347 29.3512 21.4175 29.4099 21.3885C29.4687 21.3595 29.5212 21.3192 29.5644 21.2698C29.6075 21.2205 29.6406 21.1632 29.6616 21.1011C29.6826 21.039 29.6912 20.9734 29.6869 20.908V20.908Z" fill="#EA596E"/>
</svg>
