<svg width="48" height="48" viewBox="0 0 48 48" fill="none" xmlns="http://www.w3.org/2000/svg">
<path d="M29.1748 31.99L32.0028 29.163L44.0218 41.182L41.1938 44.009L29.1748 31.99Z" fill="#616161"/>
<path d="M20 36C28.8366 36 36 28.8366 36 20C36 11.1634 28.8366 4 20 4C11.1634 4 4 11.1634 4 20C4 28.8366 11.1634 36 20 36Z" fill="#616161"/>
<path d="M32.4502 35.34L35.2772 32.512L43.9732 41.208L41.1452 44.036L32.4502 35.34Z" fill="#37474F"/>
<path d="M20 33C27.1797 33 33 27.1797 33 20C33 12.8203 27.1797 7 20 7C12.8203 7 7 12.8203 7 20C7 27.1797 12.8203 33 20 33Z" fill="#64B5F6"/>
<path d="M26.9003 14.2C25.2003 12.2 22.7003 11 20.0003 11C17.3003 11 14.8003 12.2 13.1003 14.2C12.7003 14.6 12.8003 15.3 13.2003 15.6C13.6003 16 14.3003 15.9 14.6003 15.5C16.0003 13.9 17.9003 13 20.0003 13C22.1003 13 24.0003 13.9 25.4003 15.5C25.6003 15.7 25.9003 15.9 26.2003 15.9C26.4003 15.9 26.7003 15.8 26.8003 15.7C27.2003 15.3 27.2003 14.6 26.9003 14.2V14.2Z" fill="#BBDEFB"/>
</svg>
