<svg height='100px' width='100px'  fill="#ffffff" xmlns="http://www.w3.org/2000/svg" xmlns:xlink="http://www.w3.org/1999/xlink" version="1.1" x="0px" y="0px" viewBox="0 0 100 100" style="enable-background:new 0 0 100 100;" xml:space="preserve"><path d="M83.5,15.4C81.1,6,71.4,0.4,62,2.8C52.5,5.3,46.9,15,49.4,24.4c1.2,4.5,4,8.1,7.6,10.4L52.3,42L70.9,37  C80.4,34.6,86,24.9,83.5,15.4z M68,28.9h-3.3V26H68V28.9z M68.1,22.3v1.6h-3.3v-4.7h1.7c1.4,0,2.5-1.1,2.5-2.5  c0-1.4-1.1-2.5-2.5-2.5c-1.4,0-2.5,1.1-2.5,2.5h-3.3c0-3.2,2.6-5.9,5.9-5.9c3.2,0,5.9,2.6,5.9,5.9C72.2,19.3,70.5,21.6,68.1,22.3z"></path><path d="M7.7,85.3v12.2h54.1V85.3c0-7.4-5.7-13.1-13.1-13.1H20.9C13.8,72.2,7.7,78,7.7,85.3z"></path><path d="M34.7,66.8c8.3,0,15.1-6.8,15.1-15.1S43,36.6,34.7,36.6s-15.1,6.8-15.1,15.1C19.7,60,26.4,66.8,34.7,66.8z"></path><path d="M70.1,69c6.6,0,11.8-5.4,11.8-11.8s-5.4-11.8-11.8-11.8c-6.6,0-11.8,5.4-11.8,11.8S63.5,69,70.1,69z"></path><path d="M81,73.3H60.6c3.4,2.9,5.5,7.3,5.5,12.1l0.5,12.1h24.8V83.6C91.4,77.9,86.8,73.3,81,73.3z"></path></svg>